<?xml version="1.0" standalone="no"?>
<!DOCTYPE svg PUBLIC "-//W3C//DTD SVG 20010904//EN"
 "http://www.w3.org/TR/2001/REC-SVG-20010904/DTD/svg10.dtd">
<svg version="1.0" xmlns="http://www.w3.org/2000/svg"
 width="1640.000000pt" height="624.000000pt" viewBox="0 0 1640.000000 624.000000"
 preserveAspectRatio="xMidYMid meet">
<metadata>
Created by potrace 1.16, written by Peter Selinger 2001-2019
</metadata>
<g transform="translate(0.000000,624.000000) scale(0.100000,-0.100000)"
fill="#000000" stroke="none">
<path d="M8385 6204 c-526 -182 -1393 -340 -2210 -404 -446 -34 -609 -41
-1415 -55 -350 -7 -595 -25 -830 -61 -395 -61 -697 -146 -1024 -289 -435 -189
-803 -485 -1038 -833 -108 -160 -204 -387 -250 -594 -20 -90 -23 -129 -23
-308 1 -188 3 -215 29 -324 80 -343 228 -608 481 -862 120 -120 205 -189 361
-294 l117 -78 2 -204 c2 -224 18 -333 76 -511 126 -384 412 -736 806 -990
l111 -72 -5 -162 -6 -163 1085 0 1085 0 89 41 c461 213 1028 338 1649 363 77
3 286 8 465 11 179 3 377 7 440 10 63 3 178 7 255 10 154 7 498 30 670 46 296
27 959 116 1005 135 8 4 33 8 55 10 22 3 41 8 43 12 1 5 17 6 34 4 17 -3 28
-1 25 4 -3 5 7 9 21 10 31 1 110 16 132 24 3 1 8 2 13 1 11 -2 8 17 -4 24 -6
4 -8 13 -5 21 3 7 1 16 -4 19 -6 4 -10 12 -10 18 0 7 5 5 10 -5 13 -22 46 -16
43 8 -1 11 0 13 3 6 3 -6 10 -9 15 -6 6 3 5 12 -3 22 -9 12 -6 11 10 -2 12
-11 22 -14 22 -8 0 6 -5 14 -10 17 -8 5 -8 11 -1 19 6 7 7 17 3 21 -4 5 -1 5
6 1 9 -6 10 -12 3 -20 -7 -9 -7 -16 0 -23 8 -8 8 -17 0 -31 -17 -32 -12 -39 8
-12 14 17 17 29 10 42 -6 11 -5 19 2 23 7 5 5 13 -5 24 -14 15 -14 18 -2 18 8
0 15 -3 14 -6 0 -3 1 -9 2 -13 1 -5 3 -12 4 -18 0 -5 6 -9 11 -7 6 1 8 7 6 12
-2 6 -4 15 -5 20 -1 6 -5 15 -9 22 -4 6 -3 15 3 18 6 4 10 3 9 -2 -1 -4 0 -11
1 -15 4 -13 7 -27 9 -39 0 -5 5 -8 10 -5 10 7 9 25 -2 44 -5 6 -5 12 -1 12 3
0 1 6 -5 14 -8 10 -9 16 -1 21 6 4 10 3 9 -2 -1 -4 0 -11 1 -15 1 -5 3 -12 4
-18 0 -5 6 -9 11 -7 6 1 8 7 7 12 -9 24 -11 47 -4 41 7 -7 8 -11 11 -37 0 -5
5 -8 10 -5 12 8 8 30 -9 52 -14 18 -14 18 7 0 12 -10 22 -21 21 -25 -2 -19 3
-24 12 -11 6 10 3 21 -12 38 -19 19 -38 65 -20 47 4 -4 7 -12 7 -18 1 -7 7
-11 14 -9 7 1 10 -2 7 -7 -3 -5 2 -15 11 -22 14 -12 15 -11 9 11 -6 19 -5 21
3 10 6 -8 11 -12 12 -7 3 13 6 27 9 32 7 14 5 31 -4 45 -8 13 -8 13 4 2 8 -7
15 -18 15 -25 0 -7 8 -12 18 -12 9 0 16 4 15 10 -2 5 -7 9 -11 7 -4 -1 -3 6 2
17 6 10 7 22 3 26 -4 5 -2 5 5 1 7 -4 9 -14 6 -24 -6 -15 -5 -15 10 -3 16 12
16 16 3 30 -11 12 -12 21 -5 31 9 13 10 12 6 -2 -3 -9 3 -24 14 -34 17 -15 29
-7 12 10 -11 10 -12 37 -2 30 5 -3 7 -9 5 -12 -2 -4 4 -19 15 -32 18 -22 19
-23 17 -5 -2 11 -7 24 -13 28 -6 5 -3 7 8 3 20 -6 21 -3 6 27 -8 19 -8 20 3 7
18 -21 38 -23 38 -4 0 8 -4 13 -9 10 -4 -3 -17 4 -27 16 -11 12 -14 18 -7 15
6 -4 16 0 22 10 6 10 11 13 11 6 0 -6 -5 -15 -10 -18 -6 -4 -7 -11 -4 -17 5
-7 12 -5 20 7 12 16 13 14 11 -17 -2 -20 0 -44 4 -54 8 -20 9 -15 13 64 1 15
4 32 8 38 4 6 4 14 1 18 -4 4 -8 14 -9 22 -1 9 1 13 4 9 4 -4 8 -11 8 -16 1
-5 3 -11 4 -14 1 -3 3 -9 4 -15 0 -5 5 -9 11 -7 5 1 8 7 6 12 -2 6 -4 15 -5
20 -1 6 -5 15 -9 22 -4 6 -3 15 3 18 6 4 10 3 9 -2 -1 -4 0 -11 1 -15 4 -13 7
-27 9 -39 0 -5 5 -8 10 -5 7 5 8 41 1 41 -1 0 -4 11 -6 24 -2 14 -2 22 2 19 3
-3 7 -14 9 -25 6 -29 6 -29 16 -8 l9 20 -3 -20 c-1 -11 3 -20 8 -20 6 0 10 14
10 30 0 30 11 43 23 29 4 -4 1 -4 -5 0 -7 4 -13 3 -13 -2 0 -17 13 -22 27 -10
11 9 9 16 -12 38 -18 19 -21 27 -11 27 8 0 14 -3 13 -6 -1 -3 2 -8 7 -11 6 -3
11 7 11 23 1 15 5 30 9 34 4 4 5 -4 2 -19 -4 -26 14 -54 27 -41 10 9 9 25 -1
19 -5 -3 -9 2 -9 11 0 12 5 11 19 -7 10 -12 18 -29 18 -37 0 -8 5 -11 10 -8
12 7 -2 39 -31 71 -15 16 -16 21 -5 21 8 0 13 -4 11 -8 -3 -3 2 -12 11 -19 13
-12 14 -10 10 15 -3 15 -2 24 2 20 4 -3 8 -11 8 -16 1 -5 2 -13 3 -17 1 -11
31 -11 31 -1 0 4 -3 9 -7 12 -5 2 -2 2 5 0 8 -1 12 3 10 9 -3 7 -9 13 -14 13
-20 0 -31 15 -30 39 2 37 13 41 12 4 -1 -22 4 -32 17 -34 9 -1 17 3 17 9 0 6
7 2 15 -9 19 -25 19 -11 0 29 -12 23 -12 27 -2 15 8 -10 17 -15 21 -11 3 3 0
14 -8 22 -11 12 -12 21 -5 31 8 13 9 12 7 -2 -2 -9 2 -17 7 -17 13 -1 14 20 1
39 -10 13 -9 13 6 1 10 -7 16 -17 13 -21 -3 -4 1 -13 9 -19 8 -7 12 -22 9 -34
-4 -21 -4 -21 8 -3 9 15 9 24 0 37 -16 27 -14 36 4 13 16 -21 20 -8 5 16 -5 8
-5 19 -1 25 9 13 8 26 -4 45 -7 13 -6 13 7 2 16 -13 18 -28 6 -47 -4 -6 -3
-17 3 -25 5 -8 9 -12 10 -7 3 13 6 27 9 32 7 15 5 32 -7 46 -11 13 -11 16 1
16 8 0 15 -3 14 -6 0 -3 1 -9 2 -13 1 -5 3 -12 4 -18 0 -5 5 -9 11 -7 5 1 8 7
7 12 -11 29 -9 43 3 41 8 -1 18 -6 22 -10 4 -4 3 -6 -2 -4 -11 3 -15 -4 -15
-24 0 -9 4 -8 10 2 7 11 10 11 10 2 0 -7 4 -11 9 -8 12 8 8 30 -9 52 -8 10
-10 15 -3 11 6 -4 20 4 33 20 l21 27 -5 -27 c-2 -15 0 -29 5 -32 15 -10 10
-71 -6 -85 -8 -7 -12 -16 -9 -21 3 -5 0 -8 -8 -7 -7 2 -12 -3 -10 -10 1 -8 -2
-11 -7 -8 -5 4 -13 1 -17 -5 -4 -7 -3 -9 3 -6 5 3 10 0 10 -8 0 -8 -5 -11 -10
-8 -6 4 -7 1 -2 -8 7 -11 5 -11 -10 1 -17 13 -18 13 -10 0 13 -21 15 -41 4
-34 -5 3 -7 9 -4 14 3 5 0 12 -6 16 -9 5 -10 0 -7 -14 4 -14 2 -20 -4 -15 -6
3 -8 1 -5 -4 4 -7 -5 -10 -23 -8 -18 2 -27 -1 -23 -8 4 -6 1 -7 -7 -2 -9 6
-11 4 -5 -5 6 -9 4 -11 -5 -5 -9 6 -11 4 -5 -5 5 -8 4 -11 -3 -6 -7 4 -9 -1
-7 -15 4 -18 2 -19 -13 -7 -16 12 -16 11 -2 -7 14 -19 14 -19 -4 -5 -13 9 -17
10 -12 2 5 -8 3 -11 -6 -10 -7 2 -12 -3 -10 -10 1 -8 -2 -11 -9 -6 -8 5 -9 3
-4 -6 6 -9 4 -11 -5 -5 -9 6 -11 4 -5 -5 6 -9 4 -11 -5 -5 -9 6 -11 4 -5 -5 6
-9 4 -11 -5 -5 -9 6 -11 4 -5 -5 6 -9 4 -11 -5 -5 -9 6 -11 4 -5 -5 5 -8 4
-11 -3 -6 -7 4 -10 -1 -7 -14 2 -11 0 -18 -5 -15 -5 3 -7 -4 -5 -15 3 -13 0
-18 -7 -14 -7 5 -8 2 -3 -6 6 -9 4 -11 -5 -5 -9 6 -11 4 -5 -6 7 -11 5 -11
-10 1 -15 12 -17 12 -10 1 6 -10 4 -12 -5 -6 -9 6 -11 4 -5 -5 6 -9 4 -11 -5
-5 -9 6 -11 4 -5 -5 5 -8 4 -11 -3 -6 -7 4 -10 -1 -7 -14 2 -11 0 -18 -6 -15
-5 4 -7 10 -4 15 3 5 0 12 -6 16 -9 5 -10 0 -7 -14 8 -29 0 -28 -13 1 l-10 22
5 -23 c2 -12 1 -20 -4 -17 -4 2 -16 -5 -26 -16 -14 -16 -16 -22 -5 -28 10 -6
10 -10 1 -16 -7 -4 -14 2 -17 16 -6 22 -7 22 -15 3 -7 -17 -8 -16 -4 3 2 13
-1 26 -6 29 -7 5 -9 -4 -6 -24 2 -17 1 -29 -3 -26 -5 2 -6 -5 -4 -16 2 -11 0
-18 -5 -15 -5 3 -7 -4 -5 -15 3 -13 0 -18 -7 -14 -7 5 -8 2 -3 -6 6 -9 4 -11
-4 -5 -8 5 -7 -3 3 -23 14 -28 40 -55 34 -35 -2 4 2 9 7 11 6 1 10 -7 10 -17
0 -11 3 -22 6 -25 3 -4 5 5 5 19 -1 13 -7 30 -13 36 -13 13 -6 42 8 33 5 -3 7
-9 4 -14 -3 -4 3 -14 13 -21 15 -12 16 -12 6 1 -5 8 -9 21 -8 28 1 6 2 17 3
23 0 5 5 8 10 4 6 -3 8 -14 6 -25 -2 -11 1 -22 6 -25 5 -4 6 -11 3 -17 -4 -7
-2 -8 5 -4 7 5 9 12 3 19 -11 16 -9 58 3 55 5 -2 9 -7 7 -13 -2 -5 5 -2 16 8
10 9 21 15 24 12 2 -3 5 2 5 9 0 8 -3 14 -6 13 -7 -2 -11 8 -11 29 0 8 5 12
10 9 6 -4 8 -11 4 -16 -3 -5 0 -8 8 -7 7 2 12 -3 10 -10 -1 -8 2 -11 9 -7 7 5
2 17 -15 34 -15 15 -24 30 -20 34 3 3 17 -6 31 -21 l25 -27 -21 29 c-11 15
-18 33 -14 39 4 6 9 2 14 -9 4 -11 14 -26 23 -33 13 -11 14 -17 4 -30 -12 -14
-11 -14 5 -2 13 10 14 17 7 26 -8 9 -8 15 0 20 6 4 9 13 8 20 -2 8 2 13 7 12
6 -1 9 -6 7 -10 -1 -5 2 -6 8 -2 8 5 7 11 -1 21 -6 8 -8 14 -5 14 4 0 2 9 -3
19 -8 14 -7 22 6 32 14 12 15 11 9 -8 -4 -12 -2 -24 3 -28 7 -4 9 1 5 12 -5
16 -4 16 10 -1 16 -20 12 -41 -6 -30 -7 5 -8 2 -2 -7 5 -8 9 -17 9 -21 0 -3 3
-10 7 -14 4 -3 6 3 3 14 -2 12 0 24 6 27 5 4 6 13 0 23 -6 11 -6 24 1 35 8 15
12 16 26 6 14 -11 15 -11 5 0 -6 7 -9 21 -6 30 4 14 3 14 -6 1 -9 -13 -11 -13
-11 2 0 20 16 32 25 18 3 -5 8 -20 10 -32 3 -12 12 -29 21 -37 14 -14 14 -12
-1 11 -16 25 -14 32 7 29 6 -1 5 20 -4 44 -1 6 2 11 7 13 6 1 11 -2 11 -8 1
-5 3 -12 4 -15 1 -3 3 -14 4 -24 2 -36 12 -31 12 7 -1 20 4 37 9 37 6 0 9 -8
9 -17 -1 -10 3 -15 8 -12 5 3 7 9 4 12 -3 3 0 12 8 21 8 9 15 19 15 24 1 10
16 9 16 -2 0 -5 3 -12 7 -16 3 -4 5 0 4 9 -1 9 -7 21 -13 27 -13 13 -6 42 8
33 5 -3 7 -9 4 -14 -3 -4 3 -14 13 -21 15 -12 16 -12 6 1 -14 20 -11 46 4 43
7 -2 11 0 9 5 -1 4 3 7 8 7 6 0 9 -8 9 -18 -1 -10 1 -15 5 -12 3 4 6 10 6 13
0 4 4 13 8 20 5 7 5 11 0 10 -4 -2 -8 2 -8 7 0 5 3 9 7 8 7 -3 3 31 -6 46 -3
5 2 15 11 22 14 12 15 11 9 -8 -4 -12 -3 -24 2 -27 10 -6 10 -46 -1 -62 -4 -7
1 -18 11 -25 15 -12 16 -12 5 2 -7 9 -9 19 -5 23 4 4 7 17 7 29 1 12 6 21 12
20 5 -1 10 8 9 20 -1 13 -7 21 -15 19 -9 -2 -11 3 -7 13 3 9 6 21 6 26 0 6 5
7 10 4 6 -4 8 -10 5 -15 -3 -4 2 -13 10 -20 8 -7 12 -17 8 -24 -3 -6 3 -3 14
7 11 9 22 15 25 12 2 -3 5 2 5 9 0 8 -3 14 -6 13 -3 -1 -6 3 -6 8 0 6 3 9 6 8
4 -1 5 11 4 28 -1 16 1 32 6 35 9 5 11 -3 12 -44 0 -21 1 -21 17 -7 9 8 19 12
23 9 3 -3 4 1 3 10 -1 8 -5 19 -9 22 -15 15 -6 26 11 13 9 -7 14 -9 9 -4 -4 4
2 18 13 30 12 13 22 34 24 49 1 14 7 25 12 24 5 -2 8 -8 6 -14 -1 -6 10 -21
25 -35 20 -17 23 -18 10 -3 -9 11 -14 24 -10 29 5 4 2 5 -4 1 -15 -8 -18 10
-4 19 9 5 26 -12 26 -27 0 -3 2 -9 5 -11 3 -3 6 8 7 25 0 18 -2 25 -7 18 -5
-8 -10 -9 -14 -2 -3 6 -2 13 4 17 5 3 7 20 4 38 -4 31 -4 31 7 7 7 -14 13 -27
13 -30 1 -3 4 -9 7 -15 4 -5 5 -18 4 -27 -2 -9 4 -23 13 -30 13 -11 14 -11 7
2 -16 25 -12 54 12 83 17 22 21 33 13 47 -7 13 -5 21 7 31 14 12 15 11 9 -8
-4 -12 -2 -24 3 -28 7 -4 9 1 5 12 -5 16 -4 16 10 -1 8 -10 13 -23 9 -29 -3
-6 -1 -7 5 -3 9 5 9 13 2 27 -10 18 -6 23 12 20 5 0 7 5 5 12 -1 6 3 11 8 10
6 -1 11 8 11 20 1 12 4 31 7 42 3 11 6 22 6 25 1 3 5 -1 10 -9 6 -9 4 -23 -7
-40 -9 -14 -12 -23 -7 -19 4 4 14 3 20 -2 9 -7 17 -5 26 7 12 16 12 17 -2 6
-16 -13 -29 -8 -29 9 0 5 4 7 9 3 10 -6 7 27 -4 44 -3 5 -1 12 4 15 8 5 25
-29 22 -46 -1 -5 4 -7 11 -5 7 1 12 -3 13 -10 0 -6 3 -14 7 -18 14 -14 1 25
-13 42 -47 54 -19 77 29 24 l34 -36 -31 40 c-43 54 -39 69 5 20 20 -22 27 -28
16 -12 -11 15 -19 35 -17 45 2 9 4 23 4 30 1 7 5 11 10 8 5 -3 7 -19 5 -35 -2
-17 3 -34 12 -42 12 -10 15 -10 12 2 -2 8 2 13 9 12 13 -3 12 15 -2 37 -13 21
-15 39 -4 46 5 3 10 0 10 -5 1 -6 2 -15 3 -21 0 -5 4 -10 9 -10 4 0 9 0 12 0
3 0 -1 11 -10 24 -14 21 -14 24 1 37 15 12 16 12 10 -7 -4 -14 -1 -26 9 -34
14 -12 14 -15 0 -30 -14 -16 -14 -18 2 -31 15 -11 16 -11 6 1 -10 11 -10 17 2
30 14 15 14 18 0 30 -8 7 -15 17 -15 23 0 5 10 2 22 -9 l22 -19 -22 29 c-12
16 -22 36 -22 45 0 9 8 2 20 -17 18 -29 34 -43 27 -24 -1 4 3 7 8 7 5 0 9 -3
8 -7 -1 -3 5 -12 15 -20 15 -11 15 -11 6 2 -6 8 -10 23 -9 32 2 10 -2 16 -7
15 -15 -3 -16 52 -1 64 9 8 11 4 8 -20 -2 -20 1 -30 8 -28 7 1 11 -3 10 -10
-1 -6 5 -17 15 -25 15 -11 16 -11 5 3 -10 12 -10 18 0 28 6 7 7 11 2 9 -6 -2
-10 2 -10 7 0 6 3 9 7 8 5 -2 7 0 5 5 -1 4 3 8 8 10 6 1 10 -7 10 -17 0 -11 3
-22 6 -25 3 -4 5 5 5 18 -1 14 -5 28 -9 32 -4 4 -2 13 5 21 9 11 15 10 37 -9
14 -13 20 -16 13 -7 -8 11 -8 19 -1 26 8 8 7 18 -4 34 -10 16 -12 31 -7 44 6
14 9 16 10 5 2 -8 2 -19 1 -24 -1 -5 6 -17 16 -28 10 -11 17 -22 15 -25 -2 -3
-1 -7 1 -10 3 -3 4 2 3 11 -1 8 -5 19 -9 22 -4 4 -2 13 5 21 9 11 14 11 32 -4
20 -17 19 -16 -1 7 -16 18 -19 30 -13 40 9 13 14 8 12 -11 -1 -4 9 -15 21 -25
l22 -19 -19 23 c-11 12 -16 22 -12 22 3 0 -1 11 -9 24 -11 16 -13 26 -6 31 6
3 11 0 11 -8 0 -8 7 -20 15 -27 8 -7 13 -16 10 -20 -3 -5 -1 -11 4 -14 12 -8
8 18 -5 35 -18 23 -24 48 -14 54 9 5 14 -7 12 -26 -1 -4 9 -15 21 -25 22 -19
22 -19 4 2 -16 20 -17 22 0 35 15 12 16 12 10 -3 -3 -10 -2 -20 2 -22 5 -3 8
7 7 22 0 15 5 26 11 25 11 -2 10 27 -1 46 -3 5 2 15 11 22 14 12 15 11 9 -8
-4 -12 -2 -24 3 -28 7 -4 9 1 5 12 -5 16 -4 16 10 -1 15 -19 13 -41 -4 -31
-11 7 -7 -22 5 -32 4 -4 5 -3 2 3 -4 7 0 17 8 24 11 9 12 17 5 30 -7 13 -7 21
0 25 10 6 14 -1 11 -18 -1 -5 4 -5 10 -2 7 5 8 10 0 18 -7 7 -7 16 0 29 8 15
13 17 25 8 7 -7 11 -17 8 -22 -4 -6 -10 -5 -15 3 -6 10 -9 10 -9 2 0 -6 5 -15
11 -18 7 -5 5 -13 -6 -25 -12 -14 -13 -20 -4 -26 7 -4 10 -3 6 3 -4 6 0 16 8
23 8 7 13 16 10 20 -3 5 -1 12 5 15 8 5 7 12 -2 22 -15 19 -19 41 -7 49 8 5
13 -8 11 -28 -1 -3 5 -11 13 -18 16 -14 15 4 -3 36 -9 18 -9 24 5 35 14 12 15
11 9 -7 -4 -13 -1 -26 8 -33 8 -7 13 -21 11 -31 -2 -11 0 -22 5 -25 4 -3 7 3
5 12 -1 10 2 24 8 31 6 7 6 12 1 10 -5 -2 -9 2 -9 7 0 5 3 9 7 8 5 -2 7 3 5
10 -1 6 3 11 9 10 6 -1 11 6 11 15 0 34 3 43 12 38 5 -3 7 -19 6 -36 -1 -16 1
-28 5 -25 4 2 6 17 5 32 -1 15 2 36 7 46 9 18 11 18 29 1 10 -9 16 -20 14 -25
-3 -4 -1 -10 4 -13 10 -7 9 20 -2 30 -4 4 -3 12 2 18 5 6 10 14 10 19 1 4 4 6
8 5 5 -2 7 -6 6 -10 -1 -3 5 -12 15 -20 15 -12 16 -11 4 4 -9 11 -10 18 -2 23
6 4 9 12 7 18 -2 7 0 20 5 31 9 17 12 16 41 -10 18 -16 24 -19 14 -7 -12 14
-15 23 -7 28 6 3 9 13 8 20 -2 8 2 13 7 12 6 -1 9 -6 7 -10 -1 -5 2 -6 8 -2 8
5 8 11 1 19 -7 9 -7 16 1 24 9 9 18 7 37 -11 17 -15 15 -9 -7 16 -26 31 -31
42 -21 53 16 19 21 18 15 -4 -4 -12 3 -26 21 -43 l28 -24 -22 26 c-32 35 -29
47 4 18 20 -17 23 -18 10 -3 -9 11 -14 24 -10 29 5 4 2 5 -5 1 -11 -6 -12 10
-2 44 2 7 23 -44 22 -52 -1 -3 6 -12 16 -20 15 -11 16 -11 6 2 -5 8 -10 21
-10 28 1 14 21 17 21 3 0 -5 3 -12 7 -16 3 -4 5 0 4 9 -1 9 -8 22 -14 28 -7 7
-12 16 -12 22 0 5 17 -6 37 -25 l37 -34 -37 43 c-20 23 -37 50 -37 60 0 12 6
8 19 -13 10 -16 29 -39 42 -50 13 -11 18 -13 11 -4 -6 9 -9 19 -5 23 11 11 18
54 12 71 -2 6 1 11 6 13 6 1 10 -1 10 -5 0 -5 4 -13 8 -20 4 -6 3 -14 -2 -17
-10 -6 -9 -31 1 -42 4 -3 5 2 4 13 -2 10 -1 23 2 28 8 12 13 51 13 90 l0 30
14 -25 c7 -14 10 -29 7 -35 -9 -14 -10 -55 -2 -60 4 -2 6 8 5 23 -3 35 23 66
41 51 8 -6 11 -16 7 -22 -4 -6 -1 -7 6 -2 9 5 7 13 -8 29 -14 15 -17 26 -11
36 9 13 14 8 12 -11 -1 -4 9 -15 21 -25 22 -19 22 -19 6 1 -9 11 -15 28 -14
38 2 9 -1 15 -6 11 -7 -4 -7 18 1 46 2 9 23 -44 24 -62 2 -30 13 -29 12 2 -1
16 4 29 9 27 6 -1 9 -5 8 -9 -1 -3 5 -12 15 -20 15 -11 16 -11 5 3 -7 9 -11
18 -8 21 3 3 -1 11 -10 18 -8 7 -15 17 -15 23 0 6 12 0 27 -14 l27 -24 -27 33
c-15 19 -27 41 -27 50 0 11 7 6 18 -13 11 -16 27 -37 38 -45 10 -8 16 -10 11
-5 -4 4 2 19 14 31 19 20 19 24 6 46 -10 15 -12 30 -7 43 6 14 9 16 10 5 2 -8
2 -19 1 -24 -1 -5 5 -16 14 -26 8 -9 12 -20 8 -25 -5 -4 -2 -5 5 -1 11 7 10
11 -2 25 -24 26 -19 37 7 15 l22 -19 -22 26 c-33 37 -28 48 7 14 25 -24 28
-31 17 -44 -11 -14 -10 -14 6 -2 12 9 14 17 7 26 -6 8 -6 15 2 23 7 7 8 12 4
12 -5 0 -3 7 4 15 7 8 16 12 21 9 5 -3 8 0 7 8 -2 7 2 12 8 11 6 -1 11 6 11
15 0 34 3 43 12 38 5 -3 7 -19 6 -36 -1 -16 1 -27 5 -25 5 3 7 13 5 23 -1 9 4
24 12 33 7 9 13 20 11 25 -2 5 2 10 7 12 13 3 14 -19 1 -37 -11 -15 -18 -47
-8 -36 4 4 7 12 7 18 1 7 6 11 12 10 6 -1 10 8 9 20 0 12 4 21 11 20 7 -2 10
4 7 12 -9 23 5 38 22 24 10 -8 11 -15 4 -24 -7 -9 -5 -16 7 -26 16 -12 17 -12
6 2 -7 9 -10 19 -6 23 9 9 13 36 5 33 -4 -1 -7 2 -7 8 0 5 3 9 7 8 8 -3 5 18
-5 34 -4 6 -4 14 1 17 12 7 29 -26 27 -56 -1 -15 1 -25 5 -23 10 6 6 47 -8 72
-20 37 -13 50 8 16 18 -30 34 -44 27 -25 -1 4 3 8 8 9 6 1 9 -7 9 -18 -1 -11
1 -17 4 -14 10 10 9 54 -1 52 -14 -3 -15 53 0 64 9 8 11 4 8 -20 -2 -20 1 -30
8 -28 7 1 11 -4 9 -12 -3 -12 0 -12 12 -1 17 13 21 22 8 17 -4 -1 -7 3 -7 8 0
6 3 9 7 8 5 -2 2 34 -5 56 -1 3 2 6 8 6 5 0 9 -7 7 -15 -2 -11 1 -10 8 3 6 9
16 15 21 11 5 -3 9 -2 8 3 -3 19 2 34 10 29 7 -5 8 -41 1 -41 -1 0 -3 -8 -5
-17 -2 -9 4 -23 13 -30 15 -11 15 -11 6 2 -9 13 -11 31 -4 45 1 3 4 10 5 15 1
6 4 13 5 18 2 4 4 13 4 19 1 7 6 13 11 13 11 0 14 -20 6 -35 -3 -5 -6 -13 -7
-17 -1 -5 -2 -9 -4 -10 -5 -8 -7 -39 -2 -33 4 4 8 11 8 16 1 5 3 11 4 14 1 3
3 8 4 13 1 4 4 12 7 17 5 9 5 31 -1 38 -7 9 -7 38 1 43 8 5 13 -10 10 -29 -1
-5 3 -6 8 -3 11 7 9 -43 -2 -61 -4 -6 -3 -15 3 -18 6 -4 10 -3 9 2 -1 4 0 10
1 13 8 20 5 69 -7 86 -12 18 -11 23 3 35 15 12 16 12 10 -7 -4 -14 -1 -26 9
-34 8 -7 12 -17 8 -23 -3 -6 -1 -7 6 -3 9 6 9 11 1 21 -15 19 11 39 31 22 7
-6 10 -8 6 -3 -4 5 3 20 15 34 13 13 22 25 21 28 -2 2 0 4 5 4 4 0 6 -10 6
-21 -1 -11 1 -17 4 -14 3 3 7 20 8 38 1 18 0 26 -3 19 -3 -6 -9 -9 -14 -6 -6
3 -5 11 2 20 14 17 43 -1 32 -20 -3 -6 -2 -7 3 -3 5 5 9 13 9 18 0 5 5 9 10 9
6 0 10 -4 10 -10 0 -5 7 -15 15 -22 12 -11 12 -11 1 5 -7 9 -10 17 -6 17 5 0
0 9 -9 19 -11 12 -14 21 -7 26 6 3 11 11 11 18 0 6 -7 2 -15 -9 -17 -22 -20
-12 -4 17 8 16 13 18 24 9 11 -9 12 -17 5 -30 -6 -11 -6 -21 -2 -24 5 -3 9 0
10 7 2 27 8 42 17 45 6 1 10 -2 10 -8 0 -5 7 -15 15 -22 12 -11 12 -11 2 3
-10 13 -9 19 3 29 8 7 14 18 13 24 -2 6 2 11 7 11 6 0 9 -4 7 -8 -1 -5 2 -6 8
-2 8 5 7 11 -1 21 -10 13 -6 18 13 15 7 -1 3 33 -6 48 -7 10 18 34 27 25 3 -3
4 2 3 13 -2 10 -1 23 3 28 3 6 6 18 7 28 1 9 3 18 4 20 1 1 4 11 6 22 2 11 6
34 9 50 3 17 8 46 10 65 2 19 11 85 19 145 39 291 40 664 5 1035 -22 238 -80
578 -141 838 l-32 132 -2830 -1 -2831 -1 -100 -34z m5860 -2134 c-3 -5 0 -12
6 -15 5 -4 8 -13 5 -21 -5 -14 9 -29 17 -17 2 5 2 1 -1 -7 -2 -8 -5 -24 -7
-35 -1 -11 -4 -21 -5 -22 -1 -2 -4 -12 -5 -23 -1 -11 -3 -22 -4 -25 0 -3 0 -7
2 -9 1 -3 -8 -15 -20 -28 -15 -16 -19 -28 -13 -38 6 -10 2 -22 -13 -38 -12
-13 -22 -29 -22 -35 0 -7 -4 -12 -10 -12 -5 0 -8 5 -6 10 2 6 5 19 7 30 1 11
3 22 3 25 1 3 6 -2 11 -10 10 -15 11 -13 14 27 0 9 -7 17 -17 19 -10 1 -14 -2
-11 -8 5 -7 2 -8 -6 -3 -9 6 -11 4 -5 -5 6 -9 4 -11 -5 -5 -9 6 -11 4 -5 -5 6
-9 4 -11 -5 -5 -9 6 -11 4 -5 -5 5 -8 4 -11 -3 -6 -7 4 -10 -1 -7 -14 3 -13 0
-18 -7 -14 -7 5 -8 2 -3 -7 7 -12 5 -11 -11 1 -15 11 -16 11 -7 0 14 -15 46
-24 38 -10 -3 4 2 13 10 20 20 16 19 0 -1 -28 -12 -18 -19 -20 -29 -12 -21 17
-53 -34 -35 -55 12 -14 9 -18 -7 -12 -5 1 -7 7 -5 12 2 6 -8 -1 -22 -14 -14
-14 -24 -27 -21 -29 3 -3 0 -11 -6 -19 -6 -7 -8 -13 -4 -13 5 0 0 -9 -10 -20
-17 -19 -41 -18 -29 1 3 5 9 7 13 5 4 -3 8 0 9 7 1 7 3 23 5 37 2 14 9 25 15
25 7 0 11 3 10 7 -2 4 5 13 15 20 19 14 34 63 15 52 -7 -5 -8 -2 -3 7 7 12 5
12 -6 1 -11 -11 -11 -14 -1 -21 11 -6 10 -11 -3 -25 -21 -21 -35 -12 -36 22
-1 20 -2 22 -6 7 -2 -11 -7 -27 -10 -35 -3 -8 -5 -19 -4 -23 1 -5 -4 -5 -10
-1 -8 5 -9 3 -4 -6 5 -8 4 -11 -3 -6 -7 4 -10 -1 -7 -14 3 -13 0 -18 -7 -14
-7 4 -8 3 -4 -4 4 -7 -1 -9 -15 -7 -17 3 -19 2 -9 -10 7 -8 17 -13 22 -12 17
3 17 -31 0 -45 -14 -11 -15 -10 -9 5 13 34 -5 39 -34 11 -15 -15 -26 -30 -24
-34 3 -4 -3 -14 -12 -21 -15 -13 -16 -11 -10 9 3 13 3 21 0 18 -4 -3 -13 0
-21 7 -13 10 -14 9 -7 -3 8 -13 7 -13 -10 0 -12 9 -16 10 -11 2 5 -8 3 -11 -6
-10 -7 2 -12 -3 -10 -11 2 -11 0 -12 -10 -3 -11 9 -14 6 -14 -13 0 -13 4 -21
10 -18 5 3 6 1 2 -5 -3 -6 1 -9 11 -8 10 2 19 12 19 22 3 36 6 39 13 14 10
-31 -6 -67 -22 -51 -18 18 -38 -6 -27 -34 7 -17 5 -27 -7 -37 -14 -11 -15 -10
-9 9 4 12 3 24 -2 27 -15 9 -36 -23 -36 -54 -1 -25 -16 -58 -16 -34 0 6 -6 18
-13 29 -13 17 -15 16 -29 -13 -9 -18 -12 -34 -7 -39 6 -6 -1 -19 -16 -33 -14
-13 -25 -30 -25 -38 0 -24 -13 -5 -16 24 -2 22 -1 24 12 13 12 -10 15 -10 12
2 -2 8 2 13 7 12 13 -2 12 41 -1 44 -5 1 -8 -7 -6 -19 2 -13 0 -18 -7 -13 -6
3 -9 10 -6 15 3 5 0 12 -6 16 -9 5 -10 0 -7 -14 4 -12 2 -20 -2 -17 -5 3 -11
1 -15 -5 -4 -6 -11 -8 -16 -5 -5 4 -9 1 -9 -5 0 -7 7 -10 15 -6 8 3 15 1 15
-3 0 -5 -7 -12 -15 -15 -11 -4 -19 3 -25 19 -12 32 -19 32 -12 0 2 -14 9 -25
14 -25 5 0 6 -5 3 -10 -10 -17 -25 -1 -25 27 0 36 -9 25 -12 -14 -1 -19 -6
-29 -13 -25 -5 3 -3 -3 5 -13 12 -15 12 -17 1 -10 -9 5 -12 4 -7 -3 4 -7 -1
-10 -14 -7 -11 2 -18 0 -15 -4 2 -5 -5 -8 -18 -7 -19 1 -22 -4 -21 -31 0 -19
-4 -30 -9 -26 -6 3 -7 1 -3 -6 4 -6 11 -9 16 -6 5 3 10 0 13 -7 2 -7 3 -5 2 4
-2 10 4 23 12 30 14 11 15 10 9 -12 -6 -19 -5 -21 3 -10 6 8 8 26 5 40 l-5 25
16 -25 16 -25 -7 24 c-4 17 -3 21 6 16 8 -5 11 -4 7 2 -4 6 1 17 10 24 15 12
16 12 9 -6 -4 -11 -9 -26 -10 -32 -1 -7 -15 -26 -31 -43 -16 -16 -25 -30 -21
-30 4 0 4 -5 1 -11 -5 -7 -14 -4 -26 7 -28 26 -49 26 -59 1 -5 -15 -3 -30 7
-46 14 -21 13 -25 -5 -44 l-21 -20 -21 36 c-27 45 -41 40 -36 -14 4 -43 -8
-62 -17 -27 -5 18 -8 19 -22 8 -8 -7 -13 -15 -11 -18 3 -2 -1 -17 -10 -33 -8
-16 -12 -29 -9 -29 4 0 3 -5 -1 -11 -4 -8 -12 -2 -21 15 -16 30 -37 25 -29 -8
6 -26 -8 -54 -19 -37 -12 20 -37 -7 -25 -28 5 -10 5 -23 0 -31 -5 -8 -7 -17
-4 -21 2 -4 0 -10 -6 -14 -5 -3 -19 10 -31 29 -26 44 -39 38 -35 -15 4 -43 -8
-62 -17 -27 -5 18 -8 19 -21 9 -9 -8 -13 -18 -9 -24 3 -5 1 -7 -4 -4 -16 10
-44 -26 -33 -43 6 -10 2 -22 -13 -38 -12 -13 -22 -29 -22 -35 0 -7 -4 -12 -10
-12 -5 0 -8 5 -6 10 2 6 5 19 7 30 1 11 3 22 3 25 1 3 6 -2 11 -10 5 -8 10
-10 11 -5 0 6 2 18 4 27 2 10 -2 21 -7 25 -7 4 -8 1 -3 -7 6 -9 4 -11 -5 -5
-9 6 -11 4 -5 -5 6 -9 4 -11 -5 -5 -9 6 -11 4 -5 -6 7 -11 5 -11 -10 1 -15 12
-17 12 -10 1 6 -10 4 -12 -5 -6 -9 6 -11 4 -5 -6 7 -11 5 -11 -10 1 -15 12
-17 12 -10 1 5 -10 4 -12 -4 -7 -7 5 -10 2 -9 -6 2 -7 -3 -12 -10 -10 -6 1
-11 -4 -10 -10 2 -7 -3 -12 -10 -10 -9 1 -11 -2 -6 -10 4 -7 -3 -4 -17 7 l-24
20 20 -25 c15 -18 15 -21 3 -11 -15 11 -17 10 -13 -9 4 -19 2 -20 -12 -8 -14
11 -16 11 -8 -1 5 -9 4 -12 -3 -7 -7 4 -10 -1 -7 -13 3 -15 -1 -19 -15 -16
-14 3 -18 -1 -15 -17 4 -17 2 -18 -13 -6 -16 12 -16 11 -2 -7 14 -19 14 -19
-3 -6 -16 12 -18 12 -15 0 2 -8 -3 -13 -10 -11 -8 1 -11 -2 -6 -9 5 -8 3 -9
-6 -4 -9 6 -11 4 -5 -6 7 -12 6 -12 -7 -1 -14 11 -16 11 -14 -3 1 -8 8 -21 16
-28 9 -8 11 -8 6 0 -3 6 -2 14 4 18 21 13 9 -22 -15 -45 -14 -13 -23 -25 -20
-28 2 -2 -8 -20 -22 -39 -23 -29 -28 -32 -36 -18 -8 15 -10 15 -28 -1 -13 -12
-16 -21 -9 -34 7 -13 3 -23 -14 -39 -21 -20 -24 -21 -30 -5 -6 16 -9 16 -28
-4 -12 -12 -23 -29 -24 -39 -6 -39 -11 -54 -24 -66 -10 -10 -12 -9 -7 5 3 9
-1 24 -8 35 -13 17 -14 17 -23 -7 -7 -18 -6 -31 4 -48 17 -26 10 -49 -10 -33
-7 6 -12 27 -11 48 2 37 -9 63 -26 63 -5 0 -9 -5 -9 -11 0 -5 4 -8 9 -4 5 3
13 0 17 -6 5 -8 3 -9 -6 -4 -9 6 -11 4 -5 -5 5 -9 4 -11 -4 -6 -7 5 -10 2 -9
-6 2 -7 -3 -12 -10 -10 -9 1 -11 -2 -6 -10 5 -8 1 -7 -11 2 -15 12 -17 12 -10
1 6 -10 4 -12 -5 -6 -9 6 -11 4 -5 -6 8 -12 6 -12 -9 0 -15 12 -17 12 -14 0 2
-8 -2 -13 -8 -12 -13 2 -7 -34 6 -42 5 -3 6 3 3 14 -3 10 0 22 6 25 7 4 8 1 5
-8 -5 -14 0 -18 23 -15 4 0 11 -8 15 -18 5 -11 6 -4 3 17 l-6 35 16 -25 c15
-23 15 -23 10 -2 -7 25 -3 28 14 9 8 -10 2 -21 -25 -48 -30 -28 -35 -30 -30
-12 4 12 3 24 -2 27 -15 9 -36 -23 -38 -57 -2 -45 -3 -45 -20 -14 -15 27 -34
29 -34 3 0 -7 -11 -23 -25 -36 -13 -12 -21 -28 -18 -34 4 -6 -1 -5 -10 3 -15
12 -18 10 -26 -10 -5 -13 -6 -28 -3 -34 3 -5 -1 -5 -8 2 -10 9 -22 3 -56 -29
-24 -23 -42 -44 -42 -47 3 -16 -16 -61 -32 -76 -16 -15 -18 -15 -24 1 -6 16
-8 15 -26 -1 -15 -13 -17 -22 -10 -36 8 -14 4 -24 -15 -46 -14 -15 -25 -23
-24 -18 1 6 -3 23 -9 38 -15 35 -36 25 -29 -13 7 -32 -10 -55 -29 -39 -15 12
-26 -3 -30 -39 -4 -32 -35 -67 -45 -50 -4 7 -5 16 -2 21 3 5 9 3 14 -4 6 -10
9 -11 9 -1 0 22 2 27 11 38 6 7 1 18 -13 30 -22 19 -22 19 -8 0 12 -16 12 -18
1 -11 -10 6 -12 4 -6 -5 6 -9 4 -11 -6 -5 -11 7 -11 5 1 -10 12 -15 12 -17 1
-10 -10 6 -12 4 -6 -6 7 -12 6 -12 -7 -1 -14 11 -16 11 -14 0 1 -7 5 -19 9
-25 5 -7 5 -18 2 -23 -4 -6 -2 -17 4 -24 8 -10 7 -17 -6 -27 -14 -12 -16 -12
-11 1 3 8 1 23 -4 33 -7 14 -13 16 -23 7 -7 -6 -12 -19 -10 -28 1 -9 -7 -27
-19 -40 -11 -13 -16 -23 -11 -22 19 4 26 0 20 -10 -5 -8 -11 -7 -21 1 -7 6
-12 15 -9 19 3 4 -2 13 -10 20 -12 10 -16 8 -24 -11 -8 -22 -9 -20 -20 21
l-11 45 5 -41 c3 -29 0 -45 -10 -54 -10 -8 -12 -17 -5 -30 7 -13 2 -24 -23
-48 -31 -30 -33 -31 -44 -13 -10 15 -9 22 2 31 8 7 13 16 10 20 -3 5 -1 11 5
15 6 4 8 11 4 16 -3 5 -2 8 3 7 4 -2 8 0 8 3 0 4 8 15 17 26 10 10 17 32 18
48 0 31 -7 100 -10 100 -1 0 -3 8 -5 17 -2 10 2 16 8 15 7 -1 11 4 10 10 -2 7
3 12 10 10 6 -1 11 5 9 13 -2 8 0 12 4 7 10 -10 45 23 37 36 -4 6 -1 7 6 2 9
-5 -1 -21 -33 -54 -26 -26 -43 -51 -39 -55 5 -4 9 -12 9 -17 3 -19 4 -20 14
-14 7 4 7 13 1 24 -8 14 -2 26 32 57 l42 39 -37 -40 c-28 -30 -35 -44 -28 -55
5 -8 10 -12 10 -7 0 4 0 10 0 15 1 4 16 23 35 42 29 30 33 38 23 50 -11 12
-10 12 5 1 20 -15 23 -2 5 19 -11 12 -10 12 5 1 9 -8 16 -19 15 -25 -2 -6 2
-13 7 -14 17 -4 12 22 -9 48 -12 13 -14 19 -5 12 9 -6 19 -8 23 -4 4 4 6 0 4
-8 -3 -16 23 -21 34 -5 5 6 8 6 8 -2 0 -6 -5 -15 -10 -18 -6 -4 -7 -11 -4 -17
4 -6 12 -1 19 12 7 13 20 25 29 26 9 1 13 -2 10 -8 -5 -7 -2 -8 6 -3 9 6 11 4
5 -5 -5 -9 -4 -11 3 -6 8 5 10 2 6 -8 -3 -9 -1 -16 4 -16 6 0 9 9 7 20 -3 13
0 18 7 14 6 -4 8 -3 5 3 -4 6 5 9 21 8 20 -1 27 -6 26 -21 -1 -12 4 -21 11
-21 7 0 11 15 10 38 -1 23 2 36 8 32 6 -4 7 -1 2 7 -6 9 -4 11 5 5 8 -5 11 -4
6 3 -4 7 1 10 14 7 13 -3 18 0 15 8 -4 7 1 3 9 -7 9 -11 17 -15 17 -8 2 14 5
30 9 37 1 3 4 10 5 15 1 6 4 13 5 18 1 4 2 11 1 15 -1 5 4 5 11 1 7 -4 10 -4
6 1 -9 9 11 37 21 30 4 -2 7 6 7 18 -1 12 4 21 11 20 12 -2 12 14 1 33 -4 6
-1 22 7 37 7 14 11 28 7 31 -3 3 0 6 6 6 7 0 12 -5 12 -11 0 -5 4 -8 10 -4 5
3 7 12 4 20 -4 8 -11 12 -16 9 -6 -4 -6 1 1 13 6 11 8 23 6 27 -3 3 -2 4 2 1
3 -3 15 2 25 12 16 15 17 18 3 33 -13 14 -13 17 0 17 8 0 12 -4 9 -8 -2 -4 0
-10 5 -13 5 -4 8 -20 6 -37 -4 -26 -2 -29 10 -19 7 6 12 17 10 23 -15 41 -12
66 8 84 22 18 22 18 6 -2 -8 -11 -14 -26 -13 -32 1 -7 2 -22 3 -34 0 -11 5
-18 10 -15 5 3 7 19 6 36 -2 29 8 44 30 45 6 1 8 7 7 15 -10 40 -9 47 4 47 9
0 10 -4 4 -12 -5 -6 -5 -16 0 -25 6 -8 10 -12 10 -7 0 4 -1 9 -2 10 -2 2 3 11
9 19 7 8 10 18 6 22 -12 12 -12 35 0 33 7 -1 11 4 9 11 -1 6 4 11 10 10 7 -2
12 3 10 10 -1 6 4 11 10 10 7 -2 12 3 10 10 -1 6 4 11 10 10 7 -2 12 3 10 10
-1 6 4 11 10 10 7 -2 11 4 10 12 -2 8 0 12 4 7 4 -4 17 1 28 10 12 10 -12 -17
-53 -59 -47 -48 -69 -78 -62 -83 9 -5 9 -10 1 -20 -8 -9 -8 -15 0 -20 5 -3 10
-1 10 6 0 7 7 4 15 -7 19 -25 19 -11 1 25 -15 27 -14 29 54 96 48 47 66 72 60
80 -7 8 -5 12 4 12 26 0 9 -28 -57 -95 -51 -51 -64 -70 -57 -82 8 -13 15 -9 8
5 -2 2 28 36 67 75 58 59 69 75 70 104 0 19 3 37 6 41 4 3 5 -10 3 -30 -3 -31
-1 -35 11 -25 8 7 12 17 8 23 -3 6 -1 7 5 3 15 -9 16 6 1 21 -8 8 -7 13 3 18
7 5 10 5 6 0 -4 -4 -3 -14 4 -22 8 -10 8 -17 0 -25 -13 -13 6 -61 20 -52 5 3
4 12 -2 19 -8 10 -8 19 -1 33 6 11 7 22 4 26 -4 4 -8 16 -10 28 -2 12 -1 19 3
16 3 -3 7 -13 8 -22 1 -9 6 -16 12 -16 14 0 12 23 -5 43 -13 16 -13 18 -1 15
8 -2 14 3 12 10 -1 6 4 11 10 10 7 -2 12 3 10 10 -1 8 2 11 9 7 7 -5 3 -15
-11 -30 -19 -20 -19 -23 -5 -35 10 -8 12 -17 6 -23 -14 -14 -2 -37 16 -30 12
5 12 7 1 14 -11 7 -11 9 1 9 11 0 10 5 -2 24 -15 22 -15 25 4 42 17 16 18 19
3 35 -10 11 -12 19 -4 24 6 4 9 1 8 -7 -2 -7 2 -12 9 -11 16 3 10 -22 -10 -45
-9 -10 -14 -21 -11 -25 3 -3 16 6 28 20 16 19 22 37 21 64 -1 21 1 36 5 34 4
-3 6 -18 5 -35 -2 -27 13 -56 16 -31 5 41 4 57 -3 67 -4 6 -2 11 6 11 8 0 12
-10 11 -28 -1 -16 4 -34 11 -40 11 -9 13 -3 9 30 -4 40 7 62 21 40 4 -8 3 -9
-4 -5 -7 4 -12 3 -12 -2 0 -17 13 -22 27 -11 10 9 11 15 1 26 -15 18 -20 45
-7 37 5 -3 7 -9 4 -14 -3 -4 2 -13 10 -20 13 -11 15 -10 12 6 -1 11 -7 26 -11
34 -5 8 -6 12 -1 8 4 -4 15 -2 24 5 13 10 14 10 5 -3 -5 -8 -9 -21 -8 -27 1
-7 2 -18 3 -24 0 -5 5 -8 10 -4 6 3 8 14 6 25 -2 11 1 22 6 25 5 4 6 12 2 18
-12 20 -12 37 0 34 7 -1 11 4 9 11 -1 6 4 11 10 10 7 -2 12 3 10 10 -1 8 2 11
9 7 7 -5 1 -17 -16 -35 -18 -19 -23 -30 -15 -35 8 -5 8 -10 0 -20 -8 -9 -8
-15 0 -20 5 -3 10 0 10 7 0 9 3 9 10 -2 13 -20 14 5 0 29 -7 14 -4 24 15 41
22 21 23 25 10 40 -13 15 -13 17 0 17 8 0 13 -3 10 -5 -3 -3 0 -10 5 -17 7 -8
2 -19 -14 -34 -22 -21 -26 -58 -5 -45 5 3 7 9 4 13 -2 5 7 18 20 31 19 18 22
26 14 37 -6 7 -8 13 -4 13 4 0 2 6 -4 13 -8 10 -7 14 3 14 8 0 13 -8 11 -18
-2 -10 3 -23 11 -30 8 -6 14 -18 14 -26 0 -8 5 -11 11 -8 7 5 5 15 -5 31 -20
30 -21 44 -1 18 14 -18 15 -18 11 6 -2 14 -9 24 -15 22 -16 -3 -14 3 6 19 10
8 14 9 10 2 -4 -6 -3 -14 3 -18 5 -3 10 0 11 7 1 25 8 50 14 56 3 4 3 -8 0
-26 -3 -18 0 -42 6 -53 15 -28 23 -17 9 13 -11 22 -10 22 4 4 9 -11 16 -23 16
-28 0 -4 5 -8 10 -8 6 0 3 15 -7 33 -17 33 -30 104 -13 77 4 -7 7 -21 5 -31
-2 -10 0 -21 6 -24 5 -4 9 0 10 7 0 7 2 21 4 30 2 10 -1 20 -6 24 -5 3 -9 11
-9 17 0 7 5 4 11 -6 6 -9 15 -15 20 -11 6 4 6 10 -1 19 -8 9 -8 15 0 20 6 3 7
11 4 17 -4 7 -2 8 5 4 9 -6 9 -11 1 -21 -8 -9 -8 -15 0 -20 5 -3 10 -1 10 6 0
7 3 9 6 6 4 -4 3 -12 -3 -19 -11 -15 -10 -25 6 -58 10 -23 11 -22 7 15 -3 22
-2 32 0 22 3 -9 10 -15 15 -12 5 4 5 14 -1 26 -6 10 -8 19 -4 19 3 0 2 6 -4
13 -7 8 -6 18 4 31 8 11 14 15 14 9 0 -7 -5 -15 -10 -18 -6 -4 -7 -11 -4 -17
4 -6 10 -5 16 3 8 11 9 10 4 -3 -3 -10 -1 -20 3 -23 10 -6 22 31 13 40 -10 10
-10 65 -1 59 4 -2 5 -12 2 -22 -6 -15 -5 -15 10 -3 17 13 16 15 0 34 -10 11
-13 17 -6 14 6 -4 16 0 22 10 6 10 11 13 11 6 0 -6 -5 -15 -10 -18 -8 -5 -7
-11 1 -21 6 -8 8 -14 3 -14 -4 0 -3 -5 4 -12 7 -7 12 -23 13 -37 0 -23 1 -24
8 -6 5 11 4 28 -1 38 -5 9 -6 17 -2 17 3 0 1 7 -6 15 -7 8 -10 15 -6 15 3 0 9
0 14 0 4 0 8 -4 8 -10 3 -23 5 -24 14 -10 7 11 2 23 -18 45 -15 16 -18 22 -6
12 11 -9 24 -14 28 -10 4 5 7 4 6 -2 -4 -18 0 -26 10 -20 7 4 7 12 0 24 -7 14
-5 23 10 36 14 12 17 22 10 30 -7 8 -5 12 4 12 18 0 15 -21 -7 -44 -11 -13
-13 -23 -7 -33 5 -8 10 -12 10 -7 0 19 2 23 19 42 11 12 17 30 15 44 -3 14 -2
22 2 19 10 -11 12 -43 2 -55 -5 -7 -5 -14 2 -18 5 -3 10 0 11 7 0 7 7 0 15
-17 15 -31 16 -26 1 40 -2 11 -2 14 0 7 8 -22 22 -2 18 26 -2 15 -2 21 2 14 4
-10 11 -5 24 15 10 15 19 23 19 17 0 -5 7 -19 16 -30 15 -19 16 -19 9 1 -12
33 -13 72 -3 87 7 10 8 9 6 -4 -2 -9 2 -17 7 -17 13 -1 14 20 1 39 -6 8 -6 12
-1 7 4 -4 17 1 27 10 11 10 18 12 16 6 -2 -6 2 -10 7 -10 6 1 10 14 9 29 0 15
4 26 10 25 6 -1 10 4 9 10 -2 7 3 12 10 10 6 -1 11 4 10 10 -2 7 3 12 10 10 6
-1 11 4 10 10 -2 7 3 12 10 10 6 -1 11 4 10 10 -2 7 3 12 10 10 6 -1 11 4 9
11 -1 8 2 11 9 7 7 -5 -9 -28 -43 -64 -55 -56 -59 -69 -42 -120 7 -23 8 -23
14 -5 4 10 2 22 -4 26 -8 6 -7 8 2 8 6 0 12 5 12 11 0 5 -4 8 -9 5 -5 -4 -8 1
-7 9 1 9 26 39 54 68 29 29 49 57 44 62 -4 6 -5 9 -3 8 2 -2 10 2 17 8 8 7 14
7 19 -1 4 -6 2 -9 -3 -8 -6 2 -11 -1 -11 -7 -1 -5 -26 -35 -57 -66 -30 -30
-52 -58 -49 -61 4 -3 33 23 66 58 33 36 59 59 58 52 -3 -26 1 -51 8 -44 10 10
10 69 0 84 -5 6 -6 12 -2 12 4 0 1 8 -6 18 -11 15 -11 15 1 4 8 -7 16 -17 16
-22 3 -20 4 -21 15 -15 6 5 4 16 -7 33 -9 15 -13 24 -9 20 5 -4 14 -3 21 3 8
7 14 6 20 -2 4 -7 3 -9 -4 -5 -18 11 -22 -10 -7 -30 8 -10 15 -29 15 -42 0
-13 4 -21 9 -17 12 7 6 42 -11 63 -8 9 -8 13 -2 9 7 -4 14 0 18 8 3 8 1 17 -4
20 -6 4 -10 12 -10 18 0 7 5 5 10 -5 9 -14 17 -15 49 -9 2 1 -5 13 -14 29 -10
15 -14 24 -10 20 5 -4 15 -2 24 5 14 10 14 10 4 -3 -8 -10 -9 -21 -3 -30 6 -8
10 -12 11 -7 3 13 6 27 9 32 6 13 5 31 -2 42 -6 7 -4 14 3 19 7 4 9 3 5 -4 -3
-6 -2 -13 3 -16 10 -7 9 -25 -2 -43 -4 -6 -3 -14 3 -18 5 -3 10 -1 10 6 0 7 7
4 16 -7 15 -19 16 -19 9 1 -15 46 -25 99 -17 91 7 -7 8 -11 11 -37 0 -5 6 -7
11 -4 6 4 8 11 4 16 -3 5 -2 9 3 8 20 -3 23 2 13 24 -10 20 -10 20 3 5 8 -10
17 -15 20 -11 4 3 1 13 -5 21 -14 17 -20 44 -8 37 5 -3 13 3 19 12 6 10 11 13
11 7 0 -6 -7 -17 -15 -24 -12 -10 -13 -16 -4 -26 12 -14 29 -10 29 7 0 6 -5 7
-12 3 -7 -4 -8 -3 -4 5 4 6 11 9 16 6 5 -3 16 5 24 17 14 20 14 24 0 39 -10
12 -12 19 -4 24 6 4 9 1 8 -7 -2 -7 2 -12 9 -11 16 3 8 -35 -12 -57 -8 -9 -15
-21 -15 -26 1 -5 14 6 30 25 15 18 27 42 25 52 -2 10 1 18 8 16 7 -1 11 8 11
20 -1 13 2 20 6 18 10 -6 7 -29 -6 -46 -7 -10 -5 -24 8 -49 11 -22 18 -28 18
-17 0 10 -4 26 -8 35 -6 11 -3 26 5 42 14 23 14 24 10 3 -3 -13 -1 -26 4 -29
13 -8 16 38 5 85 -3 13 -2 20 2 17 7 -7 8 -12 11 -38 0 -6 4 -8 8 -4 11 11 12
35 2 42 -5 3 -9 11 -9 17 0 7 5 5 10 -5 13 -22 46 -16 43 8 -1 11 0 13 3 6 3
-6 10 -9 15 -6 6 4 6 11 -1 19 -8 10 -8 15 0 20 8 5 8 11 1 19 -8 9 -7 13 3
13 14 0 16 -14 3 -33 -4 -7 0 -17 8 -24 8 -7 15 -19 15 -27 0 -8 5 -11 11 -8
7 5 5 15 -5 30 -9 14 -12 26 -7 30 6 3 8 15 6 27 -3 11 -1 17 3 14 4 -4 7 -11
8 -14 2 -15 24 -62 29 -62 9 0 0 45 -10 53 -6 5 -3 7 8 3 20 -6 21 -2 7 23 -7
14 -5 23 10 36 16 15 18 21 7 34 -11 14 -10 14 6 2 17 -13 17 -15 -2 -35 -14
-15 -17 -26 -11 -36 9 -13 14 -8 12 11 -1 4 8 15 18 24 18 16 19 20 5 35 -13
14 -13 17 0 17 8 0 12 -4 10 -8 -6 -9 20 -30 28 -22 10 9 9 25 -1 19 -4 -2 -8
6 -8 19 0 13 4 21 8 19 5 -3 6 -9 3 -14z m-3765 -398 c52 -51 68 -124 52 -231
-21 -145 -97 -286 -261 -483 l-81 -98 0 -60 0 -61 40 76 c52 102 118 177 182
209 67 34 121 34 153 1 33 -32 32 -80 0 -245 -39 -194 -32 -254 26 -231 25 10
64 42 91 76 10 12 23 63 33 126 20 138 51 248 77 277 23 24 84 30 119 12 26
-15 25 -65 -6 -225 -29 -152 -32 -236 -9 -259 8 -9 18 -16 20 -16 15 0 54 27
92 63 38 38 42 45 42 92 0 66 16 164 41 248 24 83 57 109 129 105 41 -3 45 -5
48 -31 2 -15 -5 -67 -16 -115 -39 -171 -39 -176 7 -87 76 148 176 235 270 235
97 0 111 -58 66 -284 -30 -151 -32 -202 -7 -214 23 -13 51 -1 95 42 29 28 37
43 37 71 0 51 36 151 77 212 71 107 179 173 284 173 43 0 51 -3 61 -24 9 -22
17 -25 60 -24 61 2 74 -11 71 -70 -3 -54 -87 -566 -108 -660 -9 -35 -13 -67
-10 -72 3 -5 2 -10 -2 -12 -12 -5 -85 -219 -84 -245 0 -12 -4 -25 -9 -28 -6
-3 -7 2 -4 12 5 15 4 15 -4 3 -6 -8 -9 -17 -7 -20 2 -4 -22 -33 -55 -65 -39
-38 -57 -64 -55 -77 2 -10 0 -16 -6 -13 -5 4 -6 12 -2 18 4 7 0 6 -10 -2 -14
-11 -17 -11 -17 0 0 11 -2 11 -10 -1 -5 -8 -10 -11 -10 -6 0 5 -7 3 -15 -4
-10 -8 -15 -9 -15 -2 0 7 -17 10 -45 7 -25 -2 -45 0 -45 5 0 9 -40 25 -53 22
-5 -1 -6 1 -3 6 3 5 -2 18 -10 28 -9 10 -12 13 -8 5 5 -10 3 -12 -5 -7 -7 5
-10 14 -7 22 3 8 1 14 -4 14 -5 0 -7 9 -5 20 2 11 0 20 -5 20 -9 0 -9 5 8 78
5 23 8 42 6 42 -7 0 59 106 97 156 22 29 81 87 131 130 122 105 138 121 138
136 0 9 -3 10 -8 2 -4 -6 -23 -21 -42 -33 -66 -40 -175 -22 -220 37 l-20 25
-38 -26 c-58 -41 -107 -57 -167 -57 -73 0 -112 21 -136 73 -24 54 -24 83 3
233 12 68 18 127 14 131 -27 27 -113 -119 -163 -277 -19 -63 -45 -125 -56
-137 -40 -44 -123 -22 -142 37 -6 20 -7 20 -39 -5 -103 -78 -234 -72 -284 14
l-16 29 -41 -34 c-52 -42 -113 -64 -177 -64 -66 0 -105 22 -129 73 -24 54 -24
98 1 225 24 122 25 142 6 142 -38 0 -108 -123 -154 -271 -34 -110 -52 -141
-88 -157 -56 -26 -124 -4 -124 39 0 30 -13 29 -88 -8 -128 -64 -279 -55 -368
21 l-41 35 -19 -20 c-34 -38 -116 -79 -159 -79 -50 0 -99 29 -126 74 l-20 35
-35 -39 c-43 -47 -89 -70 -143 -70 -110 0 -190 88 -191 208 l0 52 -44 0 -43 0
-22 -59 c-69 -190 -279 -261 -428 -144 l-38 30 -45 -19 c-135 -58 -381 -84
-520 -54 -251 53 -390 228 -390 488 0 288 128 525 340 632 89 44 164 59 265
54 130 -7 214 -59 258 -158 44 -99 17 -269 -49 -298 -37 -18 -79 -15 -105 7
-21 17 -23 26 -20 73 14 178 -9 214 -135 212 -117 -2 -219 -75 -285 -206 -41
-80 -60 -172 -60 -287 0 -150 38 -236 131 -300 110 -75 323 -77 519 -5 39 15
43 19 38 44 -18 90 42 251 119 319 90 79 232 94 318 34 48 -34 102 -118 111
-175 l7 -40 47 7 c70 10 75 12 96 52 53 98 173 181 276 190 53 5 58 4 74 -21
15 -22 24 -26 65 -26 48 0 80 -17 80 -44 0 -6 -11 -75 -25 -152 -30 -164 -34
-242 -14 -255 24 -15 38 -10 83 31 36 33 42 44 38 69 -6 41 15 157 38 208 24
54 103 139 155 165 23 12 67 23 105 25 56 4 70 2 99 -19 86 -58 102 -182 33
-260 -18 -21 -87 -25 -99 -5 -4 6 -8 41 -8 77 0 59 -2 65 -21 68 -31 4 -80
-42 -101 -96 -21 -56 -23 -154 -4 -199 40 -96 185 -91 304 10 l38 32 5 125
c17 389 113 733 240 864 45 47 85 65 143 66 37 0 49 -5 81 -38z m-5295 -116
c71 -20 88 -38 81 -85 -11 -72 -59 -97 -149 -76 -358 81 -622 -68 -708 -402
-26 -103 -29 -249 -5 -320 43 -128 174 -159 277 -66 79 72 161 289 219 578 26
135 42 155 126 155 57 0 94 -22 94 -57 0 -9 -16 -86 -35 -172 -61 -276 -77
-429 -52 -501 25 -73 109 -75 188 -3 35 32 39 40 39 83 0 57 23 194 45 268 20
67 58 94 125 90 42 -3 45 -5 48 -34 2 -17 -6 -67 -17 -110 -10 -44 -22 -99
-26 -124 l-6 -45 26 54 c36 75 106 172 149 205 80 61 160 73 201 31 33 -32 33
-89 0 -255 -29 -145 -31 -202 -10 -220 21 -17 62 1 109 49 33 34 37 44 47 125
17 136 53 273 79 302 19 19 34 24 71 24 81 0 86 -24 44 -232 -39 -187 -32
-278 21 -278 8 0 34 18 58 40 40 37 44 45 49 101 16 176 178 352 338 366 53 5
58 4 74 -21 15 -22 25 -26 64 -26 86 0 86 -4 31 -347 -78 -475 -138 -679 -236
-800 -62 -76 -167 -104 -244 -65 -90 45 -107 156 -43 283 41 82 146 198 262
289 39 31 70 63 70 73 1 16 -4 14 -34 -9 -66 -50 -165 -42 -223 17 l-30 31
-56 -38 c-97 -64 -196 -59 -255 13 l-29 35 -46 -36 c-101 -76 -243 -75 -289 3
-28 48 -30 100 -8 223 25 139 26 158 7 158 -34 0 -119 -156 -157 -285 -11 -38
-25 -83 -31 -98 -31 -79 -133 -75 -162 7 -6 17 -8 17 -29 2 -59 -43 -104 -59
-174 -64 -64 -4 -79 -1 -128 23 -59 29 -93 69 -115 138 l-12 38 -27 -43 c-39
-62 -114 -124 -173 -144 -65 -21 -175 -15 -239 13 -65 29 -125 93 -162 171
-32 66 -32 68 -31 222 0 147 2 160 32 250 56 169 157 305 292 395 74 49 198
99 283 115 77 13 321 5 392 -14z m1052 -230 c44 -51 25 -139 -38 -172 -34 -17
-99 -18 -134 -2 -57 26 -72 107 -28 158 35 42 57 50 122 46 44 -2 59 -8 78
-30z m4760 0 c27 -32 30 -83 8 -126 -40 -77 -183 -82 -221 -9 -22 43 -17 84
13 119 35 42 57 50 122 46 44 -2 59 -8 78 -30z"/>
<path d="M14035 3851 c-6 -10 0 -14 16 -13 10 1 -3 -57 -15 -68 -9 -7 -13 -6
-13 5 0 8 4 12 9 9 4 -3 8 7 8 22 0 22 -2 25 -15 14 -8 -7 -13 -15 -11 -19 2
-3 0 -17 -5 -30 -7 -19 -12 -21 -24 -11 -12 10 -12 7 -2 -19 9 -24 8 -34 -1
-43 -9 -9 -14 -4 -23 21 l-11 33 -30 -37 c-17 -20 -33 -33 -36 -30 -3 3 -25
-13 -48 -36 -35 -35 -41 -46 -33 -61 13 -25 2 -43 -17 -27 -11 9 -14 8 -14 -4
0 -15 16 -17 36 -5 6 4 11 21 12 39 1 35 12 54 12 21 0 -12 4 -22 8 -22 5 0 7
13 6 30 -1 16 2 27 7 24 5 -3 9 3 10 13 0 16 1 16 9 -2 8 -20 11 -18 14 8 0 6
7 12 15 12 8 0 17 9 22 20 7 18 8 18 8 2 1 -10 5 -16 10 -13 5 3 7 16 4 29 -3
12 -3 20 0 17 11 -10 15 -55 6 -75 l-8 -20 -1 20 -1 20 -9 -20 c-8 -18 -9 -18
-9 -2 -1 10 -5 16 -10 12 -6 -3 -8 -14 -6 -25 3 -13 0 -18 -7 -14 -7 5 -8 2
-3 -6 5 -8 4 -11 -3 -6 -7 4 -9 -1 -7 -15 4 -18 2 -19 -12 -7 -14 11 -16 11
-8 -1 6 -10 4 -12 -5 -6 -9 5 -11 4 -6 -3 5 -8 2 -10 -8 -6 -9 3 -16 1 -16 -5
0 -6 3 -10 8 -10 4 1 9 0 12 -1 3 -1 12 -3 22 -5 21 -4 74 50 59 60 -6 3 -9
11 -5 16 3 5 9 7 14 4 4 -3 13 2 20 10 7 8 9 15 4 15 -4 0 2 10 13 23 12 12
23 33 25 47 4 29 22 30 26 0 2 -11 7 -20 12 -20 5 0 7 7 4 15 -9 23 15 48 32
34 8 -6 11 -16 7 -23 -4 -6 1 -5 10 3 9 7 14 18 10 24 -4 6 -7 24 -7 39 -1 16
-4 27 -7 26 -4 -2 -16 5 -27 15 -13 12 -22 15 -27 8z"/>
<path d="M13736 3552 c-11 -13 -14 -22 -7 -27 6 -3 11 2 12 12 0 16 1 16 8 -2
10 -23 4 -38 -10 -30 -5 4 -9 1 -9 -4 0 -6 4 -11 8 -11 5 0 9 -7 9 -16 0 -14
-2 -14 -14 2 -7 10 -11 24 -9 30 3 7 -1 18 -9 24 -11 9 -16 7 -24 -8 -6 -11
-8 -22 -5 -25 10 -10 11 -42 2 -54 -14 -18 -28 -6 -28 24 0 21 -3 23 -14 14
-8 -7 -13 -25 -12 -42 3 -38 -22 -63 -31 -30 -5 22 -7 21 -45 -16 -45 -43 -58
-63 -64 -101 -8 -41 -22 -49 -34 -18 -5 15 -14 24 -20 21 -5 -3 -10 -8 -10
-11 0 -3 5 -2 12 2 6 4 8 3 4 -4 -3 -6 -2 -13 4 -17 6 -4 7 -11 4 -17 -4 -6
-3 -8 3 -5 5 3 10 0 10 -8 0 -12 -3 -12 -16 -2 -12 10 -13 9 -6 -2 6 -10 4
-12 -5 -6 -9 6 -11 4 -5 -5 6 -9 4 -11 -5 -5 -9 6 -11 4 -5 -6 8 -12 6 -12 -8
0 -19 15 -22 9 -8 -17 5 -9 5 -26 0 -37 -7 -18 -8 -18 -8 5 -1 43 -7 70 -19
82 -9 9 -11 7 -8 -8 3 -10 7 -26 11 -35 10 -26 -12 -32 -28 -9 -14 21 -14 21
-30 -3 -12 -18 -12 -26 -2 -40 17 -24 22 -21 20 11 -2 24 -2 25 3 2 4 -23 5
-24 13 -5 7 15 8 12 5 -13 -2 -17 -1 -30 3 -28 4 3 7 -6 7 -19 0 -22 -9 -25
-12 -4 -3 22 -6 23 -15 4 -9 -19 -9 -18 -5 3 2 12 0 22 -5 22 -5 0 -9 -10 -9
-22 0 -33 -11 -14 -12 21 -1 17 -5 28 -9 25 -5 -3 -6 -18 -3 -33 7 -35 -13
-51 -24 -20 -5 13 -11 18 -15 12 -4 -6 -2 -17 5 -25 17 -18 22 -42 7 -32 -8 5
-9 3 -4 -6 6 -9 4 -11 -5 -5 -9 6 -11 4 -5 -5 5 -8 4 -11 -3 -6 -6 3 -14 1
-18 -5 -4 -7 -3 -9 2 -6 6 3 10 -5 10 -18 0 -13 -4 -21 -8 -19 -5 3 -6 9 -3
14 3 5 0 12 -6 16 -9 5 -10 0 -7 -14 4 -12 1 -25 -4 -29 -6 -3 -8 -2 -5 4 4 6
0 19 -8 29 -14 18 -15 17 -10 -11 4 -23 3 -25 -3 -10 l-9 20 -5 -20 c-3 -12
-5 -7 -4 12 0 17 4 29 9 26 7 -4 11 12 8 30 -1 5 3 6 9 2 5 -3 10 2 11 12 0
16 1 16 8 -1 10 -25 21 -7 12 18 -6 17 -10 15 -36 -15 -15 -19 -32 -33 -37
-31 -5 1 -5 -6 0 -15 11 -21 -3 -67 -18 -58 -5 3 -10 17 -10 30 0 30 -14 39
-29 21 -8 -10 -9 -16 -1 -21 5 -3 10 -1 10 6 0 7 2 10 5 7 3 -2 -2 -19 -11
-37 -14 -27 -18 -30 -32 -19 -13 11 -14 10 -4 -9 8 -14 9 -24 2 -28 -5 -3 -10
-15 -10 -25 0 -31 -19 -33 -32 -3 -6 15 -10 32 -9 38 2 5 -1 6 -5 2 -14 -14
-19 -57 -12 -114 3 -25 1 -30 -13 -28 -18 4 -42 -18 -52 -45 -4 -12 -6 -12 -6
2 -1 9 4 20 9 23 7 5 8 11 1 19 -7 8 -6 17 1 26 8 13 9 13 5 -1 -3 -9 1 -16 9
-16 10 0 10 6 -3 28 -20 34 -30 30 -28 -11 2 -39 -21 -62 -33 -31 -8 22 -8 22
-32 -4 -14 -15 -24 -30 -24 -33 1 -4 -2 -17 -7 -29 -6 -15 -15 -21 -29 -18
-11 2 -18 0 -15 -4 2 -5 -2 -14 -10 -21 -8 -7 -15 -9 -15 -4 0 4 -10 -2 -23
-14 -13 -12 -26 -20 -28 -18 -3 3 -5 -14 -5 -37 0 -29 -4 -41 -13 -39 -8 1
-10 -2 -5 -10 6 -9 3 -9 -9 1 -15 12 -17 11 -18 -5 -1 -11 -1 -23 0 -27 1 -5
-4 -5 -10 -1 -8 5 -9 3 -4 -6 6 -9 4 -11 -5 -5 -9 6 -11 4 -5 -6 8 -12 6 -12
-8 0 -13 10 -14 17 -5 35 16 31 22 34 14 9 -10 -32 2 -29 14 3 6 14 14 23 19
19 13 -7 24 12 15 26 -5 8 -10 6 -16 -5 -5 -9 -13 -14 -18 -11 -15 9 -50 -46
-46 -71 3 -15 -1 -27 -12 -33 -13 -8 -14 -12 -3 -25 7 -9 11 -16 7 -16 -3 0
-15 14 -25 31 -19 31 -19 31 -31 9 -8 -15 -8 -25 -1 -34 8 -10 7 -17 -4 -26
-12 -10 -17 -8 -27 14 l-12 27 -77 -77 c-61 -61 -76 -81 -67 -91 6 -7 8 -16 4
-20 -3 -3 -6 -1 -6 6 0 7 -5 9 -11 6 -6 -4 -8 -14 -5 -22 9 -23 -4 -36 -22
-21 -13 11 -15 10 -10 -10 4 -12 2 -20 -3 -16 -5 3 -9 12 -9 21 0 14 -2 14
-20 -2 -11 -10 -17 -22 -13 -28 4 -6 10 -3 14 9 6 14 8 15 8 3 1 -25 -11 -30
-31 -12 -20 17 -20 17 -22 -26 -1 -31 -43 -84 -58 -75 -5 3 -6 15 -2 27 l6 22
-22 -21 c-18 -18 -20 -25 -11 -42 8 -16 7 -23 -6 -33 -9 -8 -19 -13 -22 -12
-10 3 -21 -36 -11 -42 12 -7 5 -40 -9 -37 -6 1 -11 -2 -11 -8 0 -15 16 -12 30
5 7 8 17 12 23 8 5 -3 7 -1 4 4 -7 11 26 47 35 38 2 -3 15 6 28 20 13 14 20
25 15 25 -4 0 0 9 10 20 17 19 20 19 36 4 17 -15 18 -15 14 5 -2 11 0 23 5 26
5 3 2 17 -5 32 -14 27 -11 48 6 37 5 -3 8 0 7 7 -2 7 2 13 7 14 6 0 15 3 20 6
6 4 17 5 27 4 12 -2 15 3 12 20 -5 31 13 41 36 20 13 -11 20 -13 25 -5 5 8 14
6 28 -7 12 -10 19 -14 15 -9 -4 5 -3 15 3 23 6 7 8 13 3 13 -4 0 5 13 21 30
22 23 31 27 42 18 8 -6 13 -7 12 -2 -4 21 2 28 11 14 8 -11 9 -9 6 12 -5 30
36 79 49 58 9 -14 35 6 35 27 0 8 5 11 12 7 6 -4 8 -3 5 3 -4 6 2 18 13 28 17
15 18 21 7 34 -16 20 -16 46 1 47 6 1 15 3 20 4 4 1 10 2 14 1 5 0 7 2 7 7 -4
22 3 34 16 28 8 -3 14 0 12 6 -1 7 5 12 13 13 8 0 15 5 15 10 0 17 16 36 25
30 5 -3 7 6 4 20 -4 24 5 33 20 18 12 -12 35 -12 33 0 -1 7 4 11 11 9 8 -1 11
2 8 7 -3 5 1 14 9 21 8 7 15 9 15 5 0 -4 7 -2 15 5 8 7 15 9 15 5 0 -5 9 0 20
10 11 10 20 14 20 10 0 -5 17 7 38 28 20 20 40 36 45 37 4 0 10 0 13 0 4 0 1
6 -5 13 -8 11 -7 18 7 30 17 16 20 15 40 -6 12 -13 19 -27 15 -32 -5 -4 -3 -5
3 -2 6 3 10 19 9 34 -2 29 21 66 36 58 4 -3 10 -1 13 4 4 5 1 13 -4 16 -8 5
-6 13 6 26 16 18 18 18 38 2 12 -10 18 -14 13 -9 -4 5 0 18 10 28 9 10 12 18
8 18 -4 0 0 9 10 20 10 11 21 17 26 15 4 -3 10 -1 13 4 4 5 1 13 -4 16 -8 5
-6 13 6 26 17 19 18 19 40 -2 13 -12 21 -25 19 -29 -2 -4 2 -7 10 -7 8 0 11 5
7 11 -21 33 5 115 31 99 5 -3 7 -1 3 5 -3 6 -2 13 3 16 5 4 8 14 6 24 -3 20
14 44 26 36 5 -3 13 5 18 18 8 18 10 19 10 5 1 -10 6 -15 11 -12 6 4 8 10 5
15 -3 5 -1 11 5 15 5 3 10 17 10 30 0 13 5 27 10 30 6 3 10 12 10 18 0 7 -4 6
-10 -3 -5 -8 -10 -10 -10 -4 0 5 7 19 16 30 8 10 13 13 9 7 -8 -17 9 -46 29
-49 10 -1 21 8 27 22 5 14 13 23 18 19 5 -3 13 -1 16 5 5 8 12 7 23 -2 10 -7
14 -8 9 -3 -4 4 0 17 10 27 15 17 18 17 34 2 16 -14 17 -14 14 3 -3 21 34 65
48 56 6 -3 7 -1 3 5 -3 6 -2 13 4 17 6 4 7 12 3 18 -4 7 -8 19 -9 27 0 8 -5
25 -10 38 -10 23 -10 23 -28 4z m-1081 -1072 c5 8 11 8 21 -1 13 -10 11 -16
-9 -38 -13 -14 -27 -34 -31 -45 -5 -14 -9 -16 -19 -7 -10 8 -20 3 -42 -19 -16
-17 -25 -30 -21 -30 5 0 3 -7 -4 -15 -7 -8 -16 -13 -20 -10 -4 2 -22 -11 -40
-30 -19 -19 -31 -35 -26 -35 4 0 4 -5 1 -10 -5 -8 -11 -8 -20 0 -10 8 -15 8
-20 0 -11 -18 -45 20 -44 49 1 25 2 25 9 -4 8 -30 13 -17 12 30 -1 17 0 17 4
2 8 -25 23 -11 18 16 -4 20 -4 21 5 2 10 -21 12 -19 16 15 1 11 3 23 4 26 0 4
8 0 17 -7 15 -12 16 -11 10 11 l-7 25 14 -23 c7 -12 16 -20 20 -16 4 4 2 13
-5 21 -8 10 -8 17 1 26 10 9 11 8 5 -8 -4 -11 -4 -17 1 -13 4 4 14 3 20 -2 8
-7 17 -4 29 9 11 12 13 21 7 25 -6 4 -8 13 -4 21 4 12 9 9 25 -10 11 -14 24
-22 29 -19 6 4 6 10 -1 19 -7 9 -6 16 5 25 8 7 12 17 8 24 -4 6 0 5 9 -2 12
-9 18 -10 23 -2z"/>
<path d="M10345 3553 c-36 -36 -82 -183 -119 -382 -24 -128 -22 -134 24 -71
90 124 150 276 150 377 0 54 -12 93 -30 93 -5 0 -16 -8 -25 -17z"/>
<path d="M9155 2901 c-73 -33 -128 -119 -145 -229 -12 -70 -1 -113 32 -131 23
-13 29 -13 52 2 14 10 33 28 41 41 14 22 75 279 75 318 0 22 -5 22 -55 -1z"/>
<path d="M12057 2905 c-85 -29 -148 -133 -154 -255 -5 -86 7 -112 51 -112 29
0 55 22 79 68 13 25 71 303 65 310 -2 1 -20 -4 -41 -11z"/>
<path d="M8453 2885 c-61 -26 -99 -158 -74 -252 15 -56 63 -97 105 -89 40 8
65 32 88 84 l19 43 -35 39 c-37 41 -56 92 -56 153 0 41 -2 42 -47 22z"/>
<path d="M11957 2202 c-10 -10 -14 -22 -10 -26 5 -4 1 -6 -7 -4 -8 2 -14 -3
-12 -10 1 -8 -2 -11 -7 -8 -18 12 -108 -124 -96 -144 3 -6 1 -10 -5 -10 -7 0
-10 -15 -8 -37 3 -33 7 -38 31 -41 21 -3 29 2 36 20 5 13 7 26 4 30 -2 4 4 5
13 1 12 -4 15 -3 10 5 -4 7 -2 12 4 12 6 0 8 5 5 10 -3 6 -1 10 5 10 6 0 8 5
5 10 -3 6 0 10 7 10 9 0 9 3 -2 10 -12 7 -12 10 -1 10 7 0 11 6 8 15 -4 8 -1
17 5 21 7 5 8 2 3 -6 -5 -9 -4 -11 3 -6 6 4 10 20 8 36 -2 16 0 27 5 25 7 -5
29 54 29 78 0 13 -16 7 -33 -11z"/>
<path d="M6594 2901 c-82 -37 -144 -150 -147 -269 -1 -56 1 -67 22 -83 13 -11
29 -19 36 -19 22 0 67 42 82 77 11 28 63 276 63 304 0 13 -10 11 -56 -10z"/>
<path d="M6473 2167 c-72 -74 -109 -133 -113 -177 -4 -52 0 -69 21 -75 29 -9
64 26 99 100 28 60 75 213 67 221 -2 2 -35 -29 -74 -69z"/>
<path d="M11035 1063 c-5 -10 -9 -22 -9 -28 -1 -9 -11 -17 -18 -14 -23 7 -39
4 -49 -7 -6 -8 -8 -14 -4 -14 4 0 2 -6 -4 -14 -7 -9 -8 -17 -3 -20 6 -3 13 6
17 22 l8 27 14 -30 14 -30 -5 35 c-5 28 -4 31 5 17 6 -10 9 -27 6 -38 -3 -10
-2 -17 2 -15 4 3 7 -6 7 -19 0 -17 -5 -22 -18 -20 -12 3 -16 0 -12 -7 5 -7 2
-8 -7 -2 -21 13 -40 14 -33 2 4 -7 2 -8 -4 -4 -7 4 -9 -1 -7 -15 4 -18 2 -19
-12 -7 -14 11 -16 11 -8 -1 6 -10 4 -12 -5 -6 -9 6 -11 4 -5 -5 6 -9 4 -11 -5
-5 -9 6 -11 4 -5 -5 6 -9 4 -11 -5 -5 -9 6 -11 4 -5 -5 5 -8 4 -11 -1 -7 -6 3
-11 -3 -11 -14 -1 -10 3 -19 8 -19 6 0 8 4 4 9 -3 5 -1 12 5 16 5 3 10 -3 10
-13 0 -30 -29 -36 -40 -9 l-9 22 0 -22 c-1 -13 4 -23 10 -23 5 0 7 -5 4 -10
-9 -15 -25 -2 -25 20 0 10 -5 22 -10 25 -7 4 -9 -3 -5 -22 4 -23 4 -24 -4 -8
l-10 20 -1 -20 c-2 -11 -1 -24 0 -30 1 -5 -2 -7 -6 -3 -4 4 -13 3 -21 -3 -10
-9 -13 -8 -13 0 0 7 -4 9 -10 6 -5 -3 -7 0 -4 8 3 8 -3 20 -12 28 -16 13 -17
12 -7 -6 9 -15 7 -25 -9 -47 -22 -32 -42 -28 -32 5 l6 22 -21 -20 c-14 -14
-19 -27 -14 -43 5 -21 6 -21 19 -5 13 17 14 17 8 -2 -3 -12 -2 -16 3 -10 4 6
15 10 23 10 8 -1 21 3 28 8 6 5 12 6 12 2 0 -4 6 -3 13 2 6 6 20 9 29 8 10 -2
20 1 24 6 3 5 10 7 15 3 5 -3 9 -2 8 3 -4 20 2 27 12 13 9 -13 10 -12 5 2 -3
10 -1 20 4 23 6 4 10 -1 10 -9 0 -8 4 -18 10 -21 7 -4 7 2 0 19 -13 35 9 40
38 7 l24 -26 -21 32 c-12 17 -21 39 -21 50 0 13 5 9 16 -12 8 -16 20 -34 26
-40 7 -6 6 -2 -1 12 -7 14 -8 24 -1 28 10 6 11 5 14 -14 0 -5 4 -12 9 -15 4
-3 5 -3 2 0 -2 4 2 16 10 27 9 12 11 26 6 36 -5 9 -5 25 0 36 7 20 13 7 10
-22 -1 -6 3 -14 9 -18 8 -5 7 -12 -2 -23 -12 -15 -11 -16 5 -3 9 8 15 16 12
19 -3 3 0 11 7 19 9 11 14 11 32 -4 20 -17 19 -16 -1 7 -16 18 -19 30 -13 40
9 14 11 13 14 -9 0 -6 8 -16 16 -23 12 -11 12 -11 0 6 -8 11 -14 20 -12 20 2
1 -4 17 -12 36 -13 31 -13 37 1 53 9 9 12 17 8 17 -5 0 -4 5 2 11 8 8 7 19 -4
40 -17 34 -18 35 -28 12z"/>
</g>
</svg>
