<?xml version="1.0" encoding="UTF-8" standalone="no"?>
<!-- Created with Inkscape (http://www.inkscape.org/) -->

<svg
   xmlns:dc="http://purl.org/dc/elements/1.1/"
   xmlns:cc="http://creativecommons.org/ns#"
   xmlns:rdf="http://www.w3.org/1999/02/22-rdf-syntax-ns#"
   xmlns:svg="http://www.w3.org/2000/svg"
   xmlns="http://www.w3.org/2000/svg"
   xmlns:sodipodi="http://sodipodi.sourceforge.net/DTD/sodipodi-0.dtd"
   xmlns:inkscape="http://www.inkscape.org/namespaces/inkscape"
   width="205.51147mm"
   height="36.320171mm"
   viewBox="0 0 205.51147 36.320171"
   version="1.1"
   id="svg8"
   inkscape:version="0.92.4 (5da689c313, 2019-01-14)"
   sodipodi:docname="logo.svg">
  <defs
     id="defs2" />
  <sodipodi:namedview
     id="base"
     pagecolor="#ffffff"
     bordercolor="#666666"
     borderopacity="1.0"
     inkscape:pageopacity="0.0"
     inkscape:pageshadow="2"
     inkscape:zoom="0.7"
     inkscape:cx="823.15971"
     inkscape:cy="204.7589"
     inkscape:document-units="mm"
     inkscape:current-layer="g4609"
     showgrid="false"
     inkscape:window-width="1920"
     inkscape:window-height="1017"
     inkscape:window-x="-8"
     inkscape:window-y="-8"
     inkscape:window-maximized="1"
     fit-margin-top="0"
     fit-margin-left="0"
     fit-margin-right="0"
     fit-margin-bottom="0" />
  <metadata
     id="metadata5">
    <rdf:RDF>
      <cc:Work
         rdf:about="">
        <dc:format>image/svg+xml</dc:format>
        <dc:type
           rdf:resource="http://purl.org/dc/dcmitype/StillImage" />
        <dc:title />
      </cc:Work>
    </rdf:RDF>
  </metadata>
  <g
     inkscape:label="Layer 1"
     inkscape:groupmode="layer"
     id="layer1"
     transform="translate(-2.4579847,-71.704812)">
    <g
       aria-label="Gina Mastrangelo "
       transform="matrix(0.26458333,0,0,0.26458333,37.295226,-53.142014)"
       style="font-style:normal;font-variant:normal;font-weight:normal;font-stretch:normal;font-size:40px;line-height:1.25;font-family:Mistral;-inkscape-font-specification:Mistral;letter-spacing:0px;word-spacing:0px;fill:#000000;fill-opacity:1;stroke:none"
       id="flowRoot10">
      <g
         id="g4609"
         transform="matrix(5.4658809,0,0,5.4658809,-592.32704,-1548.4278)">
        <path
           id="path4539"
           style="fill:#ffffff;fill-opacity:1;stroke-width:0.62113923"
           d="m 93.174975,370.60066 q 0.279137,0.0849 0.570414,0.19406 0.291281,0.097 0.570417,0.20613 0.09697,0.0486 0.291288,0.26681 0.206311,0.2183 0.521863,0.61846 0.351963,0.42442 0.412651,0.56994 0.07292,0.13341 0.267006,0.67912 0.133501,0.20612 0.339816,0.75183 0.218452,0.53358 0.218452,0.7761 0,0.43658 -0.655368,1.06716 -0.655375,0.61846 -1.031599,0.61846 -0.242748,0 -0.364109,-0.14551 -0.109208,-0.15765 -0.109208,-0.44866 -0.109207,-0.48511 -0.169905,-0.83675 -0.339825,-1.32181 -0.910239,-1.98881 -0.558284,-0.66694 -1.371425,-0.66694 -0.412638,0 -0.813149,0.14548 -0.388378,0.13341 -0.716061,0.41234 -0.169918,0.13337 -0.449054,0.44868 -0.279126,0.31531 -0.667494,0.78825 -0.04855,0.0849 -0.133514,0.19401 -0.085,0.10914 -0.206321,0.29103 -0.109219,0.20618 -0.29127,0.49719 -0.169913,0.27893 -0.424779,0.64275 -0.10923,0.3153 -0.21846,0.58207 -0.10923,0.26682 -0.266997,0.49721 -0.03638,0.0486 -0.07283,0.19402 -0.03638,0.13342 -0.08495,0.36381 -0.08495,0.27889 -0.194185,0.60632 -0.09707,0.32744 -0.218455,0.7155 -0.194183,1.32181 -0.279141,2.09791 -0.08494,0.764 -0.08494,0.99441 0,0.52141 0.08494,1.04288 0.09707,0.52147 0.29128,1.04288 0.145633,0.37593 0.279142,0.64275 0.133499,0.26677 0.254861,0.38806 0.182048,0.18188 0.461189,0.27889 0.279142,0.097 0.618968,0.097 0.485451,0 0.922364,-0.16981 0.436914,-0.16976 0.81315,-0.47294 0.10932,-0.097 0.436911,-0.43655 0.327696,-0.35169 0.88598,-0.9459 0.121316,-0.0968 0.291266,-0.26677 0.18205,-0.1819 0.388368,-0.40018 0.230593,-0.3153 0.424772,-0.6306 0.206329,-0.31528 0.41265,-0.60633 0.254865,-0.32742 0.558274,-0.48507 0.315552,-0.15764 0.679656,-0.15764 0.4976,0 0.740323,0.21825 0.242735,0.2183 0.242735,0.65486 0,0.14553 -0.085,0.41231 -0.085,0.25463 -0.109208,0.40018 -0.02427,0.21828 -0.07292,0.54569 -0.04865,0.3153 -0.109208,0.75187 -0.02427,0.54571 -0.121316,0.97016 -0.0849,0.42442 -0.242736,0.73972 -0.194177,0.41229 -0.339811,1.32181 -0.133503,0.90951 -0.339824,1.33393 -0.07292,0.12124 -0.133503,0.37594 -0.06073,0.26681 -0.133503,0.66698 -0.04865,0.25465 -0.121318,0.43653 -0.06073,0.18194 -0.182057,0.29105 -0.09697,0.0729 -0.267009,0.15765 -0.169894,0.0849 -0.473316,0.1819 -0.04865,0.27893 -0.169905,0.41234 -0.121315,0.14551 -0.327703,0.14551 -0.169896,0 -0.266983,-0.14551 -0.085,-0.14552 -0.085,-0.47294 0,-0.12125 0.03638,-0.38806 0.04865,-0.25469 0.157774,-0.65488 0.04865,-0.19399 0.08501,-0.52141 0.03638,-0.32746 0.04865,-0.8004 0.02427,-0.24253 0.121318,-0.76399 0.109209,-0.52141 0.303409,-1.28542 l -0.157776,-0.78822 q 0.04865,-0.14553 0.085,-0.32745 0,-0.0849 -0.04865,-0.1212 -0.03638,-0.0486 -0.121325,-0.0486 -0.42476,0.29106 -0.70392,0.55783 -0.618949,0.53358 -1.043732,0.87316 -0.424768,0.33952 -0.655374,0.49718 -0.485467,0.31529 -0.983056,0.52145 -0.497594,0.20617 -1.019463,0.2789 l -0.534012,-0.1091 q -0.242725,0.0364 -0.412638,0.0729 -0.267001,0 -0.570413,-0.13339 -0.303413,-0.13338 -0.655378,-0.38806 -0.303412,-0.24253 -0.570414,-0.58206 -0.254865,-0.33959 -0.449048,-0.81253 -0.07283,-0.14552 -0.182046,-0.58205 -0.109239,-0.43658 -0.29128,-1.11569 0.109219,-0.29101 0.133498,-0.63059 0.02427,-0.33953 -0.02427,-0.72759 l 0.242724,-1.81901 q 0.291281,-2.27983 1.140835,-4.05035 0.861693,-1.77047 2.233122,-3.09229 0.461189,-0.46081 0.776737,-0.73974 0.315553,-0.27893 0.400501,-0.38804 0.267003,-0.20618 0.582568,-0.4123 0.32768,-0.20617 0.703917,-0.41235 0.194179,-0.1091 0.436913,-0.21824 0.254863,-0.12125 0.594675,-0.24258 l 1.128702,-0.13337 0.376225,0.0968 z"
           inkscape:connector-curvature="0" />
        <path
           id="path4541"
           style="fill:#ffffff;fill-opacity:1;stroke-width:0.62113923"
           d="m 95.893562,383.67331 0.07292,-0.0849 0.03638,-0.1212 q 0.327678,-0.44868 1.152965,-1.16416 0.825292,-0.72759 1.140836,-1.17628 0.121325,-0.19405 0.279132,-0.27894 0.157791,-0.0849 0.315555,-0.0849 0.424777,0 0.716056,0.21828 0.291283,0.20619 0.388374,0.63059 0.08504,0.37593 0.15777,0.76399 0.0729,0.37593 0.12131,0.764 0.0849,0.24253 0.20633,0.7397 0.12131,0.48506 0.18207,0.55782 0.0607,0.12124 0.18202,0.18194 0.12138,0.0486 0.30344,0.0486 0.21847,0 0.44906,-0.0728 0.2306,-0.0849 0.47332,-0.27889 0.18207,-0.15765 0.37625,-0.31529 0.20634,-0.16977 0.40048,-0.32742 l 0.48545,1.11564 q -0.19414,0.19403 -0.52182,0.44871 -0.31555,0.24253 -0.7646,0.56993 -0.49765,0.36383 -0.84958,0.54571 -0.352,0.16978 -0.53402,0.16978 -1.104453,0 -1.432132,-0.25466 -0.327681,-0.25465 -0.728194,-1.41881 -0.04867,-0.097 -0.14563,-0.23041 -0.09713,-0.13341 -0.218461,-0.31529 -0.145642,-0.27895 -0.254872,-0.41235 -0.109209,-0.14552 -0.182049,-0.14552 -0.194192,0 -0.521873,0.26681 -0.327682,0.25466 -0.801013,0.7761 -0.06065,-0.15763 -0.145641,-0.37592 -0.09697,-0.21828 -0.194175,-0.5093 -0.02427,-0.0729 -0.06073,-0.1334 -0.03638,-0.0605 -0.085,-0.097 z m 5.073078,-9.56802 q 0.30342,0 0.43693,0.12126 0.14559,0.12119 0.14559,0.35165 -0.0729,0.33956 -0.12127,0.56999 -0.12138,0.43653 -0.21848,0.71546 -0.0848,0.27892 -0.13354,0.40017 -0.10917,0.26681 -0.3034,0.47293 -0.18202,0.19407 -0.44903,0.35171 -0.27913,0.19401 -0.473318,0.27888 -0.182052,0.0728 -0.25487,0.0607 -0.206315,-0.0243 -0.400502,-0.0364 -0.18205,-0.0243 -0.364092,-0.0243 -0.157775,-0.0849 -0.254871,-0.32741 -0.08504,-0.24252 -0.08504,-0.65483 0,-0.3638 0.436912,-0.90951 0.449047,-0.55783 0.788883,-0.59422 0.206315,-0.25466 0.485448,-0.58207 0.12133,-0.0849 0.31555,-0.13341 0.1942,-0.0605 0.44906,-0.0605 z"
           inkscape:connector-curvature="0" />
        <path
           id="path4543"
           style="fill:#ffffff;fill-opacity:1;stroke-width:0.62113923"
           d="m 102.83566,383.67331 q 0.0486,-0.0849 0.13353,-0.18193 0.0729,-0.1091 0.182,-0.25463 0.12135,-0.097 0.31554,-0.27895 0.19422,-0.18188 0.43696,-0.4244 0.21846,-0.24254 0.534,-0.59423 0.31557,-0.36378 0.76459,-0.87311 0.19418,-0.20617 0.48548,-0.52148 0.29127,-0.3274 0.69178,-0.7761 0.33979,-0.40018 0.72816,-0.59419 0.38837,-0.19405 0.82531,-0.19405 0.43687,0 0.64323,0.27894 0.20633,0.26677 0.20633,0.78822 0,0.2789 -0.20633,1.06717 -0.20636,0.78824 -0.64323,2.08577 -0.10925,0.24257 -0.20634,0.46081 -0.0729,0.15765 -0.0969,0.27894 -0.0243,0.12123 -0.0243,0.18188 0,0.0729 0.0849,0.18193 0.0607,-0.0364 0.10919,-0.097 0.0607,-0.0606 0.13351,-0.14547 0.0969,-0.18193 0.29125,-0.37593 0.20633,-0.20617 0.48549,-0.4487 0.1093,-0.20618 0.27909,-0.40017 0.18211,-0.20617 0.40052,-0.37595 0.0486,-0.0486 0.12134,-0.15764 0.0849,-0.10915 0.19419,-0.2304 0.15778,-0.15766 0.37619,-0.32743 0.21849,-0.16976 0.50977,-0.35168 0.32767,-0.16978 0.58255,-0.26678 0.26703,-0.097 0.46119,-0.097 0.37621,0 0.66752,0.18193 0.29128,0.18189 0.49758,0.56994 0.24272,0.75188 0.46117,1.39458 0.13353,0.37593 0.2913,0.55782 0.16989,0.18193 0.37624,0.18193 0.15777,0 0.27913,-0.0607 0.13348,-0.0606 0.24276,-0.18189 l 0.48546,1.11565 q -0.20637,0.16977 -0.42482,0.35165 -0.21843,0.18192 -0.42476,0.3517 -0.27916,0.25464 -0.5219,0.36382 -0.24271,0.0968 -0.48543,0.0968 -0.27915,0 -0.53402,-0.12124 -0.25485,-0.12119 -0.43693,-0.36377 -0.0969,-0.097 -0.24275,-0.3517 -0.14562,-0.26676 -0.33976,-0.65483 -0.15779,-0.15764 -0.36415,-0.41233 -0.19412,-0.26677 -0.46118,-0.61847 l -0.10916,-0.0364 q -0.23062,0.0729 -0.46121,0.21829 -0.21848,0.14551 -0.47331,0.37595 -0.54612,0.48505 -0.78888,0.60629 -0.24271,0.12126 -0.3277,0.27894 -0.16994,0.29104 -0.58255,0.75186 -0.41261,0.46081 -1.03159,1.09141 -0.15778,0.15765 -0.31555,0.31529 -0.15776,0.14554 -0.31553,0.29105 -0.15778,0.13337 -0.36411,0.18189 -0.19423,0.0607 -0.43696,0.0607 -0.48544,0 -0.534,-0.32746 -0.0364,-0.33953 -0.0729,-0.67906 0.1821,-0.50935 0.41269,-1.27334 0.2306,-0.76398 0.534,-1.78263 0,-0.0607 0.0364,-0.15765 0.0486,-0.1091 0.10922,-0.27888 0.0607,-0.15764 0.0849,-0.26682 0.0243,-0.12119 0.0243,-0.20612 0,-0.0849 -0.0605,-0.13341 -0.0607,-0.0486 -0.19415,-0.0486 -0.12134,0 -0.32773,0.14553 -0.19414,0.14551 -0.47331,0.46082 -0.3398,0.36381 -0.54616,0.56994 -0.20627,0.20618 -0.27908,0.24257 -0.12137,0.0849 -0.2913,0.24254 -0.15779,0.15764 -0.36414,0.35165 -0.0243,0.0486 -0.0728,0.14552 -0.0486,0.0968 -0.15778,0.21829 -0.0486,-0.18189 -0.1699,-0.44869 -0.1213,-0.26677 -0.31553,-0.66696 z"
           inkscape:connector-curvature="0" />
        <path
           id="path4545"
           style="fill:#ffffff;fill-opacity:1;stroke-width:0.62113923"
           d="m 114.8265,383.13973 1.10447,-0.72763 q 0.0605,-0.0606 0.14564,-0.15765 0.0849,-0.1091 0.19416,-0.30317 0.0849,-0.15764 0.21848,-0.26677 0.14563,-0.1091 0.32767,-0.19404 0.0969,-0.12119 0.27916,-0.30312 0.18203,-0.18195 0.46119,-0.42447 0.13347,-0.0729 0.33981,-0.20616 0.20633,-0.1455 0.44905,-0.37591 1.10441,-1.04291 1.92973,-1.56438 0.83737,-0.52142 1.40781,-0.52142 0.31555,0 0.46119,0.13337 0.15777,0.13341 0.15777,0.37593 0,0.2547 -0.0969,0.4487 -0.0848,0.19405 -0.27915,0.32741 -0.30342,0.21829 -0.6554,0.48508 -0.19415,0.25469 -0.47331,0.54572 -0.27913,0.27891 -0.65536,0.55783 -0.12134,0.15765 -0.20635,0.27888 -0.0607,0.0607 -0.23058,0.2183 -0.1699,0.15764 -0.44903,0.36381 -0.12134,0.26678 -0.53399,0.69123 -0.40056,0.42442 -1.08017,1.01865 -0.0848,0.0849 -0.30342,0.38805 -0.21846,0.30316 -0.57044,0.80035 l 0.0849,0.10915 q 0.26699,-0.0849 0.55828,-0.29106 0.29127,-0.20617 0.64322,-0.5457 0.41263,-0.37593 0.66753,-0.60634 0.26698,-0.24254 0.37621,-0.31529 0.0849,-0.0486 0.16992,-0.097 0.0849,-0.0486 0.19417,-0.12123 0.55828,-0.667 1.04377,-0.98228 0.48544,-0.3274 0.89807,-0.3274 0.25486,0 0.38836,0.20616 0.13353,0.194 0.15777,0.59422 -0.0243,0.60629 -0.0243,1.16417 -0.0123,0.38806 0.20633,0.70335 0.23059,0.30312 0.59466,0.30312 0.10925,0 0.20633,-0.0605 0.1092,-0.0607 0.21847,-0.15764 0.0849,-0.10914 0.15778,-0.20617 0.0849,-0.097 0.1699,-0.19401 0.0486,-0.0243 0.13353,-0.0849 0.0969,-0.0607 0.18202,-0.14547 0.16991,0.36377 0.27916,0.6427 0.12129,0.26678 0.18202,0.47294 -0.27914,0.25465 -0.55826,0.53358 -0.26702,0.26677 -0.57044,0.50931 -0.36407,0.27892 -0.70391,0.42444 -0.33982,0.13341 -0.67962,0.13341 -0.78892,0 -1.21367,-0.44869 -0.4248,-0.44871 -0.4976,-1.35821 0,-0.10911 -0.0364,-0.21829 -0.0243,-0.12121 -0.12132,-0.24254 -0.0606,0.0607 -0.13348,0.13341 -0.0729,0.0606 -0.16991,0.16976 -0.15777,0.12124 -0.40053,0.30317 -0.2306,0.18189 -0.54614,0.43659 -0.42476,0.43652 -0.71607,0.71547 -0.29127,0.27893 -0.41261,0.40017 -0.24273,0.20617 -0.57041,0.4123 -0.31558,0.20616 -0.71609,0.42446 -0.25485,0.13341 -0.43688,0.20617 -0.18209,0.0849 -0.26704,0.0849 -0.58252,0 -0.86167,-0.27893 -0.27912,-0.29106 -0.27912,-0.88523 0,-0.32746 0.1456,-0.61846 0.13352,-0.30318 0.41267,-0.5821 0.0243,-0.15766 0.0243,-0.25466 0,-0.0607 -0.0364,-0.12124 -0.0243,-0.0728 -0.0727,-0.15765 -0.0729,-0.16977 -0.15779,-0.37593 -0.0969,-0.21826 -0.20631,-0.46078 0.0486,-0.0486 0.14563,-0.18193 0.0849,-0.14553 0.2063,-0.35166 z"
           inkscape:connector-curvature="0" />
        <path
           id="path4547"
           style="fill:#ffffff;fill-opacity:1;stroke-width:0.62113923"
           d="m 132.30313,375.26945 q -0.0364,-0.24253 -0.0847,-0.50929 0,0.10909 0.0364,-0.16977 0.0364,-0.27893 0.0969,-0.95805 0.0969,-0.13337 0.13351,-0.2304 0.0486,-0.1091 0.0849,-0.19401 -0.10918,-0.13341 -0.1699,-0.21829 -0.0486,-0.097 -0.0486,-0.15764 0.0969,-0.73976 0.18209,-1.4067 0.0123,-0.18193 0.20629,-0.41234 0.20634,-0.23036 0.55829,-0.49717 0.27914,-0.23042 0.54614,-0.38806 0.26701,-0.15765 0.50974,-0.25466 0.32768,-0.10914 0.38837,-0.18193 0.0606,-0.0728 0.13351,-0.0728 0.19416,0 0.29125,0.19402 0.10922,0.19404 0.10922,0.58209 0,0.20613 -0.10922,0.56995 -0.0969,0.36381 -0.0969,0.53358 0,0.0728 0.0123,0.55783 0.0243,0.48505 0.0607,1.39457 0.0123,0.65484 0.18207,1.39457 0.18203,0.73972 0.46115,1.5401 0.37624,1.04288 0.81316,1.56435 0.43693,0.5093 0.9588,0.5093 0.41265,0 1.09227,-0.53355 0.67964,-0.53357 1.60201,-1.60073 0.70393,-0.82465 1.25006,-1.54011 0.55829,-0.71548 0.89812,-1.30969 0.31556,-0.53358 0.74032,-0.958 0.42479,-0.42447 0.97093,-0.77612 0.16991,-0.0968 0.27914,-0.15764 0.10922,-0.0607 0.1699,-0.0607 0.21846,0 0.32769,0.32741 0.12131,0.32742 0.12131,0.97016 -0.0728,0.5942 -0.12131,1.1763 -0.10922,0.90951 -0.32769,1.89174 -0.20629,0.9823 -0.54615,2.03733 -0.1699,0.53354 -0.29125,0.93376 -0.12135,0.40018 -0.16992,0.67906 -0.0243,0.15766 -0.0728,0.40018 -0.0364,0.23041 -0.0849,0.54571 -0.12131,0.30317 -0.26701,0.60635 -0.12131,0.24253 -0.20631,0.5821 -0.0727,0.33954 -0.13347,0.78822 0,0.0849 -0.0123,0.21829 -0.0122,0.13337 -0.0243,0.2789 -0.27909,1.23693 -0.57039,2.40109 -0.0243,0.10915 -0.10923,0.27894 -0.15777,0.0486 -0.36405,0.20615 -0.1942,0.15766 -0.41267,0.43654 -0.21843,0.24255 -0.36408,0.36382 -0.14564,0.10911 -0.21848,0.10911 -0.0969,0 -0.15777,-0.0605 -0.0606,-0.0607 -0.0606,-0.20613 0.0122,-0.0968 0.0364,-0.15764 0.16991,-0.41234 0.29126,-1.18845 0.1335,-0.77611 0.24272,-1.91599 0.0123,-0.24254 0.19419,-1.30969 0.18207,-1.06718 0.53403,-2.95892 0.0486,-0.30318 0.1213,-0.73976 0.0849,-0.4487 0.20633,-1.01864 0.0849,-0.29106 0.13352,-0.49717 0.0606,-0.2183 0.0606,-0.3153 0,-0.12124 -0.0486,-0.1698 -0.0364,-0.0607 -0.12133,-0.0607 -0.0729,0 -0.26699,0.19401 -0.19421,0.18192 -0.48545,0.55782 -0.16994,0.20617 -0.35199,0.43657 -0.1699,0.23043 -0.36409,0.44871 -0.32768,0.33953 -0.6068,0.64271 l -0.89812,0.8974 q -0.12133,0.0729 -0.30343,0.18188 -0.16991,0.10921 -0.41263,0.25465 -0.23059,0.36382 -0.74032,0.63059 -0.49761,0.25468 -0.92238,0.25468 -0.50973,0 -0.98303,-0.31529 -0.4612,-0.32746 -0.89814,-0.9944 -0.19416,-0.32742 -0.38836,-0.65488 -0.18205,-0.3274 -0.40051,-0.65481 l -0.0606,0.0123 q -0.0606,0.0729 -0.2306,0.98228 -0.15776,0.90947 -0.41263,2.66787 -0.27916,1.80688 -0.42479,2.83766 -0.14561,1.03077 -0.14561,1.33394 -0.0243,0.4123 -0.15778,0.64271 -0.12134,0.2183 -0.38838,0.25465 -0.1335,0.0122 -0.37621,0.0729 -0.24274,0.0486 -0.5826,0.13339 -0.0607,-0.0123 -0.10929,-0.0364 -0.0486,-0.0364 -0.0486,-0.0969 l 0.0729,-0.44864 -0.12131,-0.46083 q 0.0728,-0.37593 0.14561,-0.72763 0.0486,-0.72759 0.0849,-1.3703 0.0123,-0.1334 0.0849,-0.44869 0.0849,-0.3153 0.0849,-0.47295 0,-0.0849 -0.0364,-0.24252 -0.0364,-0.16981 -0.0364,-0.2547 0,-0.66693 0.2063,-1.97663 0.21846,-1.3097 0.21846,-1.98881 -0.0364,-0.27888 -0.0849,-0.55781 0.0607,-0.43658 0.19422,-1.09142 0.13347,-0.65481 0.3034,-1.52796 z"
           inkscape:connector-curvature="0" />
        <path
           id="path4549"
           style="fill:#ffffff;fill-opacity:1;stroke-width:0.62113923"
           d="m 145.11928,383.13973 1.10442,-0.72763 q 0.0605,-0.0606 0.14565,-0.15765 0.0849,-0.1091 0.19418,-0.30317 0.0849,-0.15764 0.21845,-0.26677 0.14563,-0.1091 0.32769,-0.19404 0.0969,-0.12119 0.27913,-0.30312 0.18206,-0.18195 0.4612,-0.42447 0.13351,-0.0729 0.33982,-0.20616 0.20633,-0.1455 0.44903,-0.37591 1.10444,-1.04291 1.92973,-1.56438 0.83743,-0.52142 1.40782,-0.52142 0.31554,0 0.4612,0.13337 0.15776,0.13341 0.15776,0.37593 0,0.2547 -0.097,0.4487 -0.0848,0.19405 -0.27916,0.32741 -0.30341,0.21829 -0.65535,0.48508 -0.1942,0.25469 -0.47332,0.54572 -0.27915,0.27891 -0.6554,0.55783 -0.1213,0.15765 -0.20632,0.27888 -0.0607,0.0607 -0.23057,0.2183 -0.16992,0.15764 -0.44906,0.36381 -0.12131,0.26678 -0.53399,0.69123 -0.40052,0.42442 -1.08017,1.01865 -0.0848,0.0849 -0.30343,0.38805 -0.21843,0.30316 -0.57039,0.80035 l 0.0848,0.10915 q 0.267,-0.0849 0.55827,-0.29106 0.29128,-0.20617 0.64324,-0.5457 0.41266,-0.37593 0.66751,-0.60634 0.267,-0.24254 0.37624,-0.31529 0.0849,-0.0486 0.16989,-0.097 0.0849,-0.0486 0.19418,-0.12123 0.55831,-0.667 1.04376,-0.98228 0.48544,-0.3274 0.89808,-0.3274 0.25489,0 0.38837,0.20616 0.13349,0.194 0.15777,0.59422 -0.0243,0.60629 -0.0243,1.16417 -0.0123,0.38806 0.20636,0.70335 0.23058,0.30312 0.59466,0.30312 0.10922,0 0.20631,-0.0605 0.10922,-0.0607 0.21847,-0.15764 0.0849,-0.10914 0.15778,-0.20617 0.0849,-0.097 0.1699,-0.19401 0.0486,-0.0243 0.13352,-0.0849 0.0969,-0.0607 0.18204,-0.14547 0.16991,0.36377 0.27915,0.6427 0.1213,0.26678 0.18203,0.47294 -0.2791,0.25465 -0.55827,0.53358 -0.26702,0.26677 -0.57041,0.50931 -0.36411,0.27892 -0.70391,0.42444 -0.33983,0.13341 -0.67965,0.13341 -0.78886,0 -1.21368,-0.44869 -0.42474,-0.44871 -0.49757,-1.35821 0,-0.10911 -0.0364,-0.21829 -0.0243,-0.12121 -0.1213,-0.24254 -0.0606,0.0607 -0.13353,0.13341 -0.0728,0.0606 -0.1699,0.16976 -0.15775,0.12124 -0.40048,0.30317 -0.23062,0.18189 -0.54615,0.43659 -0.42481,0.43652 -0.71609,0.71547 -0.29124,0.27893 -0.41264,0.40017 -0.24273,0.20617 -0.57039,0.4123 -0.31555,0.20616 -0.71608,0.42446 -0.25486,0.13341 -0.43691,0.20617 -0.18205,0.0849 -0.26701,0.0849 -0.58255,0 -0.86166,-0.27893 -0.27915,-0.29106 -0.27915,-0.88523 0,-0.32746 0.14563,-0.61846 0.13352,-0.30318 0.41263,-0.5821 0.0243,-0.15766 0.0243,-0.25466 0,-0.0607 -0.0364,-0.12124 -0.0243,-0.0728 -0.0729,-0.15765 -0.0728,-0.16977 -0.15778,-0.37593 -0.0969,-0.21826 -0.20634,-0.46078 0.0486,-0.0486 0.14563,-0.18193 0.0849,-0.14553 0.20635,-0.35166 z"
           inkscape:connector-curvature="0" />
        <path
           id="path4551"
           style="fill:#ffffff;fill-opacity:1;stroke-width:0.62113923"
           d="m 154.05176,383.67331 0.0728,-0.0849 q 0.0486,-0.16976 0.21845,-0.36377 0.15778,-0.19405 0.46119,-0.38804 0.40051,-0.25471 0.61895,-0.41235 0.2306,-0.15766 0.27915,-0.23042 0.10931,-0.13335 0.14565,-0.20613 0.13351,-0.097 0.32765,-0.26681 0.19422,-0.16976 0.43696,-0.41229 0.0848,-0.0606 0.18201,-0.19401 0.0969,-0.13341 0.19422,-0.30317 0.15776,-0.10914 0.35192,-0.27893 0.20635,-0.16977 0.47335,-0.43658 0.30339,-0.32742 0.67963,-0.71546 0.38838,-0.40018 0.86169,-0.8246 0.15777,-0.0728 0.29131,-0.10914 0.14564,-0.0486 0.27912,-0.0486 0.54614,0 0.81315,0.26676 0.27914,0.25466 0.27914,0.73976 0,0.1212 -0.0486,0.40018 -0.0364,0.27889 -0.0849,0.70334 -0.1699,1.2248 -0.24273,1.49158 -0.0726,0.26677 -0.50975,1.67351 -0.097,0.23041 -0.20632,0.56994 -0.0969,0.33953 -0.24273,0.82463 0.0243,0.0486 0.12134,0.0968 0.0848,0 0.3034,-0.15765 0.21846,-0.16976 0.58254,-0.49722 0.42479,-0.38807 0.66753,-0.59419 0.2427,-0.20617 0.30341,-0.24253 0.14564,0.32742 0.26699,0.60631 0.12133,0.2668 0.20633,0.50934 -0.15777,0.0968 -0.29129,0.21829 -0.12131,0.12119 -0.23059,0.26677 -0.25485,0.16976 -0.59469,0.38804 -0.32769,0.2183 -0.7282,0.47296 -0.18203,0.18192 -0.49756,0.44868 -0.30343,0.25466 -0.69181,0.58212 l -0.23057,0.0486 q -0.16993,0.23041 -0.32768,0.3517 -0.14565,0.1212 -0.26703,0.16975 -0.19417,0.0727 -0.38838,0.13342 -0.19415,0.0729 -0.41262,0.14548 -0.13353,-0.0364 -0.1942,-0.15764 -0.0607,-0.12122 -0.0486,-0.3153 -0.18208,-0.32741 -0.29129,-0.75182 -0.1093,-0.42445 -0.1093,-0.9459 0,-0.097 0.0122,-0.20615 0.0123,-0.10915 0.0243,-0.19407 -0.0849,-0.31527 -0.0849,-0.37589 0,-0.36381 0.27912,-0.5942 0.27914,-0.24254 0.63114,-0.24254 0.182,0 0.25483,0.19401 0.0849,0.18193 0.1699,0.18193 0.0849,0 0.16992,-0.32746 0.0969,-0.33954 0.18208,-0.98223 0.0848,-0.55782 0.10918,-0.97017 0.0243,-0.4123 0.0243,-0.63058 0,-0.15765 -0.0728,-0.23042 -0.0607,-0.0849 -0.21844,-0.0849 -0.15776,0 -1.01949,0.7276 -0.86168,0.72763 -2.40302,2.17069 -0.0486,0.0849 -0.14562,0.20616 -0.0848,0.12125 -0.20634,0.30318 -0.0486,-0.1819 -0.1699,-0.44872 -0.12133,-0.26674 -0.31555,-0.66694 z"
           inkscape:connector-curvature="0" />
        <path
           id="path4553"
           style="fill:#ffffff;fill-opacity:1;stroke-width:0.62113923"
           d="m 161.67349,383.67331 0.0486,-0.097 q 0.0728,-0.0968 0.19416,-0.24252 0.10933,-0.14552 0.26701,-0.33953 0.86173,-0.80041 1.67484,-1.90392 0.82531,-1.11565 1.62629,-2.55875 0.0969,-0.13337 0.21847,-0.35165 0.12131,-0.21828 0.26699,-0.54569 0,-0.0729 -0.0364,-0.10915 -0.0364,-0.0364 -0.12134,-0.0364 -0.0728,0 -0.24272,0.0486 -0.15779,0.0364 -0.24273,0.0364 h -1.51709 q -0.0969,0 -0.32766,-0.0123 -0.21847,-0.0123 -0.31555,-0.0123 -0.12131,-0.0606 -0.2306,-0.0969 -0.0969,-0.0486 -0.19416,-0.097 -0.14565,-0.0486 -0.2306,-0.12119 -0.0727,-0.0849 -0.0727,-0.19405 0,-0.77611 0.15776,-1.18841 0.16992,-0.41234 0.50971,-0.41234 0.33986,0 0.63111,0.0364 0.30342,0.0243 0.53401,0.0729 0.18209,-0.0364 0.33985,-0.0729 0.32767,0 0.55827,0.0243 0.23059,0.0243 0.35195,0.0607 0.15777,-0.0364 0.30341,-0.0607 0.15776,-0.0364 0.33984,-0.0728 l 0.40049,0.12123 q 0.42478,-0.0486 0.89809,-1.1884 0.48549,-1.13993 1.03163,-1.13993 0.29127,0 0.44905,0.18189 0.1578,0.18191 0.1578,0.53358 0,0.27893 -0.16996,0.73975 -0.15777,0.44865 -0.18206,0.67907 0.0243,0.0486 0.0606,0.10915 0.0486,0.0486 0.13352,0.12119 0.0728,0.0486 0.0969,0.16981 0.0364,0.10911 0.0364,0.27891 0,0.7276 -0.0729,1.12778 -0.0605,0.38805 -0.20629,0.40018 l -0.82532,0.16977 q -0.0243,0.12124 -0.0606,0.30317 -0.0364,0.16977 -0.0969,0.40018 -0.20632,0.60634 -0.46119,1.5401 -0.25485,0.93377 -0.57039,2.20706 -0.19419,1.01862 -0.30343,1.64926 -0.0969,0.63059 -0.0969,0.84886 0,0.19402 0.0607,0.29102 0.0606,0.0969 0.18208,0.0969 0.0727,0 0.52182,-0.35169 0.4612,-0.3517 1.27436,-1.04289 l 0.47331,1.11564 q -0.12132,0.13341 -0.33979,0.31531 -0.21846,0.18188 -0.52187,0.38804 -0.12135,0.13342 -0.30343,0.30319 -0.18203,0.15763 -0.40049,0.37592 -0.21847,0.24253 -0.43693,0.48506 -0.20633,0.24253 -0.42476,0.47294 -0.29129,0.3153 -0.57044,0.44872 -0.27912,0.14551 -0.52186,0.14551 -0.53399,0 -0.80102,-0.3153 -0.25488,-0.31528 -0.25488,-0.95803 0,-0.70335 0.0486,-1.21265 0.0486,-0.52146 0.15777,-0.83675 0.0486,-0.0969 0.0729,-0.16977 0,-0.12124 0.0364,-0.32742 0.0364,-0.20616 0.0848,-0.48509 0.0728,-0.47295 0.15778,-0.94589 0.13351,-0.29105 0.27914,-0.61845 0,-0.0607 -0.0969,-0.10911 l -0.12133,0.0728 q -0.18203,0.291 -0.47331,0.61846 -0.2913,0.3153 -0.69179,0.66695 -0.61897,0.59423 -1.26218,1.20057 -0.0364,0.0607 -0.13354,0.18189 -0.0969,0.12123 -0.21845,0.30316 -0.0607,-0.14551 -0.14564,-0.36381 -0.0969,-0.2304 -0.19418,-0.52143 -0.0243,-0.0728 -0.0606,-0.13338 -0.0364,-0.0606 -0.0849,-0.097 z"
           inkscape:connector-curvature="0" />
        <path
           id="path4555"
           style="fill:#ffffff;fill-opacity:1;stroke-width:0.62113923"
           d="m 168.42141,383.67331 q 0.19416,-0.25469 0.38835,-0.53358 0.88596,-0.72763 1.44422,-1.39456 0.57044,-0.67911 0.8253,-1.26121 l -0.12133,-0.58209 q 0.15778,-0.30316 0.77673,-0.71546 0.63112,-0.41233 1.01949,-0.41233 0.41263,0 0.69177,0.24257 0.29126,0.24253 0.55829,0.5093 0.13348,0.0849 0.19417,0.13341 0.48546,0.36381 0.7282,1.00652 0.24275,0.64269 0.24275,1.56435 0,0.48504 -0.37625,1.39456 -0.37623,0.89736 -0.37623,1.35819 0,0.0607 0.0364,0.0969 0.0486,0.0364 0.12134,0.0364 0.15777,0 0.37624,-0.13341 0.21846,-0.14549 0.47332,-0.38805 0.64321,-0.63058 0.77673,-0.69119 0.13352,-0.0728 0.32767,-0.23041 0.0969,0.24252 0.23059,0.52143 0.13352,0.27892 0.25488,0.59422 -0.10919,0.097 -0.25488,0.2304 -0.13351,0.13341 -0.32767,0.30317 -0.41262,0.30317 -1.08015,0.73972 -0.65535,0.42446 -1.57773,0.98228 -0.24273,0.15765 -0.55827,0.25464 -0.50975,0 -0.76462,-0.14552 -0.25489,-0.15765 -0.25489,-0.49717 0,-0.13341 0.0486,-0.30318 0.0606,-0.18189 0.15779,-0.38806 0.0728,-0.15765 0.15777,-0.31529 0.0848,-0.16977 0.14563,-0.33953 0.267,-0.76399 0.40051,-1.41886 0.14563,-0.65484 0.14563,-1.17628 0,-0.64272 -0.20632,-0.98225 -0.19418,-0.33958 -0.59467,-0.38806 -0.26704,0.1455 -0.58258,0.4123 -0.31553,0.26677 -0.64323,0.66695 -0.35197,0.43657 -0.63109,0.71551 -0.27915,0.27889 -0.46119,0.37592 -0.10923,0.1819 -0.35197,0.41231 -0.24272,0.23041 -0.64324,0.49717 -0.0243,0.0486 -0.0729,0.14553 -0.0486,0.0969 -0.15777,0.2183 -0.0969,-0.27893 -0.21849,-0.54571 -0.12129,-0.27892 -0.26697,-0.56994 z"
           inkscape:connector-curvature="0" />
        <path
           id="path4557"
           style="fill:#ffffff;fill-opacity:1;stroke-width:0.62113923"
           d="m 176.91694,383.13973 1.10443,-0.72763 q 0.0607,-0.0606 0.14562,-0.15765 0.0849,-0.1091 0.19422,-0.30317 0.0849,-0.15764 0.21847,-0.26677 0.14562,-0.1091 0.32766,-0.19404 0.0969,-0.12119 0.27912,-0.30312 0.18208,-0.18195 0.4612,-0.42447 0.13351,-0.0729 0.33985,-0.20616 0.2063,-0.1455 0.44904,-0.37591 1.10443,-1.04291 1.92969,-1.56438 0.83741,-0.52142 1.40785,-0.52142 0.31555,0 0.46117,0.13337 0.15779,0.13341 0.15779,0.37593 0,0.2547 -0.0969,0.4487 -0.0849,0.19405 -0.27912,0.32741 -0.30341,0.21829 -0.65538,0.48508 -0.19417,0.25469 -0.47332,0.54572 -0.27912,0.27891 -0.65536,0.55783 -0.12133,0.15765 -0.20633,0.27888 -0.0607,0.0607 -0.23059,0.2183 -0.16991,0.15764 -0.44907,0.36381 -0.1213,0.26678 -0.534,0.69123 -0.40052,0.42442 -1.08014,1.01865 -0.0849,0.0849 -0.30341,0.38805 -0.21847,0.30316 -0.57043,0.80035 l 0.0849,0.10915 q 0.26704,-0.0849 0.55831,-0.29106 0.29126,-0.20617 0.64323,-0.5457 0.41265,-0.37593 0.66751,-0.60634 0.26701,-0.24254 0.37622,-0.31529 0.0849,-0.0486 0.16991,-0.097 0.0849,-0.0486 0.1942,-0.12123 0.55827,-0.667 1.04373,-0.98228 0.48549,-0.3274 0.89813,-0.3274 0.25483,0 0.38836,0.20616 0.1335,0.194 0.15778,0.59422 -0.0243,0.60629 -0.0243,1.16417 -0.0123,0.38806 0.20629,0.70335 0.2306,0.30312 0.59472,0.30312 0.10919,0 0.20631,-0.0605 0.10921,-0.0607 0.21844,-0.15764 0.0849,-0.10914 0.15777,-0.20617 0.0849,-0.097 0.16995,-0.19401 0.0486,-0.0243 0.13347,-0.0849 0.0969,-0.0607 0.18207,-0.14547 0.16991,0.36377 0.2791,0.6427 0.12136,0.26678 0.1821,0.47294 -0.27916,0.25465 -0.55831,0.53358 -0.26698,0.26677 -0.57041,0.50931 -0.3641,0.27892 -0.70391,0.42444 -0.33981,0.13341 -0.67967,0.13341 -0.78886,0 -1.21361,-0.44869 -0.42481,-0.44871 -0.49764,-1.35821 0,-0.10911 -0.0364,-0.21829 -0.0243,-0.12121 -0.12133,-0.24254 -0.0607,0.0607 -0.13347,0.13341 -0.0728,0.0606 -0.16995,0.16976 -0.15778,0.12124 -0.40049,0.30317 -0.2306,0.18189 -0.54614,0.43659 -0.42475,0.43652 -0.71605,0.71547 -0.29129,0.27893 -0.41262,0.40017 -0.24276,0.20617 -0.57045,0.4123 -0.31554,0.20616 -0.71604,0.42446 -0.25486,0.13341 -0.43693,0.20617 -0.18202,0.0849 -0.26699,0.0849 -0.58256,0 -0.86169,-0.27893 -0.27916,-0.29106 -0.27916,-0.88523 0,-0.32746 0.14566,-0.61846 0.1335,-0.30318 0.41263,-0.5821 0.0243,-0.15766 0.0243,-0.25466 0,-0.0607 -0.0364,-0.12124 -0.0243,-0.0728 -0.0729,-0.15765 -0.0728,-0.16977 -0.15776,-0.37593 -0.0969,-0.21826 -0.2063,-0.46078 0.0486,-0.0486 0.14563,-0.18193 0.0849,-0.14553 0.2063,-0.35166 z"
           inkscape:connector-curvature="0" />
        <path
           id="path4559"
           style="fill:#ffffff;fill-opacity:1;stroke-width:0.62113923"
           d="m 185.84942,383.67331 q 0.0486,-0.0849 0.13353,-0.18193 0.0727,-0.1091 0.182,-0.25463 0.12135,-0.097 0.31555,-0.27895 0.19421,-0.18188 0.43695,-0.4244 0.21844,-0.24254 0.534,-0.59423 0.31557,-0.36378 0.7646,-0.87311 0.19417,-0.20617 0.48547,-0.52148 0.29128,-0.3274 0.69178,-0.7761 0.3398,-0.40018 0.72817,-0.59419 0.38837,-0.19405 0.82531,-0.19405 0.43692,0 0.64321,0.27894 0.20634,0.26677 0.20634,0.78822 0,0.2789 -0.20634,1.06717 -0.20629,0.78824 -0.64321,2.08577 -0.10923,0.24257 -0.20635,0.46081 -0.0726,0.15765 -0.0969,0.27894 -0.0243,0.12123 -0.0243,0.18188 0,0.0729 0.0849,0.18193 0.0607,-0.0364 0.1092,-0.097 0.0607,-0.0606 0.13352,-0.14547 0.0969,-0.18193 0.29126,-0.37593 0.2063,-0.20617 0.48548,-0.4487 0.10917,-0.20618 0.27914,-0.40017 0.18202,-0.20617 0.40048,-0.37595 0.0486,-0.0486 0.12132,-0.15764 0.0847,-0.10915 0.1942,-0.2304 0.15777,-0.15766 0.37623,-0.32743 0.21843,-0.16976 0.50972,-0.35168 0.32766,-0.16978 0.58256,-0.26678 0.267,-0.097 0.46119,-0.097 0.3762,0 0.66748,0.18193 0.2913,0.18189 0.49762,0.56994 0.24273,0.75188 0.46119,1.39458 0.13348,0.37593 0.29126,0.55782 0.16991,0.18193 0.37624,0.18193 0.15776,0 0.27913,-0.0607 0.13348,-0.0606 0.24276,-0.18189 l 0.48545,1.11565 q -0.20635,0.16977 -0.42479,0.35165 -0.21846,0.18192 -0.42479,0.3517 -0.27911,0.25464 -0.52188,0.36382 -0.24273,0.0968 -0.48545,0.0968 -0.27912,0 -0.534,-0.12124 -0.25486,-0.12119 -0.43691,-0.36377 -0.0969,-0.097 -0.24271,-0.3517 -0.14566,-0.26676 -0.33985,-0.65483 -0.15777,-0.15764 -0.36408,-0.41233 -0.19418,-0.26677 -0.4612,-0.61847 l -0.10921,-0.0364 q -0.2306,0.0729 -0.46119,0.21829 -0.21846,0.14551 -0.47332,0.37595 -0.54614,0.48505 -0.78886,0.60629 -0.24275,0.12126 -0.32769,0.27894 -0.1699,0.29104 -0.58257,0.75186 -0.41261,0.46081 -1.03158,1.09141 -0.15778,0.15765 -0.31556,0.31529 -0.15778,0.14554 -0.31555,0.29105 -0.15778,0.13337 -0.3641,0.18189 -0.19418,0.0607 -0.43692,0.0607 -0.48548,0 -0.53399,-0.32746 -0.0364,-0.33953 -0.0728,-0.67906 0.18204,-0.50935 0.41265,-1.27334 0.23059,-0.76398 0.53398,-1.78263 0,-0.0607 0.0364,-0.15765 0.0486,-0.1091 0.10925,-0.27888 0.0606,-0.15764 0.0847,-0.26682 0.0243,-0.12119 0.0243,-0.20612 0,-0.0849 -0.0606,-0.13341 -0.0607,-0.0486 -0.19417,-0.0486 -0.12135,0 -0.32769,0.14553 -0.1942,0.14551 -0.47331,0.46082 -0.33985,0.36381 -0.54615,0.56994 -0.20633,0.20618 -0.27913,0.24257 -0.12136,0.0849 -0.2913,0.24254 -0.15777,0.15764 -0.3641,0.35165 -0.0243,0.0486 -0.0729,0.14552 -0.0486,0.0968 -0.15778,0.21829 -0.0486,-0.18189 -0.16994,-0.44869 -0.12129,-0.26677 -0.31555,-0.66696 z"
           inkscape:connector-curvature="0" />
        <path
           id="path4561"
           style="fill:#ffffff;fill-opacity:1;stroke-width:0.62113923"
           d="m 197.45194,383.67331 q 0.0849,-0.097 0.20632,-0.2668 0.12135,-0.18189 0.30341,-0.4123 0.15776,-0.13341 0.36412,-0.35169 0.20631,-0.23042 0.46119,-0.56995 0.0969,-0.20617 0.23059,-0.4487 0.14561,-0.25464 0.32767,-0.59422 0.0729,-0.32741 0.33981,-0.7397 0.26704,-0.42445 0.74036,-0.94588 0.66749,-0.73976 1.3957,-1.57651 0.3762,-0.55783 0.81311,-0.8246 0.44905,-0.26681 0.95879,-0.26681 0.33982,0 0.50973,0.30318 0.18208,0.30317 0.18208,0.8974 0,0.21828 -0.30344,0.6791 -0.29126,0.46082 -0.89811,1.17628 -0.37623,0.4487 -0.78886,0.89736 -0.41265,0.43659 -0.81314,0.89738 -0.18207,0.16979 -0.38837,0.37596 -0.19418,0.19401 -0.42478,0.43654 -0.0727,0.25468 -0.15778,0.56998 0,0.47294 0.0607,0.82459 0.0606,0.33959 0.18201,0.58211 0.0607,0.0849 0.25487,0.38805 0.20632,0.29106 0.54617,0.76398 0.0849,0.12121 0.20631,0.24254 0.12132,0.12119 0.27914,0.24253 0.18206,-0.0728 0.70394,-0.64271 0.52184,-0.5821 1.40783,-1.63711 l 0.46118,1.11566 q -0.0848,0.097 -0.32769,0.40018 -0.2306,0.29104 -0.57043,0.77611 -0.38838,0.50933 -0.78887,1.09139 0,0.12124 0.10921,0.27894 0.12132,0.15764 0.29126,0.35165 0.31555,0.36382 0.534,0.94588 0.23061,0.58211 0.35198,1.41887 -0.0123,0.0607 -0.0364,0.19399 -0.0123,0.13342 -0.0243,0.30318 -0.14565,1.39456 -1.72339,2.78914 -1.56561,1.39458 -2.9613,1.39458 -0.64327,0 -1.03163,-0.16976 -0.3762,-0.15766 -0.534,-0.48506 -0.0606,-0.15765 -0.0969,-0.61847 -0.0364,-0.46082 -0.0364,-1.2248 0,-0.0728 0.0727,-0.29107 0.0606,-0.20616 0.21847,-0.56994 0.0849,-0.24252 0.23059,-0.50934 0.15778,-0.25465 0.32768,-0.55782 0.16993,-0.25463 0.33983,-0.49716 0.18202,-0.24258 0.33981,-0.48511 0.38835,-0.42442 0.69178,-0.75182 0.23058,-0.23043 0.35199,-0.4366 0.13349,-0.20617 0.13349,-0.36381 -0.41268,-0.56994 -0.82528,-1.0914 -0.43694,-0.5457 -0.71607,-1.0914 -0.26703,-0.54571 -0.35198,-1.11565 -0.0123,-0.0729 -0.0968,-0.23041 -0.27918,0.26677 -0.54615,0.54571 -0.0486,-0.1819 -0.16993,-0.44872 -0.12133,-0.26674 -0.31555,-0.66694 z m 3.98079,5.09321 q -0.0727,0 -0.33983,0.33957 -0.25489,0.33955 -0.70391,1.00649 -0.25489,0.40021 -0.50973,0.81252 -0.25489,0.41229 -0.53402,0.81246 -0.0969,0.13341 -0.27916,0.63063 -0.18203,0.49717 -0.18203,0.63058 0,0.23042 0.12132,0.33953 0.13349,0.10921 0.40053,0.10921 0.93452,0 1.91755,-1.01863 0.98305,-1.00653 0.98305,-1.94028 0,-0.194 -0.0728,-0.46082 -0.0729,-0.25465 -0.19418,-0.56994 -0.15777,-0.35166 -0.30338,-0.52146 -0.14564,-0.16978 -0.30343,-0.16978 z"
           inkscape:connector-curvature="0" />
        <path
           id="path4563"
           style="fill:#ffffff;fill-opacity:1;stroke-width:0.62113923"
           d="m 204.15132,383.67331 q 0.14564,-0.25469 0.37623,-0.50933 0.23058,-0.26678 0.58251,-0.54571 0.0364,-0.24252 0.0728,-0.47294 0.0364,-0.24252 0.0486,-0.48506 0.0364,-0.1698 0.10917,-0.4002 0.0849,-0.23042 0.18206,-0.49719 0.10921,-0.26677 0.29126,-0.66699 0.19423,-0.40018 0.49762,-0.89737 0.25486,-0.27892 0.534,-0.60633 0.27912,-0.33953 0.55829,-0.67911 0.13349,-0.1091 0.29128,-0.20613 0.15777,-0.0968 0.31553,-0.21829 0.14566,-0.0486 0.32771,-0.0849 0.18202,-0.0364 0.4005,-0.0364 0.30342,0 0.48543,0.0607 0.19421,0.0607 0.31555,0.20619 0.0849,0.0969 0.15778,0.29102 0.0848,0.19402 0.15778,0.47296 0.0364,0.24253 0.0849,0.53355 0,-0.0728 -0.0486,0.0606 -0.0364,0.13342 -0.12135,0.42446 l -0.10918,0.38805 q -0.16992,0.58207 -0.76462,1.34606 -0.5947,0.76398 -1.60203,1.74628 -0.0849,0.0849 -0.14563,0.21825 -0.0607,0.12124 -0.0607,0.26679 0,0.25467 0.0849,0.44871 0.0969,0.194 0.26697,0.291 0.0969,0.0729 0.3034,0.14554 0.21849,0.0729 0.50976,0.1334 0.47335,-0.0364 0.86171,-0.15765 0.38837,-0.12123 0.69177,-0.29104 0.0607,-0.0364 0.19417,-0.097 0.13352,-0.0726 0.26702,-0.18188 0.15778,0.35164 0.27912,0.63058 0.12135,0.27889 0.19419,0.48505 -0.69176,0.67912 -1.26221,1.03077 -0.55828,0.33958 -1.03161,0.33958 -0.19416,0.12119 -0.44904,0.18189 -0.24274,0.0486 -0.58254,0.0486 -0.44907,0 -0.80101,-0.13339 -0.33984,-0.13341 -0.57043,-0.38807 -0.12132,-0.12124 -0.24273,-0.35169 -0.1213,-0.24252 -0.25484,-0.56994 -0.10922,-0.26677 -0.20635,-0.38806 -0.0969,-0.13342 -0.21845,-0.13342 -0.0969,0 -0.21844,0.097 -0.12134,0.0849 -0.26703,0.26681 -0.0486,-0.18188 -0.1699,-0.44869 -0.12133,-0.26678 -0.31553,-0.66695 z m 3.88368,-3.9412 q -0.26701,0 -0.71606,0.70335 -0.44906,0.69124 -0.44906,1.01866 0,0.0726 0.0243,0.10911 0.0364,0.0243 0.13352,0.0243 0.13349,0 0.21846,-0.1334 0.0849,-0.14553 0.15778,-0.26676 0.13349,-0.12125 0.25484,-0.2547 0.13352,-0.14553 0.25486,-0.2789 0.14564,-0.16979 0.21847,-0.33956 0.0728,-0.16977 0.0728,-0.33955 0,-0.10913 -0.0486,-0.16975 -0.0364,-0.0729 -0.12133,-0.0729 z"
           inkscape:connector-curvature="0" />
        <path
           id="path4565"
           style="fill:#ffffff;fill-opacity:1;stroke-width:0.62113923"
           d="m 210.2681,383.67331 q 0.1092,-0.12123 0.21847,-0.29104 0.10922,-0.18193 0.29126,-0.38806 l 0.80103,-0.70335 q 0.0486,-0.0364 0.0486,-0.0969 0.0123,-0.0605 0.0123,-0.16977 -0.0123,-0.15763 -0.0364,-0.25465 0,-0.27891 0.10918,-0.93375 0.10924,-0.65484 0.19419,-0.78824 l -0.0726,-0.2304 q 0.15776,-0.81252 0.43687,-1.7705 0.29127,-0.97013 0.65539,-2.09794 0.12132,-0.194 0.25484,-0.48506 0.13355,-0.30317 0.30343,-0.67911 0.20634,-0.63058 0.54614,-1.32182 0.33983,-0.69121 0.76462,-1.41881 0.5704,-0.95803 1.00733,-1.4431 0.44906,-0.48505 0.801,-0.48505 0.70389,0 0.9588,0.27892 0.26699,0.26678 0.26699,1.01864 0,0.19402 -0.0728,0.60631 -0.0607,0.40022 -0.0607,0.60635 0,0.20617 -0.13347,0.58211 -0.1335,0.37593 -0.1335,0.69121 -0.0123,0.0968 -0.0606,0.194 l 0.0123,0.16978 q -0.0486,0.1698 -0.14563,0.41235 -0.097,0.24252 -0.25488,0.58205 -0.0849,0.30318 -0.21847,0.70335 -0.13348,0.40018 -0.31554,0.87312 -0.0728,0.12124 -0.19416,0.30317 -0.10924,0.1698 -0.24274,0.38804 -0.0364,0.15765 -0.12132,0.36383 -0.0849,0.20616 -0.2306,0.48506 -0.0728,0.14552 -0.19417,0.31529 -0.12132,0.1698 -0.29127,0.43658 -0.0728,0.12124 -0.15779,0.30317 -0.0849,0.18189 -0.19421,0.41229 -0.13348,0.20617 -0.35193,0.50934 -0.21846,0.30318 -0.49761,0.71547 -0.37623,0.667 -0.77674,1.2733 0,1.17633 0.46117,1.78263 0.47335,0.59423 1.40787,0.59423 0.0606,0 0.36409,-0.0849 0.30343,-0.0849 0.83743,-0.26681 0.15777,-0.097 0.37625,-0.26677 0.21845,-0.18188 0.49756,-0.42442 l 0.47331,1.11565 q -0.31554,0.27894 -0.63109,0.56994 -0.31554,0.29106 -0.64321,0.56998 -0.37624,0.3153 -0.76461,0.48506 -0.38836,0.15765 -0.76461,0.15765 -0.19416,0 -0.59469,-0.0364 -0.40053,-0.0486 -0.60681,-0.0486 -0.67963,0 -1.12871,-0.54571 -0.43691,-0.5457 -0.61897,-1.6371 -0.0243,-0.10915 -0.0728,-0.19404 -0.0364,-0.0849 -0.14564,-0.19401 -0.15776,0.15764 -0.3762,0.37592 -0.2063,0.21825 -0.50972,0.4972 z m 5.7891,-9.5195 -0.0849,-0.0486 q -0.67966,0.65486 -1.0316,1.23693 -0.33983,0.5821 -0.33983,1.12779 0,0.0849 -0.0849,0.29106 -0.0728,0.194 -0.23058,0.5093 -0.19417,0.37594 -0.40052,0.82462 -0.23059,0.67908 -0.35194,1.10353 -0.12135,0.42443 -0.12135,0.60637 l 0.0729,0.0969 q 0.10921,-0.0123 0.26702,-0.21828 0.15777,-0.20617 0.36406,-0.60636 0.0969,-0.21825 0.27917,-0.5093 0.18202,-0.29104 0.41263,-0.69122 0.1942,-0.26682 0.61896,-1.37035 0.42478,-1.10352 0.46119,-1.4067 0.0122,-0.24252 0.0607,-0.47293 0.0607,-0.24253 0.10919,-0.47294 z"
           inkscape:connector-curvature="0" />
        <path
           id="path4567"
           style="fill:#ffffff;fill-opacity:1;stroke-width:0.62113923"
           d="m 217.11312,383.67331 q 0.0849,-0.0849 0.18201,-0.21828 0.0849,-0.14553 0.20634,-0.3153 l 0.93452,-0.64275 q 0.1699,-0.20612 0.52187,-0.52141 0.35194,-0.32746 0.87383,-0.78822 0.0606,-0.13342 0.19417,-0.30318 0.14564,-0.18193 0.33984,-0.3517 0.16989,-0.15765 0.33981,-0.29106 0.1699,-0.14552 0.31553,-0.27888 0.18205,-0.18193 0.33984,-0.36382 0.16992,-0.18187 0.33982,-0.35165 0.19419,-0.1698 0.4005,-0.26682 0.20634,-0.097 0.44908,-0.097 0.26697,0 0.40048,0.0728 0.14565,0.0606 0.15778,0.1819 -0.12133,0.27892 -0.25485,0.5578 l 0.0728,0.10926 q 0.534,-0.20618 0.8374,-0.30318 0.30343,-0.0969 0.38838,-0.0969 0.88597,0 1.32289,0.54573 0.44903,0.53353 0.44903,1.62498 0,0.20612 -0.0486,0.48506 -0.0486,0.27889 -0.15776,0.60635 -0.12135,0.36376 -0.26704,0.60628 -0.13351,0.24258 -0.25486,0.3517 0.0486,0.15765 0.1092,0.23041 0.0606,0.0607 0.15778,0.0607 0.0969,0 0.1942,-0.0607 0.10919,-0.0605 0.25484,-0.18189 0.12134,0.26678 0.2306,0.55783 0.12135,0.27889 0.24274,0.55782 -0.21845,0.19403 -0.42476,0.37594 -0.20635,0.1819 -0.43693,0.35164 -0.27915,0.23042 -0.53402,0.3396 -0.24272,0.0969 -0.48545,0.0969 -0.27913,0 -0.4612,-0.13341 -0.18203,-0.13342 -0.29128,-0.37595 -0.30339,0.40021 -0.7403,0.73975 -0.42481,0.32743 -0.94663,0.54572 -0.30342,0.14552 -0.5583,0.23039 -0.24276,0.0728 -0.44903,0.0728 -0.0607,0 -0.24277,0.0486 -0.16992,0.0486 -0.27912,0.0486 -0.69179,0 -1.25007,-0.58206 -0.55827,-0.5821 -0.55827,-1.29757 0,-0.29107 0.13348,-0.764 0.13351,-0.48505 0.13351,-0.56994 0,-0.0849 -0.0607,-0.13341 -0.0486,-0.0607 -0.14562,-0.0607 -0.0606,0 -0.29126,0.18192 -0.2306,0.18189 -0.65542,0.52143 -0.0364,0.0486 -0.0849,0.14553 -0.0486,0.097 -0.15777,0.21828 -0.0969,-0.27893 -0.21846,-0.55782 -0.1213,-0.29105 -0.26698,-0.55782 z m 5.83764,-2.21919 q -0.0607,0.0122 -0.18202,0.13339 -0.10924,0.1091 -0.21846,0.27889 -0.16993,0.27893 -0.38839,0.60635 -0.13351,0.14552 -0.29128,0.2304 -0.14564,0.0729 -0.33981,0.1091 -0.12134,0.0123 -0.25486,0.24258 -0.13351,0.21824 -0.26701,0.6427 -0.13352,0.37594 -0.19419,0.6427 -0.0607,0.26682 -0.0607,0.4487 0,0.33953 0.16991,0.50931 0.1699,0.1698 0.52189,0.1698 0.55825,0 1.01944,-0.30316 0.47333,-0.3153 0.88595,-0.93378 0.19421,-0.2304 0.36412,-0.43657 0.0969,-0.0727 0.15777,-0.2304 0.0605,-0.16978 0.12131,-0.41231 l 0.21844,-0.69123 q -0.10918,-0.36382 -0.20627,-0.56994 -0.0968,-0.21828 -0.19422,-0.26681 -0.0607,-0.0364 -0.26698,-0.0726 -0.20634,-0.0486 -0.59471,-0.0968 z"
           inkscape:connector-curvature="0" />
      </g>
    </g>
  </g>
</svg>
