<?xml version="1.0" encoding="UTF-8" standalone="no"?>
<svg
   xmlns:dc="http://purl.org/dc/elements/1.1/"
   xmlns:cc="http://creativecommons.org/ns#"
   xmlns:rdf="http://www.w3.org/1999/02/22-rdf-syntax-ns#"
   xmlns:svg="http://www.w3.org/2000/svg"
   xmlns="http://www.w3.org/2000/svg"
   xmlns:sodipodi="http://sodipodi.sourceforge.net/DTD/sodipodi-0.dtd"
   xmlns:inkscape="http://www.inkscape.org/namespaces/inkscape"
   width="750"
   height="200"
   version="1.1"
   id="svg3857"
   sodipodi:docname="logoheader.svg"
   inkscape:version="0.92.4 (5da689c313, 2019-01-14)">
  <metadata
     id="metadata3863">
    <rdf:RDF>
      <cc:Work
         rdf:about="">
        <dc:format>image/svg+xml</dc:format>
        <dc:type
           rdf:resource="http://purl.org/dc/dcmitype/StillImage" />
      </cc:Work>
    </rdf:RDF>
  </metadata>
  <defs
     id="defs3861" />
  <sodipodi:namedview
     pagecolor="#ffffff"
     bordercolor="#666666"
     borderopacity="1"
     objecttolerance="10"
     gridtolerance="10"
     guidetolerance="10"
     inkscape:pageopacity="0"
     inkscape:pageshadow="2"
     inkscape:window-width="1920"
     inkscape:window-height="1017"
     id="namedview3859"
     showgrid="false"
     inkscape:zoom="1.5146667"
     inkscape:cx="389.64288"
     inkscape:cy="192.12672"
     inkscape:window-x="-8"
     inkscape:window-y="-8"
     inkscape:window-maximized="1"
     inkscape:current-layer="g3902" />
  <g
     id="g3902">
    <path
       id="path3823"
       d="M497 86L498 87L498 98L500.056 99.1111L501.056 99.4722L503 99.5L503.972 99.25L504.917 98.8889L506.528 97.6944L507.722 95.9722L508.611 94L508.972 93L509.583 91L509.778 90L509.889 89L509.889 88L509.528 86L509.167 85L508.361 83L507.361 81L505.889 79.0833L504 77.5L503 76.9167L501 76.0278L499 75.4167L497 75.0833L495 75.0833L493 75.3889L492 75.6389L490 76.1667L489 76.4444L487 77.2778L485 78.3889L484 79.0278L482 80.4167L480.028 82.0833L479.083 83.0278L477.417 85L476.694 86L475.389 88L474.833 89L473.778 91L473.25 92L472.861 93L472.444 94L471.861 96L471.639 97L471.389 98L471.194 99L470.806 101L470.611 102L470.389 103L470.083 105L470 107L469.972 109L469.889 110L469.278 112L468.667 112.972L466.972 114.778L466 115.583L464 116.889L462.056 117.694L461.056 117.889L459 118L458.5 116.5L458.194 115.944L457.556 114L457.472 112L457.639 111L457.917 109L458.083 107L458.222 106L458.611 104L458.944 102L459.056 101L459.389 99L459.611 98L459.806 97L460.194 95L460.361 94L460.556 93.0278L460.75 91.2222L460.778 90.3889L460.917 89.6111L461.056 88.7778L461.361 86.9722L461.389 86L461.306 85L461.194 84.0556L461.028 82.5L461 81L460 80L457.944 80L456.944 80L455 79.8889L453 79.2778L451 77.9167L450 77.0833L448 75.7222L447 75.3333L445 75.1111L443 75.3889L442 75.6389L440 76.1667L439 76.4444L437 77.1944L436 77.6389L435 78.0556L433 79.0833L431 80.3889L429.083 81.8611L427.389 83.3889L426.611 84.2222L424.917 86.0278L423.083 88L422.25 89L421.472 90L420.167 91.9722L419.528 92.9167L417.917 94.5278L416 95.7222L415 96.1111L413 96.5L411.028 96.0278L410.111 95.5L408.639 93.9167L408.111 92.9722L407.333 91L406.667 89L406.306 88L405.917 87L404.917 85L403.583 83L401.917 81.0278L400.972 80.0833L399 78.4722L398 77.8611L397 77.2778L396 76.8611L395 76.4444L394 76.1667L392 75.6389L391 75.3889L389 75.0833L387 75.0833L385 75.3889L384 75.6389L383 75.8611L381 76.3889L379 77.0833L378 77.5556L377 78.0833L375 79.3333L373.028 80.6111L372.083 81.1944L370.472 82.4722L369.833 83.25L368.556 85.0278L367.222 87L366.611 88L365.694 90L365.333 91L364.667 93L364 95L363.694 96L363.417 97L363.056 99L362.944 100L362.778 101L362.389 103L362.111 105L362.111 106L362.222 106.944L362.417 107.944L363 110L361.5 110.5L360.944 110.833L359.944 111.25L359 111.778L358 112.222L357 112.75L356 113.167L354 113.972L352 114.611L351 114.861L349 115.361L348 115.611L346 115.944L345 116.056L343 116.389L342 116.611L340 116.917L339 116.972L337 117L336 117L334 117L332 117L330 116.972L329 116.917L327 116.611L326 116.389L324 116L322 115.528L320 114.75L319 114.222L318 113.778L317 113.222L316 112.75L314 111.528L313 110.75L311 108.972L309.111 107L308.306 106L307.083 104L306.167 102L305.75 101L305.25 100L304.389 98L303.694 96L303.417 95L303.222 94L303.083 93L303 91L303 90L303 89L303 86L303 83L303 81L303.028 79L303.083 78L303.389 76L303.611 75L304 73L304.417 71L304.694 70L305.389 68L305.806 67L306.639 65L307.056 64L308.056 62L308.639 61L309.75 59L310.25 58L311.389 56L312.694 54L313.417 53.0278L315.083 51.2222L317 49.6944L318 49.0278L319 48.3889L321 47.25L322 46.75L324 45.6111L326 44.4167L327 43.9167L328 43.5L329 43.25L330 43.0833L332 43L333 43L334 43L336 43.0833L337 43.25L338 43.5L339.972 44.5L341.778 46.0833L343.278 48L344.361 50L344.889 52L344.972 53L345 55L345 56L344.917 58L344.778 59L344.389 61L344.167 63L344.5 64.9722L345.5 66.75L346.25 67.5L348.028 68.5L349 68.75L351 68.9444L352 68.9167L353.972 68.5L355.778 67.5L357.278 65.9167L358.444 64L358.917 63L359.667 61L360 60L360.583 58L360.778 57L360.917 56L361 54L360.972 53L360.917 52L360.611 50L360.139 48L359.833 47L359.556 46L359.139 45L358.222 43L357.139 41L356.528 40L355.75 39L353.972 37.0278L352 35.25L351 34.4722L350 33.8611L349 33.2778L347 32.3889L345 31.6944L344 31.4167L343 31.1944L341 30.8056L339 30.3889L338 30.2222L337 30.0833L335 30L334 30L332 30.0833L331 30.2222L330 30.3889L328 30.8056L326 31.1944L325 31.4167L323 32L322 32.3333L321 32.6667L319 33.3889L317 34.25L316 34.7778L314 35.7778L313 36.25L312 36.8333L311 37.3889L309 38.6944L307 40.1389L306 40.8611L305 41.6389L303.083 43.2222L301.389 45.0278L299.806 47L298.194 49L297.417 50L296.694 51L295.389 53L294.833 54L294.25 55L293.778 56L293.25 57L292.389 59L292.028 60L291.667 61L291 63L290.333 65L290 66L289.389 68L288.861 70L288.639 71L288.361 72L288.139 73L287.861 74L287.389 76L287.222 77L287.083 78L286.972 80L286.917 81L286.611 83L286.389 84L286.083 86L286 88L286.083 90L286.389 92L286.611 93L286.917 95L287.083 97L287.389 99L287.639 100L288.139 102L288.389 103L289.028 105L289.389 106L290.25 108L290.778 109L291.222 110L291.778 111L292.222 112L292.778 113L293.25 114L294.472 115.972L295.25 116.917L297.028 118.611L298 119.361L300 120.861L301 121.611L302 122.306L304 123.611L305 124.167L306 124.75L307 125.222L308 125.75L310 126.611L311 126.972L312 127.333L314 128L316 128.667L317 129L319 129.583L321 129.917L323 130.083L324 130.222L326 130.611L328 130.917L329 130.972L331 131L332 131L334 130.972L335 130.917L337 130.611L338 130.389L340 130.083L342 129.972L343 129.917L345 129.611L347 129.194L349 128.806L350 128.611L352 128.139L353 127.861L354 127.611L356 127L358 126.333L360 125.667L361 125.333L363 124.611L365 123.944L367 123.972L368 124.389L370 125.778L371 126.528L372 127.139L373 127.722L375 128.611L376 128.972L378 129.667L380 130.306L381 130.583L383 130.889L384 130.889L386 130.611L387 130.361L389 129.861L390 129.611L391 129.306L393 128.611L394 128.167L395.972 127.139L396.917 126.528L397.778 125.75L398.611 124.917L400.222 123L401.056 122L401.944 121L403.528 119L404.722 117L405.167 116L405.611 115L406.333 113L406.667 112L407.333 110.056L407.556 109.5L408 108L415 108L416 109L416 113L416 115L416.083 117L416.222 118L416.639 120L416.889 121L417.611 123L418.722 124.917L420.222 126.583L421.083 127.306L422.028 127.972L423 128.583L425 129.528L426 129.833L428 130.361L430 130.75L431 130.833L432 130.75L433 130.583L435 129.972L436 129.611L438 128.722L439 128.139L440 127.528L441 126.75L442.889 125.028L443.694 124.056L444.222 123.5L445 122L447 122L447.694 123.5L448.083 124.056L449.417 125.917L451.083 127.528L452.028 128.139L454 129.222L456 130.139L458 130.667L459 130.694L461 130.306L463 129.611L464 129.167L466 128.222L467 127.75L468 127.139L469 126.528L470 125.75L471.889 124.028L472.694 123.056L473.222 122.5L474 121L476.056 123.056L478 124.972L479 125.917L481 127.5L482 128.083L483 128.583L485 129.306L486 129.583L488 130L490 130.389L491 130.611L493 130.917L494 130.944L495 130.917L497 130.611L499 130.194L501 129.806L502 129.583L504 129L505 128.667L507 127.917L509 126.944L510 126.361L511 125.806L512 125.194L513.944 124.056L514.5 123.694L516 123L516.25 124.5L516.722 126.056L517.111 127L517.639 127.972L519.111 129.667L520.028 130.25L521 130.583L522 130.667L523 130.556L525 129.972L526 129.583L527.972 128.5L529.75 126.917L530.5 125.972L531.583 124L531.972 123L532.667 121L533.333 119L534 117L534.306 116L534.611 115L535.194 113.056L535.639 112.056L535.861 111.5L537 110L536.889 108.333L537.333 106.778L538.222 104.972L538.778 104L539.222 103L539.778 102L540.25 101L541.472 99L543.083 97.0278L544.944 95.3333L546.5 94.3611L548 94L548.583 96.0556L548.889 98L548.889 99L548.611 101L548.389 102L548.194 103L547.806 105L547.611 106L547.139 108L546.861 109L546.639 110L546.389 111L546.083 113L546 115L546 116L546 117L546.028 119L546.083 120L546.417 122L546.722 123L547.111 124L548.306 125.972L549.111 126.917L551 128.5L552 129.083L553 129.583L555 130.306L556 130.583L557 130.778L559 130.889L561 130.583L562 130.306L564 129.667L566 128.972L567 128.611L568 128.167L569 127.722L571 126.528L573 125.056L575 124.056L576 124.056L577 124.444L578 125.139L580 126.972L582 128.694L583 129.361L584 129.889L586 130.583L587 130.778L589 130.889L591 130.611L592 130.361L594 129.833L595 129.556L596 129.139L597 128.722L598 128.139L599 127.556L601 126.167L601.944 125.472L602.944 124.917L603.5 124.528L605 124L605.333 125.5L605.639 126.056L606.111 127.028L607.417 128.694L609.083 129.889L611 130.5L613 130.5L614.917 129.889L615.75 129.361L617.139 127.889L618.167 126L618.972 124L619.333 123L620 121L621 118L623 112L623.667 110L624.028 109L624.389 108L625.25 106L625.778 105L626.222 104L626.778 103L627.25 102L628.389 100L629.694 98L630.417 97L632.028 95.1111L632.972 94.3056L633.5 93.7778L635 93L635.833 94.75L636.028 95.2778L637 96L636.278 97.5L636.222 98.0556L635.972 99.0556L635.611 101L635.389 102L635.056 104L634.944 105L634.611 107L634.139 109L633.861 110L633.639 111L633.389 112L633.083 114L633 116L633 117L633.083 119L633.417 121L633.694 122L634.417 124L635.5 125.972L637.083 127.75L638.028 128.5L640 129.583L641 129.972L643 130.583L644 130.778L645 130.889L646 130.889L648 130.611L649 130.361L650 130.139L652 129.611L654 128.917L656 127.917L657 127.306L659 126L660.944 124.694L661.944 124.083L662.5 123.694L664 123L664.528 124.5L665.5 125.972L667.083 127.583L669 128.889L670 129.389L672 130.111L673 130.361L675 130.75L676 130.833L678 130.611L679 130.389L681 130L682.944 129.583L685 129L683.75 130.5L682.556 132.028L680.917 133.778L679 135.389L678 136.222L677 137.083L675 138.917L673 140.611L672 141.389L670.028 143.083L669.083 144.028L667.389 146L665.861 148L665.139 149L663.639 151L662.861 152L661.444 154L660.861 155L660.25 156L659.778 157L659.25 158L658.389 160L657.694 162L657.389 163L657.139 164L656.861 165L656.389 167L656.222 168L656.083 169L656.083 171L656.417 173L657.083 175L658.083 176.917L658.722 177.778L659.417 178.583L660.222 179.306L662.028 180.583L664 181.583L665 181.972L666 182.306L667 182.583L669 182.889L670 182.889L672 182.611L673 182.361L674 182.139L676 181.528L678 180.528L679 179.833L679.972 179.139L681.778 177.611L682.583 176.778L684 174.972L685.333 173L686.611 171L687.167 170L687.75 169L688.222 168L688.75 167L689.167 166L689.611 165L690.389 163L691.194 161L691.611 160L692.333 158L692.667 157L693.333 155L694 153L694.611 151L694.861 150L695.389 148L695.694 147L696 146L696.583 144L697 142L697.194 141L697.611 139L697.944 137L698.056 136L698.389 134L698.611 133L698.806 132L699.194 130L699.389 129L699.611 128L699.944 126L700.056 125L700.389 123L700.611 122L700.806 121L701.194 119L701.389 118L701.611 117L701.917 115L702.083 113L702.389 111L702.611 110L702.944 108L703.056 107L703.389 105L703.611 104L703.944 102L704.056 101L704.389 99L704.611 98L704.944 96L705.056 95L705.389 93L705.806 91L706.194 89L706.389 88L706.611 87L706.889 85L706.861 84L706.667 83.0278L706.278 82.1111L704.889 80.7222L703 80.1111L702 80.0278L700 79.8889L698.028 79.2778L697.083 78.6944L695.389 77.2222L694.611 76.5L692.917 75.5L691 75.1111L689 75.2222L688 75.4167L687 75.6944L685 76.3333L683 77.0278L682 77.3889L680 78.25L678 79.25L676 80.4722L675 81.25L673 82.9444L671.083 84.6111L669.472 86.2222L668.833 87.0833L667.611 89L666.389 91L665.278 93L664.389 95L664.028 96L663.667 97L663.333 98L662.667 100L662 102L661.694 103L661.417 104L661.083 106L660.889 108L660.278 110L658.889 112L657.972 113L657 114L655 115.889L654 116.667L652 117.556L651 117.556L650.028 117.25L648.333 115.889L647.333 114L647.111 113L647.083 111L647.389 109L647.611 108L647.778 107L648.056 105L648.389 103L648.611 102L648.944 100L649.056 99L649.389 97L649.611 96L649.806 95L650.194 93L650.389 92L650.611 91L650.917 89L650.972 88L651 86L651 84L651 83L650.917 81L650.5 79.0278L650.056 78.0833L648.75 76.5L646.972 75.5L645 75.1667L643 75.3889L642 75.6389L640 76.1667L638 76.8611L637 77.2778L635 78.4722L634 79.25L633 80.0833L631 82L629.028 84L628.083 85L626.417 87L625.028 89L624.389 90L623.25 92L622.778 93L622.25 93.9444L621.833 94.9444L621.5 95.5L621 97L619.861 95.5L619.306 93.9444L619.194 93L619.389 91L619.861 89L620.139 88L620.361 87L620.639 86L620.861 85L621.139 84L621.611 82L621.917 80L621.972 79.0556L622 78.0556L622 76L619.944 75.4167L618.944 75.25L618 75.1667L616 75.4167L615 75.6944L614 76.0278L613 76.4167L611.083 77.5L609.5 79.0833L608.944 80.0278L608.472 81L607.861 83L607.611 84L607.306 85L606.694 87L606.417 88L606.056 90L605.944 91L605.778 92L605.389 94L605.083 96L605.028 97L605 98L605 100L604.972 101L604.917 102L604.611 104L604.389 105L603.972 107L603.361 109L602.889 110L601.583 112L599.917 113.917L598.972 114.778L597 116.278L595 117.361L593.056 117.889L591.5 118L590 118L589 117L588.972 115.5L588.778 113.944L588.389 112L588.25 111L588.167 110L588.389 108L588.611 107L588.778 106L588.944 105L589.056 104L589.389 102L589.611 101L590 99L590.389 97L590.611 96L590.806 95L591.194 93L591.389 92L591.611 91L592 89L592.389 87L592.611 86L592.917 84L592.972 83L593 81L593 80.0556L593 77L591.5 76.1944L590.944 76.0278L589 75.4444L588 75.3056L586 75.4444L584.028 76.1111L583.083 76.6389L581.5 78.1111L580.472 80L579.861 82L579.639 83L579.139 85L578.639 87L578.389 88L578.194 89L577.806 91L577.611 92L577.389 93L577.194 94L576.806 96L576.611 97L576.222 99L576.083 100L575.917 102L575.611 104L575.389 105L574.972 107L574.694 108L574.278 109L573.667 110L572.889 111L571 113L570 114L568 115.889L567 116.667L566 117.278L565 117.667L564.056 117.889L562.5 118L561 118L560 117L560 114.944L560 113.944L560 113L560.083 111L560.194 110L560.472 108L560.722 106L561.056 104L561.278 103L561.611 101L561.833 99L561.944 98L562.361 96L562.611 95L562.944 93L563.056 92L563.389 90L563.611 89L563.917 87L563.972 86L564 85L564 83L563.889 81L563.278 79.0278L561.889 77.25L560.972 76.5L559 75.5L557 75.1667L555 75.4167L554 75.6944L552 76.3889L551 76.8333L550 77.2778L548 78.4444L547 79.1667L546.028 79.8611L544.222 81.3889L543.417 82.2222L542 84.0278L540.583 86L539.028 88L538.278 89L537 91L536.417 92L535.778 93L534.472 95L533.417 97L533.028 97.9444L532.444 99.5L532 101L530.861 99.5L530.278 97.9444L530.056 96L530.083 95L530.5 93L531.417 91L532.028 90L533.389 88L534.139 87L535.639 85L536.389 84L537.194 83L538.806 81L540.389 79L541.222 78L543 76L543.917 75L545.528 73L546.806 71L547.389 70L548.611 68L549.194 67L550.389 65L551.611 63L552.167 62L552.75 61L553.222 60L554.222 58L554.778 57L555.222 56L555.778 55L556.222 54L556.75 53L557.556 51L557.833 50L558.361 48L558.639 47L558.861 46L559.139 45L559.611 43L559.917 41L559.972 40L560 39L560 37L560 35L560 34L559.917 32L559.528 30L558.806 28L558.361 27L557.361 25L556.694 24.0278L554.972 22.25L554 21.4722L552 20.2778L550 19.4722L548 19.1667L547 19.25L546 19.4167L544 20.0278L543 20.4167L541 21.4722L540 22.1667L539.028 22.8611L537.222 24.3889L535.639 26L534.139 27.6111L533.389 28.3889L532.028 30.0833L531.389 31.0278L530.306 33L529.611 34.9167L529.389 35.7778L529.222 36.6111L528.667 38.2222L528.222 39.0833L527.389 41L527.028 42L526.667 43L526 45L524.667 49L523.667 52L523.333 53L522.694 55L522.389 56L521.861 58L521.639 59L521.389 60L521.194 61L520.806 63L520.611 64L520.389 65L520.194 66L519.806 68L519.611 69L519.389 70L519.056 72L518.944 73L518.778 74L518.389 76L518.083 78L518.028 79L517.917 81L517.611 83L517.25 85L517.167 86L517.361 88L517.528 89L517.444 91L517.139 92L516.472 94L516.083 96L516 98L516 100L516 103L516 104L515.889 106L515.278 108L514.667 108.972L512.972 110.778L512 111.583L510 112.972L509 113.611L507 114.75L506 115.25L504 116.361L502 117.361L500 117.889L499 117.972L497 118L496 118L494 117.917L492 117.5L491 117.056L490 116.5L488.111 114.917L486.694 113L485.889 111L485.639 110L485.222 108L485.083 107L485 105L485 104L485 103L485.083 101L485.333 99.0278L485.472 98.0833L485.722 96.3889L486.111 94.7778L486.444 93.9167L486.889 92.9722L488.028 91L488.694 90.0278L489.417 89.1111L491.083 87.6389L493 86.7222L493.944 86.4167L494.944 86.2222L495.5 86.0833L497 86M32 57L32.0833 58.6667L31.5 60.2222L30.3889 62.0278L29.25 64L28.7778 65L28.25 66L27.8333 67L27.3889 68L27.0278 69L26.6667 70L26 72L25.3333 74L25 75L24.3889 77L23.8611 79L23.6389 80L23.1389 82L22.6389 84L22.3889 85L22.0833 87L21.9167 89L21.7778 90L21.3889 92L21.2222 93L21.0833 94L21 96L21 97L21.0278 99L21.0833 100L21.3889 102L21.6111 103L21.8056 104L22.1944 106L22.4167 107L23 109L23.3333 110L24.0278 112L24.3889 113L25.2778 115L25.8611 116L26.4444 117L27.1667 118L28.6389 120L30.2222 122L31.0833 122.972L32.0278 123.917L34 125.583L36 126.917L37 127.444L38 127.917L40 128.583L41 128.806L43 129.278L44 129.611L46 130.389L48 130.889L49 130.972L51 130.917L52.9722 130.556L53.9167 130.25L55.6111 129.778L56.3889 129.639L58.0833 129.25L60 128.583L61 128.083L62 127.528L64 126.139L65 125.361L66 124.611L67.9167 122.917L68.7778 121.972L69.5833 121L70.3056 120L71 119L72.4167 117.083L74.0278 115.472L76 114L76.4444 115.5L76.6667 116.056L77.3889 118L77.8333 119L78.2778 120L78.8333 121L79.3889 122L80.6944 123.917L82.2222 125.611L83.0833 126.361L84.0278 127.111L86 128.333L88 129.139L89 129.444L91 130.167L92 130.528L94 130.917L96 130.917L97.9722 130.556L98.9167 130.25L99.7778 130.028L100.611 129.778L101.389 129.639L103.083 129.25L104.028 128.972L105 128.667L107 127.889L108.972 126.694L109.889 125.944L111.222 124.5L112 123L113.972 124.472L115.528 126.056L116.833 127.778L117.472 128.583L118.25 129.278L119.083 129.889L121 130.583L122.972 130.333L123.917 129.889L125.528 128.583L126.722 126.917L127.611 125L128.306 123L128.861 121L129.444 119L130.194 117L130.611 116L131.333 114L131.667 113L132 112L133 109L133.333 108L134.028 106L134.417 105L135.417 103L136.611 101L137.833 99L138.472 98L140.083 96.0278L140.972 95.1111L141.944 94.3056L142.5 93.7778L144 93L144.583 95.0556L144.944 97L145.25 98.9444L145.278 99.5L146 101L145.028 101.778L144.889 102.306L144.5 103.056L144.361 104.5L145 106L144.028 106.778L143.528 108.111L143.5 109.944L144 112L142.861 112.778L142.667 113.306L142.278 114.111L142.111 115.028L142.028 116L142.083 118L142.472 120L142.833 121L143.639 123L144.083 124L145.306 126L147.028 127.889L148 128.694L149 129.361L150 129.889L151 130.278L152 130.583L154 130.917L156 130.889L157 130.694L159 130L160 129.583L161 129.222L163 128.611L165 127.889L166 127.361L168 125.917L169 125.083L170.944 123.722L172.5 123.111L174 123L174.528 124.5L175.5 125.972L177.083 127.5L179 128.611L181 129.528L182 129.972L183 130.389L185 130.806L187 130.528L188 130.167L189 129.833L190 129.444L192 128.833L193 128.528L195 127.5L196.889 125.972L197.694 125.028L198.222 124.5L199 123L200 124L202 123L202.667 124.5L203.389 126L203.667 126.5L204 128L205.25 127.917L206.444 128.306L208.083 129.139L210 129.972L211 130.306L212 130.583L214 130.833L216 130.611L217 130.361L219 129.75L220 129.333L221.944 128.167L222.944 127.444L225 126L224.639 127.5L223.667 129.056L222.889 130L221.972 131L220 133L219 134L218 135L216 136.917L214 138.583L213 139.306L211 140.694L210 141.417L208.083 143.083L206.389 145L204.861 147L204.139 148L202.639 150L201.861 151L201.167 152L200.444 153L199.25 155L198.75 156L198.167 157L197.083 159L196.611 160L195.861 162L195.556 163L194.833 165L194.472 166L194.083 168L194.028 170L194.083 171L194.472 173L195.278 175L196.472 176.972L197.25 177.917L199.028 179.528L200 180.139L202 181.222L203 181.75L205 182.528L207 182.889L208 182.889L210 182.528L212 181.75L213 181.222L215 180.222L217 179.139L218 178.528L219.917 176.917L221.583 175L222.306 174L223.611 172L224.167 171L225.222 169L225.778 168L226.222 167L226.75 166L227.611 164L227.972 163L228.667 161L229.389 159L230.194 157L230.611 156L231.333 154L232 152L232.333 151L232.972 149L233.25 148.056L233.333 147.056L233.472 146.5L233 145L234.111 144.222L234.472 142.944L234.611 142.472L234 141L236 140L235.667 138.5L235.611 136.944L235.889 135L236.361 133L236.611 132L236.944 130L237.056 129L237.389 127L237.611 126L237.944 124L238.056 123L238.389 121L238.611 120L238.944 118L239.056 117L239.389 115L239.611 114L239.778 113L240.056 111L240.389 109L240.806 107L241.194 105L241.389 104L241.611 103L241.806 102L242.194 100L242.389 99L242.611 98L242.944 96L243.056 95L243.389 93L243.778 91L244.056 89L244.389 87L244.611 86L244.778 85.0556L244.972 83.5L245 82L243.5 81.0278L241.944 80.4444L240 80.0833L238 79.8889L236 79.2778L234 77.9167L233 77.0833L231 75.7222L229 75.1944L228 75.25L226 75.6389L224 76.1389L222 76.6944L220 77.3889L219 77.8333L218 78.2778L216 79.4444L214 80.8611L213 81.6389L211 83.1389L210.028 83.8611L208.306 85.3889L207.028 87.0833L206.472 88.0278L205.944 89L204.833 91L204.25 92L203.222 94L202.778 95L202.25 96L201.389 98L201.028 99L200.389 101L200.139 102L199.639 104L199.389 105L199.056 107L198.667 109L198.278 110L196.917 112L196.056 113L194.5 114.944L193.528 116.5L193 118L190.944 118.028L190 118.056L189.056 118.25L188.5 118.278L187 119L186 117L185 117L186 115L184.861 113.5L184.278 111.944L184.139 111L184.278 109.056L184.861 107.5L186 106L185.694 103.944L185.611 102.944L185.611 102L185.694 101L186 99L186.389 97L186.611 96L186.806 95L187.194 93L187.389 92L187.611 91L187.806 90L188.194 88L188.611 86L188.917 84L189 82L189 80.0556L189 77L186.944 75.8611L185.944 75.4444L184 75.1667L182 75.5L180.028 76.5L178.306 78.0833L177.111 80L176.694 81L176 83L175.389 85L175.139 86L174.861 87L174.389 89L174.194 90L173.806 92L173.611 93L173.361 94L173.139 95L172.861 96L172.639 97L172.222 99L172.083 100L171.917 102L171.611 104L171.389 105L171.222 106L171.056 107L170.667 109L170.278 110L168.889 112L167 114L166 114.972L164 116.667L163 117.278L161 117.778L160 117.639L159.028 117.278L158.111 116.667L156.722 114.972L156.139 113L156.111 112L156.361 110L156.556 109.056L156.528 108.056L156.639 107.5L156 106L156.972 105.222L157.111 104.694L157.5 103.944L157.639 102.5L157 101L158 101L159 99L158.861 97L159.083 96L159.111 95.5L160 94L159.889 91.9444L160.222 90L160.528 88L160.528 87L160.222 85L160.028 83L159.917 81L159.5 79.0278L158.5 77.3056L156.917 76.1111L155.972 75.7222L154 75.3056L152 75.4444L151 75.6944L149 76.3889L148 76.8333L146 77.8611L145 78.4722L143 80.0833L141 82L140 83L139 83.9722L138.028 84.9167L136.222 86.6111L135.417 87.3889L134.083 89.0833L133.556 90.0278L132.639 92L132.194 93L131.389 95L130.667 96.9444L130.444 97.5L130 99L128 99L127.694 96.9444L127.611 95.9444L127.611 95L127.694 94L128 92L128.417 90L129 88L129.611 86L129.861 85L130.361 83L130.611 82L130.889 80L130.861 79L130.278 77.1111L129.667 76.3333L127.972 75.3611L127 75.1944L125 75.4167L123 76.1111L122.028 76.6389L120.25 78.1111L118.917 80L118.028 82L117.694 83L117.139 85L116.861 86L116.639 87L116.361 88L116.139 89L115.639 91L115.389 92L115.083 94L114.917 96L114.778 97L114.389 99L114.083 101L114.028 102L113.972 104L113.917 105L113.75 106L113.5 107L112.5 108.972L110.944 110.778L110.056 111.611L108.5 113.167L107.528 114.528L107 116L105.5 115.611L104.944 115.861L103 116.417L101 116.861L100 116.889L98 116.5L96.0833 115.5L94.4722 113.917L93.2778 112L92.4722 110L92.0833 108L92.0278 107L92 106L92 104L92 102L92 101L92.0278 99L92.0833 98L92.3889 96L92.6111 95L92.9444 93L93.0556 92L93.3889 90L93.6111 89L93.9444 87L94.0556 86L94.3889 84L94.6111 83L95 81L95.3333 79.0278L95.4722 78.0833L95.6389 77.2222L95.7778 76.3889L96.2222 74.7778L96.5 73.9722L96.5 73.0278L96.6389 72.5L96 71L98 70L97.6667 68.5L97.6111 66.9444L97.8889 65L98.3611 63L98.6389 62L98.8611 61L99.1389 60L99.5833 58L99.6944 57L99.4722 55.0833L98.5 53.5L96.9167 52.4167L95.9722 52.0278L94 51.4444L93 51.3056L92 51.3056L90 51.6389L88.0278 52.25L86.25 53.3333L85.5 54.1111L84.4722 56L84.1667 57L83.6389 59L83.1944 61L82.8056 63L82.6111 64L82.1389 66L81.8889 67L81.5 69L81.3333 69.9444L81.0278 70.9444L80.9167 71.5L80 73L80.1944 75.0556L80.0556 77L79.6389 79L79.3611 80L79.1389 81L78.6111 83L78.3056 84L78 85L77.6667 86L77 88L76 91L75.6667 92L75.3333 93L74.6111 95L74.1667 96L73.7222 97L73.1667 98L72.6111 99L71.3889 101L70.8333 102L70.2778 103L69.3611 105L68.9444 106L67.9167 108L66.5833 110L65.7778 110.972L64.9167 111.889L63 113.361L62 113.917L60 114.833L59 115.25L57 116.139L56 116.528L54 116.917L52 116.972L50 116.694L48 115.889L47 115.278L45 113.778L44 112.917L42.0833 111L40.5 109L39.4167 107L39.0278 106L38.4167 104L38.0833 102L37.9167 100L37.6111 98L37.4167 97L37.3056 96L37.3056 95L37.6111 93L37.9167 91L37.9722 90L38.0278 88L38.0833 87L38.3889 85L38.8056 83L39.1944 81L39.4167 80L39.6944 79L40.3889 77L41.25 75L41.7778 74L42.2222 73L42.7778 72L43.75 70L44.1667 69L44.6111 68L45.4167 66L46.4167 64L47.6944 62L48.4167 61L50.0833 59L52 57L53 56L55 54.0833L57 52.4167L58 51.6944L60 50.3333L61.9722 49.0556L62.9167 48.5L64.6111 47.8056L66.2222 47.3889L68.0278 46.7778L70 46.0278L72 45.3889L74 44.8611L75 44.6389L76 44.3889L78 44.0833L80 44L81 44L84 44L87 44L88 44L90 44.0278L91 44.0833L93 44.3889L94 44.6111L96 44.9444L97 45.0556L98 45.1944L99.9167 45.4722L100.778 45.6111L101.611 45.7222L103.222 46.0833L105.028 46.5L107 46.5L108.944 45.9722L109.5 45.8056L111 45L111.083 43.5L111.389 41.9444L111.611 41L111.889 39L111.861 38L111.667 37.0278L111.278 36.0833L109.889 34.5L108 33.4167L107 33.0278L105 32.4167L103 32L101 31.6111L100 31.4167L99 31.2778L98 31.2222L96 31.1389L95 30.9444L94 30.75L93 30.4444L91 30.0833L90 30.0278L89 30L87 30L85 30L84 30.0278L83 30.0833L81 30.4167L79 30.9167L78 31.0833L77 31.1944L75 31.2222L73 31.4167L72 31.6389L70 32.1389L69 32.3889L67 33L65 33.6667L63 34.3889L62 34.8056L60 35.6111L59 36L57 36.8333L56 37.2778L55 37.8333L53 39L51 40.1944L50 40.8333L49 41.4444L48 42.1389L46.0278 43.4167L45.0833 44L43.3889 45.3056L41.7778 47.0278L40.9167 48L39.9722 49L38.0833 51L37.2222 52L36.3889 53L34.8333 54.8889L33.9722 55.6944L33.4722 56.2222L32 57z"
       style="fill:#8de7e4; stroke:none;" />
    <path
       id="path3825"
       d="M544 30L542.944 31.5L542.611 32.0556L541.972 33.0556L540.889 35L540 37L539.611 38L538.833 40L538.444 41L538.167 42L537.611 44L537.306 45L536.694 47L536.417 48L536.194 49L535.833 51L535.528 52.9167L535.389 53.7778L535.306 54.6111L535.111 56.2222L534.806 58.0278L534.361 60L534.139 61L533.861 62L533.639 63L533.389 64L533.083 66L533 68L533.056 69.9444L533.25 70.9444L533.278 71.5L534 73L535.417 72.2222L535.833 71.6944L536.639 70.8889L537.306 69.9722L538.667 68C539.334 67.0186 539.975 66.0191 540.583 65L541.111 64L542 62L542.889 60L544 58L544.611 57L545.167 56L545.722 55L546.167 54L546.611 53L547.306 51L547.611 50L547.861 49L548.361 47L548.611 46L548.917 44L549 42L549 40L549 38L549 37L549 36L548.889 34L548.278 32.1111L546.944 30.7222L546.028 30.3333L544 30z"
       style="fill:#f8f8f8; stroke:none;" />
    <path
       id="path3827"
       d="M197 61L196 59L198 58L197.5 56.5L197.167 55.9444L196.722 54.9444L195.528 53.0833L194.75 52.25L192.972 50.8611L191 49.8611L190 49.4722L188 49.1667L186 49.4167L185 49.6944L184 50.0278L183 50.4167L181.083 51.5L179.5 53.0833L178.917 54.0278L178.417 55L177.778 57L177.611 59L177.917 61L178.694 62.9722L180.111 64.6667L181.028 65.3056L183 66.1111L184 66.3611L186 66.6944L188 66.5556L190 65.9722L191 65.5833L193 64.5L193.944 63.8056L195.5 62.4722L197 61M590 49.4444L589 49.6944L587 50.4167L586 50.9167L585.028 51.5L584.083 52.25L583.222 53.0833L581.722 55L580.667 57L580.417 58L580.417 59L581.028 61L582.028 62.9167L582.611 63.75L583.306 64.5L585.028 65.5278L587 66.1389L588 66.3333L589 66.5278L591 66.5278L592 66.3333L594 65.8333L595 65.5278L596.972 64.5L597.889 63.75L599.278 61.9722L599.889 60L599.972 59L600 58L599.972 56L599.889 55L599.667 54.0278L599.278 53.0833L597.889 51.5L596.972 50.9167L596 50.4167L594 49.6944L593 49.4444L592 49.3056L590 49.4444z"
       style="fill:#8de7e4; stroke:none;" />
    <path
       id="path3829"
       d="M533 72L534 73L533 72z"
       style="fill:#9884c1; stroke:none;" />
    <path
       id="path3831"
       d="M228 99L229.139 98.2222L229.667 96.9444L229.639 96.0278L229.694 95.5L229 94L230.111 93.2222L230.278 92.6944L230.611 91.8889L230.972 90.0556L231.417 88.5L232 87L230.5 86.2778L228.944 86.0833L227 86.25L226 86.4722L224 87.2778L223 87.8611L222 88.4722L220.083 90.0833L218.417 92L217.694 93L216.389 95L215.278 97L214.833 98L214.389 99L213.694 101L213.139 103L212.639 105L212.389 106L212.083 108L212 110L212.028 112L212.083 113L212.5 115L212.944 115.972L213.5 116.889L215.083 118.278L217 118.889L219 118.917L220.972 118.5L221.917 118.056L223.583 116.75L224.278 115.917L224.917 114.972L225.917 113L226.306 112L227 110L227.306 109L227.611 108L227.861 107L228.361 105L228.611 104L228.861 102.056L228.722 100.5L228 99M448 87L447 86L445.5 86.0833L443.944 86.4722L443 86.8333L441 87.6389L440 88.0833L438.028 89.3056L437.083 90.1111L435.472 92L434.25 94L433.778 95L432.778 97L431.778 99L431.25 100L430.444 102L430.167 103L429.639 105L429.389 106L429.083 108L429.028 109L429 110L429.028 112L429.083 113L429.5 114.972L429.944 115.917L431.25 117.5L432.083 118.056L433.028 118.5L435 118.889L437 118.667L438 118.278L439.889 116.889L441.361 115L441.889 114L442.667 112L443.306 110L443.583 109L443.806 108L444.194 106L444.611 104L445 102L445.194 101L445.389 100L445.861 98L446.139 97L446.611 95L446.806 94L447.194 92L447.389 91L447.778 89.0556L447.917 88.5L448 87M692 86L690.5 86.0833L688.944 86.4722L687 87.2778L685 88.3889L684 89.0278L682.083 90.4167L681.25 91.2222L680.472 92.0833L679.861 93.0278L679.25 94L678.778 95L677.778 97L677.25 98L676.389 100L675.694 102L675.417 103L675.056 105L674.944 106L674.611 108L674.389 109L674.111 111L674.111 112L674.417 114L675.111 115.917L676.306 117.5L677.111 118.056L679 118.75L680 118.889L682 118.667L683 118.278L684.917 116.889L686.528 115L687.722 113L688.556 111L688.833 110L689.139 109L689.361 108L689.806 106L690 105L690.389 103L690.611 102L690.806 101L691.194 99L691.389 98L691.611 97L692 95L692.389 93L692.611 92L692.889 90L692.917 89.0556L692.75 88.0556L692.722 87.5L692 86M387 88L385.5 88.0833L384.944 88.25L383.944 88.4722L382.028 89.2778L380.25 90.4722L379.472 91.25L378.278 93.0278L377.861 94L377.167 96L376.639 98L376.389 99L376.083 101L376.028 102L376 104L376 106L376 107L376.083 109L376.25 110L376.472 111L376.861 112L377.278 113L378.472 114.917L380.083 116.5L382 117.5L383 117.75L385 117.972L387 117.917L388.972 117.5L389.917 117.056L390.778 116.5L391.583 115.75L392.972 113.972L393.583 113L394.5 111L394.917 109L394.944 108L394.889 107L394.278 105L393.694 104L392.222 102L391.472 101L390.278 99L389.444 97L389.167 96L388.861 95L388.389 93L388.028 91.0556L387.778 90.0556L387.722 89.5L387 88z"
       style="fill:#000000;stroke:none" />
    <path
       id="path3833"
       d="M387 88L388 89L387 88z"
       style="fill:#a490c9; stroke:none;" />
    <path
       id="path3835"
       d="M128 98L129 99L128 98z"
       style="fill:#ae9ccc; stroke:none;" />
    <path
       id="path3837"
       d="M515 123L516 124L515 123z"
       style="fill:#bba4cf; stroke:none;" />
    <path
       id="path3839"
       d="M604 124L605 125L604 124z"
       style="fill:#ba9fcd; stroke:none;" />
    <path
       id="path3841"
       d="M224.333 126.667L224.333 127.333L224.667 127.333L224.667 127L224.333 126.667z"
       style="fill:#864dc6; stroke:none;" />
    <path
       id="path3843"
       d="M686 127L687 128L686 127z"
       style="fill:#b272d4; stroke:none;" />
    <path
       id="path3845"
       d="M685 128L686 129L685 128z"
       style="fill:#a65dce; stroke:none;" />
    <path
       id="path3847"
       d="M682 131L683.75 130.333L684.278 130.139L685 129L683.25 129.667L682.722 129.861L682 131z"
       style="fill:#ac6ecd; stroke:none;" />
    <path
       id="path3849"
       d="M219 144L215.944 147.056L215 148L213.028 150L212.083 151L210.444 152.944L209.25 154.5L208 156L208.083 157.667L207.5 159.222L206.417 161.028L205.5 163L205.25 164L205.028 166L205.111 168L205.333 168.972L205.722 169.889L207.111 171.278L209 171.778L211 171.278L212.972 169.889L214.75 168L215.528 167L216.722 165L217.611 163L218.25 161.028L218.611 159.222L218.722 158.389L219.083 156.778L219.667 154.972L220 154L220.667 152L221 151L221.556 149L221.667 148L221.583 147.028L220.722 145.306L220.389 144.778L219 144z"
       style="fill:#f8f8f8; stroke:none;" />
    <path
       id="path3851"
       d="M221 144L222 145L221 144z"
       style="fill:#9a7fc5; stroke:none;" />
    <path
       id="path3853"
       d="M683 144L684 145L683 144z"
       style="fill:#ba86cc; stroke:none;" />
    <path
       id="path3855"
       d="M684 146L683 145L681.5 145.278L679.944 145.944L679 146.5L677.083 148.083L675.417 150L674 152L672.667 154L671.333 156L670.667 157L669.417 159L668.417 161L667.694 163L667.417 164L667.083 166L667.056 167L667.333 168.972L667.722 169.889L668.333 170.667L670.028 171.639L671 171.778L672 171.639L673 171.278L674.917 169.889L675.75 168.972L676.528 168L677.75 166L678.222 165L679.167 163L679.611 162L680.306 160L680.611 159L681.139 157L681.389 156L681.694 155L682.306 153L682.611 152L682.861 151L683.139 150L683.361 149.056L683.75 147.5L684 146z"
       style="fill:#f8f8f8; stroke:none;" />
    <path
       style="opacity:1;fill:#000000;fill-opacity:0.81909551;stroke:none;stroke-width:0.5440141;stroke-miterlimit:4;stroke-dasharray:none"
       d="m 533.35086,70.394282 c -0.21072,-1.053591 -0.13601,-3.356078 0.16602,-5.116637 2.24143,-13.065626 3.61377,-19.423351 5.21346,-24.152737 1.90387,-5.628697 4.90206,-11.068528 6.10047,-11.068528 0.37507,0 1.41118,0.729234 2.30246,1.620519 1.47079,1.470792 1.62052,2.148235 1.62052,7.332079 0,3.141358 -0.4553,7.468626 -1.01178,9.616151 -1.76305,6.803817 -11.12264,23.684773 -13.13195,23.684773 -0.48184,0 -1.04848,-0.862029 -1.2592,-1.91562 z"
       id="path3904"
       inkscape:connector-curvature="0" />
    <path
       style="opacity:1;fill:#000000;fill-opacity:0.81909551;stroke:none;stroke-width:0.5440141;stroke-miterlimit:4;stroke-dasharray:none"
       d="m 668.74719,170.6285 c -1.39304,-0.81137 -1.60171,-6.11932 -0.35359,-8.99396 1.5391,-3.54479 8.40591,-13.28532 10.33335,-14.65778 2.57076,-1.83054 4.70994,-1.82893 4.70994,0.004 0,2.43884 -4.01752,15.33474 -5.80855,18.64497 -2.73868,5.06168 -5.81007,6.79196 -8.88115,5.00322 z"
       id="path3906"
       inkscape:connector-curvature="0" />
    <path
       style="opacity:1;fill:#000000;fill-opacity:0.81909551;stroke:none;stroke-width:0.5440141;stroke-miterlimit:4;stroke-dasharray:none"
       d="m 206.53657,170.13424 c -1.50119,-1.6588 -1.39104,-6.18286 0.22778,-9.35603 0.72624,-1.42353 1.32043,-3.15758 1.32043,-3.85345 0,-0.69587 2.52115,-3.90147 5.60255,-7.12357 5.35541,-5.59994 5.64665,-5.80183 6.60211,-4.57681 1.3034,1.67111 1.26146,2.89605 -0.28034,8.18902 -0.70394,2.41662 -1.75872,6.125 -2.34394,8.24085 -1.98821,7.18825 -8.08988,11.83773 -11.12859,8.47999 z"
       id="path3908"
       inkscape:connector-curvature="0" />
  </g>
</svg>
