<?xml version="1.0" encoding="UTF-8" standalone="no"?>
<!-- Created with Inkscape (http://www.inkscape.org/) -->

<svg
   xmlns:dc="http://purl.org/dc/elements/1.1/"
   xmlns:cc="http://creativecommons.org/ns#"
   xmlns:rdf="http://www.w3.org/1999/02/22-rdf-syntax-ns#"
   xmlns:svg="http://www.w3.org/2000/svg"
   xmlns="http://www.w3.org/2000/svg"
   xmlns:sodipodi="http://sodipodi.sourceforge.net/DTD/sodipodi-0.dtd"
   xmlns:inkscape="http://www.inkscape.org/namespaces/inkscape"
   width="196.9315mm"
   height="34.831947mm"
   viewBox="0 0 196.9315 34.831947"
   version="1.1"
   id="svg8"
   inkscape:version="0.92.4 (5da689c313, 2019-01-14)"
   sodipodi:docname="logo.svg">
  <defs
     id="defs2" />
  <sodipodi:namedview
     id="base"
     pagecolor="#ffffff"
     bordercolor="#666666"
     borderopacity="1.0"
     inkscape:pageopacity="0.0"
     inkscape:pageshadow="2"
     inkscape:zoom="0.7"
     inkscape:cx="823.1596"
     inkscape:cy="204.75889"
     inkscape:document-units="mm"
     inkscape:current-layer="g4609"
     showgrid="false"
     inkscape:window-width="1920"
     inkscape:window-height="1017"
     inkscape:window-x="-8"
     inkscape:window-y="-8"
     inkscape:window-maximized="1"
     fit-margin-top="0"
     fit-margin-left="0"
     fit-margin-right="0"
     fit-margin-bottom="0" />
  <metadata
     id="metadata5">
    <rdf:RDF>
      <cc:Work
         rdf:about="">
        <dc:format>image/svg+xml</dc:format>
        <dc:type
           rdf:resource="http://purl.org/dc/dcmitype/StillImage" />
        <dc:title></dc:title>
      </cc:Work>
    </rdf:RDF>
  </metadata>
  <g
     inkscape:label="Layer 1"
     inkscape:groupmode="layer"
     id="layer1"
     transform="translate(-2.4580151,-73.193033)">
    <g
       aria-label="Gina Mastrangelo
"
       transform="matrix(0.26458333,0,0,0.26458333,37.295226,-53.142014)"
       style="font-style:normal;font-variant:normal;font-weight:normal;font-stretch:normal;font-size:40px;line-height:1.25;font-family:Mistral;-inkscape-font-specification:Mistral;letter-spacing:0px;word-spacing:0px;fill:#000000;fill-opacity:1;stroke:none"
       id="flowRoot10">
      <g
         id="g4609"
         transform="matrix(5.4658809,0,0,5.4658809,-592.32704,-1548.4278)">
        <path
           id="path4539"
           style="fill:#ffffff;fill-opacity:1;stroke-width:0.59544653"
           d="m 92.803564,371.58955 q 0.267483,0.0815 0.546601,0.18608 0.279118,0.0931 0.5466,0.19771 0.09295,0.0466 0.279129,0.25586 0.197695,0.20934 0.500072,0.59311 0.33727,0.40705 0.395423,0.5466 0.06987,0.12793 0.255858,0.65128 0.12793,0.1977 0.32563,0.72104 0.20933,0.51172 0.20933,0.74431 0,0.41867 -0.628006,1.02342 -0.628012,0.59312 -0.98853,0.59312 -0.232611,0 -0.348906,-0.13955 -0.104649,-0.15119 -0.104649,-0.4303 -0.104649,-0.4652 -0.162812,-0.80246 -0.325636,-1.26764 -0.872236,-1.90729 -0.534976,-0.63964 -1.314166,-0.63964 -0.395412,0 -0.7792,0.13956 -0.372164,0.12793 -0.686165,0.39541 -0.162823,0.12793 -0.430306,0.43029 -0.267472,0.30239 -0.639626,0.75595 -0.04648,0.0815 -0.12794,0.18608 -0.08146,0.10465 -0.197706,0.2791 -0.10466,0.19771 -0.279112,0.47683 -0.162819,0.26748 -0.407042,0.61638 -0.10467,0.30238 -0.209341,0.55824 -0.10467,0.25586 -0.255851,0.47682 -0.03488,0.0466 -0.06978,0.18608 -0.03489,0.12794 -0.08141,0.34889 -0.08141,0.26749 -0.186078,0.58148 -0.09304,0.31402 -0.209336,0.68618 -0.186076,1.26764 -0.267486,2.01194 -0.0814,0.73269 -0.0814,0.95365 0,0.50008 0.0814,1.00017 0.09304,0.50009 0.279116,1.00016 0.139555,0.36052 0.267487,0.61638 0.127925,0.25586 0.244222,0.37216 0.174447,0.17444 0.441934,0.26749 0.267487,0.0931 0.593125,0.0931 0.465186,0 0.883857,-0.16282 0.418671,-0.16281 0.7792,-0.45356 0.104756,-0.0931 0.418671,-0.41869 0.314012,-0.33726 0.848988,-0.90711 0.116252,-0.0929 0.279107,-0.25585 0.174447,-0.17446 0.372153,-0.38379 0.220965,-0.30238 0.407037,-0.60476 0.197717,-0.30237 0.395423,-0.58148 0.244224,-0.31401 0.534965,-0.4652 0.302377,-0.15119 0.651282,-0.15119 0.476824,0 0.709413,0.20934 0.2326,0.20935 0.2326,0.62801 0,0.13956 -0.08146,0.39542 -0.08146,0.24421 -0.104649,0.38379 -0.02329,0.20933 -0.06987,0.52333 -0.04658,0.30238 -0.104649,0.72105 -0.02329,0.52335 -0.116252,0.93038 -0.08136,0.40705 -0.2326,0.70943 -0.186071,0.39541 -0.325624,1.26765 -0.12793,0.87223 -0.325636,1.27928 -0.06987,0.11625 -0.127929,0.36052 -0.05817,0.25586 -0.12793,0.63964 -0.04658,0.24422 -0.116252,0.41866 -0.05817,0.17446 -0.174458,0.27912 -0.09295,0.0699 -0.255858,0.15119 -0.162802,0.0815 -0.453555,0.17446 -0.04658,0.26748 -0.162812,0.39541 -0.116252,0.13955 -0.314022,0.13955 -0.162802,0 -0.255837,-0.13955 -0.08146,-0.13955 -0.08146,-0.45356 0,-0.11626 0.03488,-0.37216 0.04658,-0.24422 0.151188,-0.62802 0.04658,-0.18606 0.08147,-0.50007 0.03488,-0.31401 0.04658,-0.76758 0.02329,-0.23259 0.116252,-0.73267 0.104649,-0.50008 0.290741,-1.23277 l -0.151188,-0.75593 q 0.04658,-0.13956 0.08146,-0.314 0,-0.0815 -0.04658,-0.11626 -0.03488,-0.0466 -0.116262,-0.0466 -0.407026,0.27912 -0.67453,0.53498 -0.593108,0.51171 -1.000155,0.83735 -0.407036,0.32562 -0.628012,0.47682 -0.4652,0.30237 -0.942013,0.50007 -0.47682,0.19772 -0.976901,0.2675 l -0.511714,-0.10465 q -0.232594,0.0349 -0.395412,0.0699 -0.255857,0 -0.546602,-0.12791 -0.290745,-0.12794 -0.628011,-0.37216 -0.290745,-0.23259 -0.546603,-0.55823 -0.244223,-0.32564 -0.430299,-0.77921 -0.06978,-0.13955 -0.174448,-0.55822 -0.104671,-0.41867 -0.279116,-1.06994 0.10466,-0.27912 0.127926,-0.60476 0.02329,-0.32563 -0.02329,-0.69779 l 0.232593,-1.74447 q 0.279115,-2.1864 1.093204,-3.88436 0.825717,-1.69795 2.139886,-2.96559 0.441935,-0.44194 0.744309,-0.70943 0.302377,-0.26748 0.383778,-0.37214 0.255858,-0.19771 0.558245,-0.39541 0.314001,-0.19771 0.67453,-0.39543 0.186072,-0.10465 0.418671,-0.20933 0.244224,-0.11626 0.569849,-0.2326 l 1.081577,-0.12794 0.360519,0.0929 z"
           inkscape:connector-curvature="0" />
        <path
           id="path4541"
           style="fill:#ffffff;fill-opacity:1;stroke-width:0.59544653"
           d="m 95.408648,384.12649 0.06987,-0.0815 0.03488,-0.11625 q 0.313999,-0.43029 1.104829,-1.11646 0.790835,-0.69779 1.093205,-1.12808 0.11626,-0.18608 0.26748,-0.2675 0.1512,-0.0815 0.30238,-0.0815 0.40704,0 0.68616,0.20933 0.27912,0.19772 0.37216,0.60475 0.0815,0.36052 0.15118,0.73268 0.0698,0.36052 0.11625,0.73269 0.0814,0.23259 0.19771,0.70941 0.11625,0.46519 0.17446,0.53497 0.0581,0.11625 0.174428,0.17445 0.11627,0.0466 0.29076,0.0466 0.20933,0 0.43029,-0.0699 0.22097,-0.0815 0.45357,-0.26749 0.17444,-0.15119 0.36052,-0.30237 0.19771,-0.16282 0.38378,-0.31401 l 0.46519,1.06994 q -0.18607,0.18609 -0.50008,0.43031 -0.30237,0.2326 -0.73267,0.54659 -0.47683,0.34891 -0.8141,0.52335 -0.33726,0.16283 -0.511688,0.16283 -1.05833,0 -1.37233,-0.24424 -0.314,-0.24422 -0.69779,-1.36068 -0.0466,-0.0931 -0.13955,-0.22097 -0.0931,-0.12793 -0.20934,-0.30237 -0.13956,-0.2675 -0.24423,-0.39542 -0.10465,-0.13956 -0.17445,-0.13956 -0.186085,0 -0.500085,0.25586 -0.314,0.24423 -0.76757,0.7443 -0.0581,-0.15118 -0.13956,-0.36051 -0.09295,-0.20933 -0.186069,-0.48846 -0.02329,-0.0699 -0.05817,-0.12792 -0.03488,-0.0581 -0.08146,-0.0931 z m 4.861272,-9.17592 q 0.29074,0 0.41867,0.11627 0.13956,0.11625 0.13956,0.33727 -0.0699,0.32562 -0.11625,0.5466 -0.11626,0.41867 -0.20934,0.68615 -0.0814,0.26748 -0.12793,0.38378 -0.10465,0.25586 -0.29075,0.45356 -0.174438,0.18609 -0.430298,0.33727 -0.26748,0.18608 -0.45356,0.26748 -0.17445,0.0699 -0.24423,0.0582 -0.1977,-0.0233 -0.38378,-0.0349 -0.17445,-0.0233 -0.34889,-0.0233 -0.15119,-0.0815 -0.24423,-0.314 -0.0815,-0.23259 -0.0815,-0.62802 0,-0.34888 0.41867,-0.87223 0.4303,-0.53497 0.75595,-0.56985 0.1977,-0.24424 0.46518,-0.55824 0.11626,-0.0815 0.30237,-0.12793 0.186078,-0.0581 0.430318,-0.0581 z"
           inkscape:connector-curvature="0" />
        <path
           id="path4543"
           style="fill:#ffffff;fill-opacity:1;stroke-width:0.59544653"
           d="m 102.06091,384.12649 q 0.0466,-0.0815 0.12793,-0.17445 0.0699,-0.10465 0.17444,-0.24421 0.11626,-0.0931 0.30237,-0.2675 0.18608,-0.17444 0.41868,-0.40703 0.20934,-0.23261 0.51171,-0.56987 0.30239,-0.3489 0.73268,-0.83734 0.18608,-0.19771 0.46519,-0.5001 0.27912,-0.31399 0.66291,-0.7443 0.32562,-0.38378 0.69778,-0.56986 0.37215,-0.18608 0.79083,-0.18608 0.41868,0 0.61639,0.26749 0.1977,0.25586 0.1977,0.75593 0,0.26749 -0.1977,1.02343 -0.19771,0.75594 -0.61639,2.00033 -0.10465,0.2326 -0.19771,0.44193 -0.0699,0.15119 -0.093,0.26749 -0.0233,0.11625 -0.0233,0.17444 0,0.0699 0.0815,0.17445 0.0582,-0.0349 0.10464,-0.0931 0.0582,-0.0582 0.12793,-0.13955 0.093,-0.17445 0.27912,-0.36052 0.19771,-0.1977 0.46519,-0.4303 0.10476,-0.19772 0.26748,-0.38378 0.17446,-0.19771 0.38379,-0.36054 0.0466,-0.0466 0.11625,-0.15118 0.0815,-0.10465 0.18609,-0.22096 0.15117,-0.1512 0.36051,-0.31402 0.20935,-0.16281 0.48845,-0.33725 0.31401,-0.16283 0.55825,-0.25586 0.25585,-0.0931 0.44193,-0.0931 0.36051,0 0.63963,0.17445 0.27912,0.17445 0.47683,0.5466 0.23259,0.72106 0.44193,1.33743 0.12793,0.36052 0.27911,0.53497 0.16282,0.17445 0.36052,0.17445 0.15119,0 0.2675,-0.0582 0.12792,-0.0581 0.23259,-0.17445 l 0.4652,1.06995 q -0.19772,0.16282 -0.40705,0.33726 -0.20934,0.17444 -0.40705,0.33727 -0.26748,0.24422 -0.50009,0.3489 -0.23258,0.0929 -0.46518,0.0929 -0.26748,0 -0.51172,-0.11625 -0.24422,-0.11625 -0.41867,-0.34889 -0.093,-0.0931 -0.2326,-0.33727 -0.13955,-0.25585 -0.32562,-0.62801 -0.1512,-0.15119 -0.34891,-0.39541 -0.18606,-0.25586 -0.44192,-0.59313 l -0.10465,-0.0349 q -0.22098,0.0699 -0.44194,0.20933 -0.20934,0.13955 -0.45356,0.36054 -0.52333,0.46519 -0.75594,0.58148 -0.23259,0.11627 -0.31399,0.26749 -0.16284,0.27911 -0.55825,0.72104 -0.3954,0.44193 -0.98853,1.04669 -0.1512,0.15119 -0.30238,0.30237 -0.15118,0.13957 -0.30236,0.27912 -0.15119,0.12793 -0.3489,0.17445 -0.18608,0.0582 -0.41868,0.0582 -0.4652,0 -0.5117,-0.31401 -0.0349,-0.32563 -0.0699,-0.65126 0.17445,-0.48846 0.39541,-1.22114 0.22098,-0.73267 0.51172,-1.70958 0,-0.0582 0.0349,-0.15119 0.0466,-0.10465 0.10464,-0.26748 0.0582,-0.15118 0.0815,-0.25586 0.0233,-0.11625 0.0233,-0.1977 0,-0.0815 -0.0581,-0.12793 -0.0582,-0.0466 -0.18608,-0.0466 -0.11625,0 -0.31401,0.13956 -0.18606,0.13955 -0.45354,0.44194 -0.32565,0.34889 -0.52336,0.5466 -0.1977,0.19771 -0.26748,0.23259 -0.11626,0.0815 -0.27912,0.23261 -0.1512,0.15118 -0.3489,0.33726 -0.0233,0.0466 -0.0699,0.13955 -0.0466,0.0929 -0.15119,0.20934 -0.0466,-0.17445 -0.16283,-0.4303 -0.11625,-0.25585 -0.30236,-0.63965 z"
           inkscape:connector-curvature="0" />
        <path
           id="path4545"
           style="fill:#ffffff;fill-opacity:1;stroke-width:0.59544653"
           d="m 113.55115,383.61478 1.05833,-0.69779 q 0.0581,-0.0581 0.13955,-0.15119 0.0815,-0.10465 0.18608,-0.29075 0.0815,-0.15118 0.20934,-0.25585 0.13955,-0.10465 0.31401,-0.18607 0.093,-0.11625 0.26748,-0.29074 0.17445,-0.17446 0.44193,-0.40705 0.12793,-0.0699 0.32564,-0.1977 0.1977,-0.13957 0.4303,-0.36054 1.05831,-1.00015 1.84915,-1.50024 0.80245,-0.50008 1.34905,-0.50008 0.30237,0 0.44193,0.12793 0.15118,0.12793 0.15118,0.36052 0,0.24423 -0.093,0.4303 -0.0814,0.18608 -0.26749,0.31401 -0.29075,0.20933 -0.62802,0.46519 -0.18606,0.24424 -0.45355,0.52334 -0.26749,0.2675 -0.62802,0.53498 -0.11625,0.15119 -0.1977,0.26747 -0.0582,0.0582 -0.22097,0.20935 -0.16281,0.15118 -0.4303,0.34889 -0.11627,0.25586 -0.51171,0.6629 -0.3838,0.40705 -1.03506,0.97691 -0.0814,0.0815 -0.29075,0.37215 -0.20933,0.29074 -0.5466,0.76757 l 0.0815,0.10465 q 0.25586,-0.0815 0.53498,-0.27912 0.27911,-0.19771 0.61638,-0.52334 0.39541,-0.36052 0.63964,-0.58149 0.25585,-0.2326 0.36052,-0.30237 0.0815,-0.0466 0.16281,-0.0931 0.0815,-0.0466 0.18609,-0.11625 0.53497,-0.63965 1.00016,-0.94201 0.46519,-0.314 0.86061,-0.314 0.24422,0 0.37215,0.1977 0.12793,0.18607 0.15118,0.56986 -0.0233,0.58148 -0.0233,1.11646 -0.0118,0.37216 0.19771,0.67453 0.22096,0.29074 0.56986,0.29074 0.10465,0 0.1977,-0.0581 0.10465,-0.0582 0.20934,-0.15118 0.0815,-0.10465 0.15119,-0.19771 0.0815,-0.0931 0.16282,-0.18608 0.0466,-0.0233 0.12793,-0.0815 0.093,-0.0582 0.17444,-0.13955 0.16283,0.34889 0.26749,0.61638 0.11626,0.25586 0.17444,0.45356 -0.26748,0.24423 -0.53496,0.51171 -0.25586,0.25586 -0.5466,0.48846 -0.3489,0.26748 -0.67453,0.40703 -0.32565,0.12793 -0.65127,0.12793 -0.75595,0 -1.16299,-0.43029 -0.40704,-0.43032 -0.47683,-1.30254 0,-0.10465 -0.0349,-0.20933 -0.0233,-0.11627 -0.11625,-0.23261 -0.0581,0.0582 -0.12792,0.12793 -0.0699,0.0582 -0.16282,0.16281 -0.15119,0.11626 -0.38378,0.29075 -0.22097,0.17445 -0.52334,0.41868 -0.40705,0.41866 -0.68617,0.68616 -0.27911,0.26748 -0.39541,0.38378 -0.2326,0.19771 -0.5466,0.39542 -0.30237,0.19769 -0.68615,0.40704 -0.24424,0.12793 -0.41869,0.19771 -0.17444,0.0815 -0.25585,0.0815 -0.55823,0 -0.82571,-0.26748 -0.26748,-0.27912 -0.26748,-0.84897 0,-0.31401 0.13955,-0.59312 0.12793,-0.29075 0.39541,-0.55823 0.0233,-0.1512 0.0233,-0.24423 0,-0.0582 -0.0349,-0.11626 -0.0233,-0.0699 -0.0698,-0.15119 -0.0699,-0.16282 -0.15119,-0.36052 -0.093,-0.20934 -0.1977,-0.44193 0.0466,-0.0466 0.13955,-0.17445 0.0815,-0.13956 0.19771,-0.33727 z"
           inkscape:connector-curvature="0" />
        <path
           id="path4547"
           style="fill:#ffffff;fill-opacity:1;stroke-width:0.59544653"
           d="m 130.29809,376.06703 q -0.0349,-0.2326 -0.0813,-0.48845 0,0.10464 0.0349,-0.16282 0.0349,-0.26748 0.093,-0.91876 0.093,-0.12791 0.12792,-0.22096 0.0466,-0.10465 0.0815,-0.18608 -0.10465,-0.12793 -0.16282,-0.20934 -0.0466,-0.0931 -0.0466,-0.15118 0.093,-0.70943 0.17446,-1.34906 0.0118,-0.17445 0.1977,-0.39542 0.19771,-0.22095 0.53498,-0.47681 0.26748,-0.22098 0.52334,-0.37216 0.25585,-0.15119 0.48845,-0.24423 0.31401,-0.10465 0.37215,-0.17445 0.0581,-0.0699 0.12792,-0.0699 0.18608,0 0.27912,0.18608 0.10465,0.18608 0.10465,0.55823 0,0.1977 -0.10465,0.5466 -0.093,0.34889 -0.093,0.51171 0,0.0699 0.0118,0.53498 0.0233,0.46518 0.0582,1.33742 0.0118,0.62802 0.17445,1.33742 0.17444,0.70943 0.44192,1.47699 0.36052,1.00016 0.7792,1.50025 0.41867,0.48845 0.91876,0.48845 0.39541,0 1.04668,-0.51171 0.65127,-0.51171 1.53513,-1.53513 0.67453,-0.79084 1.19787,-1.47699 0.53497,-0.68617 0.8606,-1.25602 0.30238,-0.51171 0.70942,-0.91876 0.40704,-0.40705 0.93039,-0.74431 0.16282,-0.0929 0.26749,-0.15118 0.10465,-0.0582 0.16282,-0.0582 0.20933,0 0.31399,0.314 0.11625,0.31401 0.11625,0.93039 -0.0699,0.56987 -0.11625,1.1281 -0.10465,0.87223 -0.31399,1.81424 -0.1977,0.94203 -0.52335,1.95382 -0.16282,0.5117 -0.27911,0.89549 -0.11626,0.38379 -0.16282,0.65126 -0.0233,0.1512 -0.0699,0.38379 -0.0349,0.22097 -0.0815,0.52335 -0.11625,0.29074 -0.25586,0.5815 -0.11625,0.23259 -0.1977,0.55822 -0.0698,0.32564 -0.12792,0.75593 0,0.0815 -0.0118,0.20934 -0.0117,0.12793 -0.0233,0.26749 -0.26748,1.18624 -0.5466,2.3027 -0.0233,0.10465 -0.10465,0.26749 -0.15119,0.0466 -0.34888,0.1977 -0.18608,0.15119 -0.39541,0.41867 -0.20934,0.23261 -0.34891,0.3489 -0.13955,0.10465 -0.20934,0.10465 -0.093,0 -0.15119,-0.0581 -0.0581,-0.0582 -0.0581,-0.19771 0.0117,-0.0929 0.0349,-0.15118 0.16282,-0.39542 0.27912,-1.13972 0.12793,-0.74431 0.23259,-1.83751 0.0118,-0.2326 0.18608,-1.25601 0.17446,-1.02344 0.51172,-2.83768 0.0466,-0.29075 0.11625,-0.70943 0.0815,-0.4303 0.19771,-0.9769 0.0815,-0.27912 0.12793,-0.47681 0.0582,-0.20935 0.0582,-0.30239 0,-0.11625 -0.0466,-0.16281 -0.0349,-0.0582 -0.11626,-0.0582 -0.0699,0 -0.25585,0.18608 -0.18609,0.17444 -0.46519,0.53497 -0.16283,0.19771 -0.33727,0.41866 -0.16282,0.22099 -0.3489,0.43032 -0.31401,0.32563 -0.58149,0.61638 l -0.8606,0.86061 q -0.11627,0.0699 -0.29076,0.17444 -0.16281,0.10475 -0.39541,0.24423 -0.22096,0.3489 -0.70941,0.60475 -0.47683,0.24422 -0.88386,0.24422 -0.48846,0 -0.94201,-0.30237 -0.44194,-0.31401 -0.86062,-0.95365 -0.18608,-0.31401 -0.37215,-0.62802 -0.17446,-0.31399 -0.38379,-0.628 l -0.0581,0.0118 q -0.0582,0.0699 -0.22097,0.94201 -0.15118,0.87223 -0.3954,2.55856 -0.2675,1.73285 -0.40705,2.72137 -0.13955,0.98854 -0.13955,1.27928 -0.0233,0.39542 -0.1512,0.61639 -0.11625,0.20934 -0.37216,0.24422 -0.12791,0.0117 -0.3605,0.0699 -0.23261,0.0466 -0.55825,0.12792 -0.0582,-0.0118 -0.10475,-0.0349 -0.0466,-0.0349 -0.0466,-0.093 l 0.0699,-0.43029 -0.11627,-0.44194 q 0.0699,-0.36052 0.13957,-0.69779 0.0466,-0.69779 0.0815,-1.31417 0.0118,-0.12793 0.0815,-0.4303 0.0815,-0.30238 0.0815,-0.45357 0,-0.0815 -0.0349,-0.23259 -0.0349,-0.16282 -0.0349,-0.24423 0,-0.63963 0.1977,-1.89565 0.20933,-1.25603 0.20933,-1.9073 -0.0349,-0.26748 -0.0815,-0.53496 0.0582,-0.41868 0.18608,-1.0467 0.12793,-0.628 0.29074,-1.46534 z"
           inkscape:connector-curvature="0" />
        <path
           id="path4549"
           style="fill:#ffffff;fill-opacity:1;stroke-width:0.59544653"
           d="m 142.57917,383.61478 1.05832,-0.69779 q 0.0581,-0.0581 0.13956,-0.15119 0.0815,-0.10465 0.18608,-0.29075 0.0815,-0.15118 0.20934,-0.25585 0.13955,-0.10465 0.314,-0.18607 0.093,-0.11625 0.26748,-0.29074 0.17445,-0.17446 0.44194,-0.40705 0.12793,-0.0699 0.32564,-0.1977 0.19771,-0.13957 0.43029,-0.36054 1.05832,-1.00015 1.84915,-1.50024 0.80245,-0.50008 1.34905,-0.50008 0.30238,0 0.44194,0.12793 0.15118,0.12793 0.15118,0.36052 0,0.24423 -0.0931,0.4303 -0.0814,0.18608 -0.26748,0.31401 -0.29076,0.20933 -0.62802,0.46519 -0.18608,0.24424 -0.45356,0.52334 -0.26748,0.2675 -0.62801,0.53498 -0.11626,0.15119 -0.19771,0.26747 -0.0582,0.0582 -0.22095,0.20935 -0.16283,0.15118 -0.43032,0.34889 -0.11625,0.25586 -0.5117,0.6629 -0.3838,0.40705 -1.03506,0.97691 -0.0814,0.0815 -0.29075,0.37215 -0.20933,0.29074 -0.5466,0.76757 l 0.0814,0.10465 q 0.25587,-0.0815 0.53498,-0.27912 0.27911,-0.19771 0.61638,-0.52334 0.39542,-0.36052 0.63964,-0.58149 0.25585,-0.2326 0.36052,-0.30237 0.0815,-0.0466 0.16281,-0.0931 0.0815,-0.0466 0.18608,-0.11625 0.53498,-0.63965 1.00017,-0.94201 0.4652,-0.314 0.8606,-0.314 0.24423,0 0.37216,0.1977 0.12793,0.18607 0.15118,0.56986 -0.0233,0.58148 -0.0233,1.11646 -0.0118,0.37216 0.19771,0.67453 0.22096,0.29074 0.56986,0.29074 0.10464,0 0.1977,-0.0581 0.10465,-0.0582 0.20933,-0.15118 0.0815,-0.10465 0.15119,-0.19771 0.0815,-0.0931 0.16282,-0.18608 0.0466,-0.0233 0.12793,-0.0815 0.093,-0.0582 0.17444,-0.13955 0.16283,0.34889 0.26749,0.61638 0.11625,0.25586 0.17445,0.45356 -0.26748,0.24423 -0.53497,0.51171 -0.25587,0.25586 -0.54661,0.48846 -0.3489,0.26748 -0.67452,0.40703 -0.32564,0.12793 -0.65128,0.12793 -0.75593,0 -1.16298,-0.43029 -0.40703,-0.43032 -0.47682,-1.30254 0,-0.10465 -0.0349,-0.20933 -0.0233,-0.11627 -0.11625,-0.23261 -0.0581,0.0582 -0.12793,0.12793 -0.0699,0.0582 -0.16283,0.16281 -0.15117,0.11626 -0.38377,0.29075 -0.22098,0.17445 -0.52335,0.41868 -0.40704,0.41866 -0.68616,0.68616 -0.27911,0.26748 -0.39541,0.38378 -0.2326,0.19771 -0.5466,0.39542 -0.30238,0.19769 -0.68616,0.40704 -0.24423,0.12793 -0.41868,0.19771 -0.17445,0.0815 -0.25585,0.0815 -0.55824,0 -0.8257,-0.26748 -0.26751,-0.27912 -0.26751,-0.84897 0,-0.31401 0.13955,-0.59312 0.12796,-0.29075 0.39542,-0.55823 0.0233,-0.1512 0.0233,-0.24423 0,-0.0582 -0.0349,-0.11626 -0.0233,-0.0699 -0.0699,-0.15119 -0.0699,-0.16282 -0.1512,-0.36052 -0.093,-0.20934 -0.1977,-0.44193 0.0466,-0.0466 0.13955,-0.17445 0.0815,-0.13956 0.19771,-0.33727 z"
           inkscape:connector-curvature="0" />
        <path
           id="path4551"
           style="fill:#ffffff;fill-opacity:1;stroke-width:0.59544653"
           d="m 151.13872,384.12649 0.0699,-0.0815 q 0.0466,-0.16281 0.20935,-0.34889 0.15119,-0.18608 0.44194,-0.37214 0.38377,-0.24424 0.59311,-0.39542 0.22097,-0.1512 0.26749,-0.22098 0.10475,-0.12791 0.13956,-0.19771 0.12793,-0.0931 0.31399,-0.25585 0.18608,-0.16281 0.41869,-0.39541 0.0814,-0.0582 0.17444,-0.18608 0.093,-0.12793 0.18608,-0.29074 0.15118,-0.10465 0.33726,-0.26749 0.19771,-0.16282 0.45357,-0.41867 0.29074,-0.31401 0.65126,-0.68615 0.37216,-0.38379 0.82572,-0.79084 0.15119,-0.0699 0.27912,-0.10464 0.13956,-0.0466 0.26749,-0.0466 0.52334,0 0.77919,0.25585 0.26749,0.24423 0.26749,0.70943 0,0.11625 -0.0466,0.38378 -0.0349,0.26749 -0.0815,0.67453 -0.16282,1.1746 -0.23261,1.43046 -0.0697,0.25586 -0.48844,1.60492 -0.0931,0.22097 -0.19771,0.5466 -0.093,0.32563 -0.2326,0.79083 0.0233,0.0466 0.11626,0.0929 0.0814,0 0.29074,-0.15119 0.20933,-0.16281 0.55823,-0.47682 0.40704,-0.37217 0.63965,-0.56987 0.23258,-0.1977 0.29074,-0.23259 0.13955,0.31401 0.25586,0.58149 0.11625,0.25585 0.1977,0.48845 -0.15119,0.0929 -0.27912,0.20934 -0.11626,0.11625 -0.22097,0.25586 -0.24421,0.16281 -0.56985,0.37214 -0.31401,0.20934 -0.69779,0.45358 -0.17445,0.17444 -0.47682,0.43029 -0.29075,0.24423 -0.66291,0.55824 l -0.22095,0.0466 q -0.16284,0.22096 -0.31401,0.33727 -0.13956,0.11625 -0.25586,0.1628 -0.18608,0.0698 -0.37217,0.12794 -0.18606,0.0699 -0.3954,0.13955 -0.12793,-0.0349 -0.18607,-0.15118 -0.0582,-0.11627 -0.0466,-0.30238 -0.17445,-0.314 -0.27911,-0.72104 -0.10475,-0.40704 -0.10475,-0.90714 0,-0.0931 0.0117,-0.1977 0.0118,-0.10465 0.0233,-0.18609 -0.0815,-0.30236 -0.0815,-0.36051 0,-0.3489 0.26748,-0.56985 0.26749,-0.23261 0.60476,-0.23261 0.17443,0 0.24421,0.18608 0.0815,0.17445 0.16282,0.17445 0.0815,0 0.16282,-0.31401 0.093,-0.32564 0.17445,-0.94201 0.0814,-0.53497 0.10465,-0.93039 0.0233,-0.39542 0.0233,-0.60475 0,-0.15119 -0.0699,-0.22097 -0.0582,-0.0815 -0.20934,-0.0815 -0.15118,0 -0.97691,0.6978 -0.82571,0.69779 -2.3027,2.08174 -0.0466,0.0815 -0.13956,0.1977 -0.0814,0.11626 -0.1977,0.29075 -0.0466,-0.17446 -0.16282,-0.43032 -0.11625,-0.25583 -0.30238,-0.63963 z"
           inkscape:connector-curvature="0" />
        <path
           id="path4553"
           style="fill:#ffffff;fill-opacity:1;stroke-width:0.59544653"
           d="m 158.44225,384.12649 0.0466,-0.0931 q 0.0699,-0.0929 0.18608,-0.23259 0.10476,-0.13955 0.25585,-0.32563 0.82573,-0.76758 1.60492,-1.82588 0.79083,-1.06995 1.55839,-2.4539 0.093,-0.12793 0.20934,-0.33726 0.11626,-0.20933 0.25586,-0.52333 0,-0.0699 -0.0349,-0.10465 -0.0349,-0.0349 -0.11626,-0.0349 -0.0699,0 -0.23259,0.0466 -0.1512,0.0349 -0.2326,0.0349 h -1.45373 q -0.093,0 -0.314,-0.0118 -0.20934,-0.0118 -0.30238,-0.0118 -0.11626,-0.0581 -0.22097,-0.093 -0.093,-0.0466 -0.18607,-0.0931 -0.13956,-0.0466 -0.22097,-0.11625 -0.0698,-0.0815 -0.0698,-0.18608 0,-0.74431 0.15118,-1.13972 0.16283,-0.39542 0.48845,-0.39542 0.32564,0 0.60475,0.0349 0.29076,0.0233 0.51172,0.0699 0.17446,-0.0349 0.32564,-0.0699 0.314,0 0.53497,0.0233 0.22096,0.0233 0.33726,0.0582 0.15119,-0.0349 0.29075,-0.0582 0.15118,-0.0349 0.32563,-0.0699 l 0.38378,0.11625 q 0.40706,-0.0466 0.86061,-1.13972 0.4652,-1.0932 0.98854,-1.0932 0.27911,0 0.4303,0.17445 0.1512,0.17443 0.1512,0.51171 0,0.26748 -0.16283,0.70942 -0.15119,0.43029 -0.17446,0.65127 0.0233,0.0466 0.0581,0.10465 0.0466,0.0466 0.12794,0.11625 0.0699,0.0466 0.093,0.16282 0.0349,0.10465 0.0349,0.2675 0,0.69777 -0.0699,1.08155 -0.0581,0.37215 -0.1977,0.38379 l -0.79084,0.16282 q -0.0233,0.11625 -0.0582,0.29074 -0.0349,0.16282 -0.093,0.38379 -0.19771,0.58149 -0.44194,1.47698 -0.24422,0.89551 -0.54659,2.11664 -0.18607,0.97689 -0.29076,1.58165 -0.093,0.60475 -0.093,0.81408 0,0.18608 0.0582,0.27912 0.0582,0.093 0.17445,0.093 0.0698,0 0.50007,-0.33727 0.44194,-0.33726 1.22113,-1.00017 l 0.45356,1.06994 q -0.11625,0.12793 -0.32562,0.30239 -0.20934,0.17444 -0.50008,0.37214 -0.11626,0.12794 -0.29075,0.29076 -0.17445,0.15118 -0.38378,0.36051 -0.20934,0.2326 -0.41868,0.4652 -0.1977,0.23259 -0.40704,0.45356 -0.27912,0.30238 -0.5466,0.43032 -0.26749,0.13955 -0.50009,0.13955 -0.5117,0 -0.76756,-0.30239 -0.24424,-0.30236 -0.24424,-0.91874 0,-0.67453 0.0466,-1.16298 0.0466,-0.50009 0.15118,-0.80246 0.0466,-0.093 0.0699,-0.16282 0,-0.11625 0.0349,-0.314 0.0349,-0.19771 0.0814,-0.46519 0.0699,-0.45358 0.15119,-0.90714 0.12793,-0.27911 0.26748,-0.59311 0,-0.0582 -0.093,-0.10465 l -0.11626,0.0699 q -0.17444,0.27911 -0.45356,0.59312 -0.27913,0.30238 -0.6629,0.63964 -0.59312,0.56987 -1.2095,1.15135 -0.0349,0.0582 -0.12794,0.17445 -0.093,0.11625 -0.20933,0.29074 -0.0582,-0.13955 -0.13956,-0.34889 -0.093,-0.22096 -0.18608,-0.50008 -0.0233,-0.0699 -0.0581,-0.12792 -0.0349,-0.0581 -0.0815,-0.0931 z"
           inkscape:connector-curvature="0" />
        <path
           id="path4555"
           style="fill:#ffffff;fill-opacity:1;stroke-width:0.59544653"
           d="m 164.90843,384.12649 q 0.18607,-0.24423 0.37214,-0.51171 0.84899,-0.69779 1.38395,-1.33742 0.5466,-0.65127 0.79083,-1.2095 l -0.11625,-0.55825 q 0.15117,-0.29074 0.7443,-0.68615 0.60474,-0.39541 0.9769,-0.39541 0.39541,0 0.6629,0.2326 0.27911,0.23259 0.53497,0.48845 0.12793,0.0815 0.18608,0.12793 0.4652,0.34889 0.69778,0.96527 0.23261,0.61637 0.23261,1.50026 0,0.46517 -0.36053,1.33741 -0.36053,0.86061 -0.36053,1.30255 0,0.0582 0.0349,0.093 0.0466,0.0349 0.11626,0.0349 0.15119,0 0.36054,-0.12793 0.20933,-0.13956 0.45355,-0.37215 0.61638,-0.60475 0.74431,-0.6629 0.12793,-0.0699 0.314,-0.22097 0.093,0.23259 0.22096,0.50009 0.12793,0.26748 0.24424,0.56986 -0.10465,0.0931 -0.24424,0.22096 -0.12793,0.12793 -0.31399,0.29074 -0.39542,0.29074 -1.03507,0.70943 -0.628,0.40704 -1.51186,0.94201 -0.23261,0.15119 -0.53497,0.24422 -0.48845,0 -0.73269,-0.13955 -0.24423,-0.15119 -0.24423,-0.47682 0,-0.12793 0.0466,-0.29075 0.0581,-0.17445 0.1512,-0.37216 0.0699,-0.15119 0.15119,-0.30237 0.0814,-0.16282 0.13955,-0.32563 0.25586,-0.73268 0.38379,-1.36069 0.13955,-0.62802 0.13955,-1.12809 0,-0.61639 -0.1977,-0.94202 -0.18609,-0.32564 -0.56986,-0.37216 -0.25587,0.13957 -0.55824,0.39542 -0.30236,0.25585 -0.61638,0.63964 -0.33726,0.41867 -0.60475,0.68616 -0.26748,0.26749 -0.44194,0.36051 -0.10465,0.17446 -0.33726,0.39543 -0.23259,0.22096 -0.61638,0.47681 -0.0233,0.0466 -0.0699,0.13956 -0.0466,0.093 -0.15119,0.20935 -0.093,-0.26749 -0.20935,-0.52335 -0.11625,-0.26748 -0.25585,-0.5466 z"
           inkscape:connector-curvature="0" />
        <path
           id="path4557"
           style="fill:#ffffff;fill-opacity:1;stroke-width:0.59544653"
           d="m 173.04929,383.61478 1.05832,-0.69779 q 0.0582,-0.0581 0.13955,-0.15119 0.0815,-0.10465 0.18609,-0.29075 0.0815,-0.15118 0.20933,-0.25585 0.13956,-0.10465 0.314,-0.18607 0.093,-0.11625 0.26748,-0.29074 0.17446,-0.17446 0.44194,-0.40705 0.12793,-0.0699 0.32565,-0.1977 0.1977,-0.13957 0.43029,-0.36054 1.05832,-1.00015 1.84914,-1.50024 0.80245,-0.50008 1.34906,-0.50008 0.30238,0 0.44193,0.12793 0.15119,0.12793 0.15119,0.36052 0,0.24423 -0.093,0.4303 -0.0815,0.18608 -0.26749,0.31401 -0.29074,0.20933 -0.628,0.46519 -0.18608,0.24424 -0.45356,0.52334 -0.26748,0.2675 -0.62802,0.53498 -0.11625,0.15119 -0.19771,0.26747 -0.0582,0.0582 -0.22096,0.20935 -0.16281,0.15118 -0.4303,0.34889 -0.11626,0.25586 -0.51171,0.6629 -0.38379,0.40705 -1.03505,0.97691 -0.0815,0.0815 -0.29075,0.37215 -0.20935,0.29074 -0.5466,0.76757 l 0.0815,0.10465 q 0.25586,-0.0815 0.53498,-0.27912 0.27911,-0.19771 0.61637,-0.52334 0.39542,-0.36052 0.63965,-0.58149 0.25585,-0.2326 0.36052,-0.30237 0.0815,-0.0466 0.16281,-0.0931 0.0815,-0.0466 0.18608,-0.11625 0.53497,-0.63965 1.00017,-0.94201 0.46519,-0.314 0.86061,-0.314 0.24421,0 0.37215,0.1977 0.12792,0.18607 0.15118,0.56986 -0.0233,0.58148 -0.0233,1.11646 -0.0118,0.37216 0.19771,0.67453 0.22097,0.29074 0.56986,0.29074 0.10465,0 0.1977,-0.0581 0.10465,-0.0582 0.20934,-0.15118 0.0815,-0.10465 0.15118,-0.19771 0.0815,-0.0931 0.16283,-0.18608 0.0466,-0.0233 0.12792,-0.0815 0.093,-0.0582 0.17445,-0.13955 0.16282,0.34889 0.26748,0.61638 0.11627,0.25586 0.17446,0.45356 -0.26749,0.24423 -0.53498,0.51171 -0.25585,0.25586 -0.5466,0.48846 -0.34889,0.26748 -0.67453,0.40703 -0.32563,0.12793 -0.65127,0.12793 -0.75594,0 -1.16297,-0.43029 -0.40705,-0.43032 -0.47683,-1.30254 0,-0.10465 -0.0349,-0.20933 -0.0233,-0.11627 -0.11625,-0.23261 -0.0582,0.0582 -0.12792,0.12793 -0.0699,0.0582 -0.16283,0.16281 -0.15119,0.11626 -0.38378,0.29075 -0.22097,0.17445 -0.52334,0.41868 -0.40704,0.41866 -0.68616,0.68616 -0.27912,0.26748 -0.39542,0.38378 -0.23259,0.19771 -0.54659,0.39542 -0.30238,0.19769 -0.68617,0.40704 -0.24422,0.12793 -0.41867,0.19771 -0.17444,0.0815 -0.25586,0.0815 -0.55822,0 -0.82571,-0.26748 -0.26749,-0.27912 -0.26749,-0.84897 0,-0.31401 0.13957,-0.59312 0.12792,-0.29075 0.39541,-0.55823 0.0233,-0.1512 0.0233,-0.24423 0,-0.0582 -0.0349,-0.11626 -0.0233,-0.0699 -0.0699,-0.15119 -0.0699,-0.16282 -0.15118,-0.36052 -0.093,-0.20934 -0.19771,-0.44193 0.0466,-0.0466 0.13955,-0.17445 0.0815,-0.13956 0.19771,-0.33727 z"
           inkscape:connector-curvature="0" />
        <path
           id="path4559"
           style="fill:#ffffff;fill-opacity:1;stroke-width:0.59544653"
           d="m 181.60884,384.12649 q 0.0466,-0.0815 0.12793,-0.17445 0.0698,-0.10465 0.17444,-0.24421 0.11626,-0.0931 0.30237,-0.2675 0.18608,-0.17444 0.41868,-0.40703 0.20933,-0.23261 0.51171,-0.56987 0.30238,-0.3489 0.73267,-0.83734 0.18609,-0.19771 0.4652,-0.5001 0.27912,-0.31399 0.6629,-0.7443 0.32564,-0.38378 0.6978,-0.56986 0.37215,-0.18608 0.79081,-0.18608 0.41869,0 0.61639,0.26749 0.19771,0.25586 0.19771,0.75593 0,0.26749 -0.19771,1.02343 -0.1977,0.75594 -0.61639,2.00033 -0.10465,0.2326 -0.1977,0.44193 -0.0697,0.15119 -0.093,0.26749 -0.0233,0.11625 -0.0233,0.17444 0,0.0699 0.0815,0.17445 0.0582,-0.0349 0.10465,-0.0931 0.0582,-0.0582 0.12792,-0.13955 0.093,-0.17445 0.27911,-0.36052 0.19772,-0.1977 0.4652,-0.4303 0.10465,-0.19772 0.26749,-0.38378 0.17443,-0.19771 0.38377,-0.36054 0.0466,-0.0466 0.11627,-0.15118 0.0813,-0.10465 0.18607,-0.22096 0.15119,-0.1512 0.36053,-0.31402 0.20933,-0.16281 0.48845,-0.33725 0.31399,-0.16283 0.55822,-0.25586 0.25586,-0.0931 0.44194,-0.0931 0.36052,0 0.63963,0.17445 0.27911,0.17445 0.47683,0.5466 0.2326,0.72106 0.44193,1.33743 0.12793,0.36052 0.27912,0.53497 0.16281,0.17445 0.36052,0.17445 0.15118,0 0.26748,-0.0582 0.12793,-0.0581 0.23261,-0.17445 l 0.46519,1.06995 q -0.19771,0.16282 -0.40706,0.33726 -0.20933,0.17444 -0.40704,0.33727 -0.26747,0.24422 -0.50008,0.3489 -0.23259,0.0929 -0.46519,0.0929 -0.26748,0 -0.5117,-0.11625 -0.24424,-0.11625 -0.41869,-0.34889 -0.093,-0.0931 -0.23258,-0.33727 -0.13957,-0.25585 -0.32565,-0.62801 -0.15118,-0.15119 -0.34888,-0.39541 -0.18609,-0.25586 -0.44195,-0.59313 l -0.10464,-0.0349 q -0.22097,0.0699 -0.44193,0.20933 -0.20933,0.13955 -0.45357,0.36054 -0.52334,0.46519 -0.75594,0.58148 -0.2326,0.11627 -0.314,0.26749 -0.16281,0.27911 -0.55823,0.72104 -0.39542,0.44193 -0.98854,1.04669 -0.15119,0.15119 -0.30237,0.30237 -0.15119,0.13957 -0.30238,0.27912 -0.15119,0.12793 -0.34889,0.17445 -0.18609,0.0582 -0.41868,0.0582 -0.4652,0 -0.51171,-0.31401 -0.0349,-0.32563 -0.0699,-0.65126 0.17444,-0.48846 0.39542,-1.22114 0.22096,-0.73267 0.5117,-1.70958 0,-0.0582 0.0349,-0.15119 0.0466,-0.10465 0.10465,-0.26748 0.0582,-0.15118 0.0813,-0.25586 0.0233,-0.11625 0.0233,-0.1977 0,-0.0815 -0.0581,-0.12793 -0.0582,-0.0466 -0.18608,-0.0466 -0.11626,0 -0.31401,0.13956 -0.18608,0.13955 -0.45355,0.44194 -0.32565,0.34889 -0.52335,0.5466 -0.19771,0.19771 -0.26748,0.23259 -0.11626,0.0815 -0.27912,0.23261 -0.15119,0.15118 -0.3489,0.33726 -0.0233,0.0466 -0.0699,0.13955 -0.0466,0.0929 -0.1512,0.20934 -0.0466,-0.17445 -0.16281,-0.4303 -0.11625,-0.25585 -0.30238,-0.63965 z"
           inkscape:connector-curvature="0" />
        <path
           id="path4561"
           style="fill:#ffffff;fill-opacity:1;stroke-width:0.59544653"
           d="m 192.72694,384.12649 q 0.0815,-0.0931 0.19772,-0.25585 0.11625,-0.17445 0.29074,-0.39542 0.15118,-0.12793 0.34889,-0.33726 0.19771,-0.22097 0.44193,-0.5466 0.093,-0.19771 0.22097,-0.43031 0.13955,-0.24422 0.314,-0.56986 0.0699,-0.314 0.32564,-0.70941 0.25586,-0.40705 0.70942,-0.90712 0.63964,-0.70943 1.33743,-1.51188 0.36051,-0.53498 0.7792,-0.79084 0.43029,-0.25585 0.91875,-0.25585 0.32563,0 0.48845,0.29075 0.17446,0.29074 0.17446,0.86061 0,0.20933 -0.29076,0.65126 -0.27911,0.44194 -0.86061,1.12809 -0.36052,0.4303 -0.75594,0.86061 -0.39541,0.41868 -0.77919,0.86059 -0.17445,0.16284 -0.37215,0.36054 -0.18608,0.18608 -0.40705,0.41868 -0.0698,0.24422 -0.15119,0.5466 0,0.45356 0.0582,0.79082 0.0581,0.32565 0.17444,0.55824 0.0582,0.0815 0.24423,0.37215 0.1977,0.27912 0.52335,0.73267 0.0815,0.11626 0.19771,0.2326 0.11625,0.11625 0.26748,0.2326 0.17446,-0.0699 0.67453,-0.61639 0.50007,-0.55822 1.34906,-1.57002 l 0.44192,1.06995 q -0.0814,0.0931 -0.31399,0.38379 -0.22097,0.27911 -0.5466,0.74431 -0.37217,0.48844 -0.75594,1.04667 0,0.11625 0.10464,0.26749 0.11626,0.15118 0.27911,0.33726 0.30238,0.3489 0.51171,0.90713 0.22097,0.55824 0.33727,1.3607 -0.0118,0.0582 -0.0349,0.18606 -0.0118,0.12794 -0.0233,0.29075 -0.13956,1.33742 -1.65142,2.67485 -1.50026,1.33743 -2.83768,1.33743 -0.61639,0 -0.98854,-0.16281 -0.36051,-0.1512 -0.51171,-0.46519 -0.0582,-0.1512 -0.093,-0.59313 -0.0349,-0.44193 -0.0349,-1.1746 0,-0.0699 0.0698,-0.27913 0.0582,-0.1977 0.20934,-0.5466 0.0815,-0.23259 0.22098,-0.48845 0.15118,-0.24423 0.31399,-0.53497 0.16282,-0.24421 0.32564,-0.47681 0.17445,-0.2326 0.32564,-0.4652 0.37214,-0.40705 0.6629,-0.72104 0.22096,-0.22098 0.33726,-0.41869 0.12793,-0.19771 0.12793,-0.34889 -0.39542,-0.5466 -0.79083,-1.04668 -0.41867,-0.52334 -0.68616,-1.04668 -0.25586,-0.52335 -0.33727,-1.06995 -0.0118,-0.0699 -0.0929,-0.22097 -0.26749,0.25586 -0.52335,0.52335 -0.0466,-0.17446 -0.16281,-0.43032 -0.11626,-0.25583 -0.30238,-0.63963 z m 3.81458,4.88452 q -0.0698,0 -0.32563,0.32563 -0.24423,0.32565 -0.67453,0.96529 -0.24423,0.38377 -0.48846,0.7792 -0.24423,0.39541 -0.51171,0.77919 -0.093,0.12793 -0.26749,0.60475 -0.17444,0.47681 -0.17444,0.60475 0,0.22097 0.11625,0.32563 0.12794,0.10475 0.3838,0.10475 0.89549,0 1.8375,-0.97689 0.94202,-0.96529 0.94202,-1.86078 0,-0.18607 -0.0699,-0.44193 -0.0699,-0.24423 -0.18608,-0.5466 -0.15119,-0.33727 -0.29074,-0.50008 -0.13956,-0.16283 -0.29076,-0.16283 z"
           inkscape:connector-curvature="0" />
        <path
           id="path4563"
           style="fill:#ffffff;fill-opacity:1;stroke-width:0.59544653"
           d="m 199.14661,384.12649 q 0.13955,-0.24423 0.36052,-0.48845 0.22096,-0.25586 0.55822,-0.52334 0.0349,-0.23259 0.0699,-0.45357 0.0349,-0.23259 0.0466,-0.46519 0.0349,-0.16281 0.10465,-0.38377 0.0815,-0.22098 0.17444,-0.47683 0.10465,-0.25586 0.27912,-0.63964 0.18608,-0.38379 0.47682,-0.86062 0.24422,-0.26748 0.51171,-0.58148 0.26749,-0.32563 0.53497,-0.65127 0.12793,-0.10465 0.27912,-0.19771 0.15119,-0.0929 0.30237,-0.20934 0.13957,-0.0466 0.31401,-0.0815 0.17445,-0.0349 0.38379,-0.0349 0.29074,0 0.46519,0.0582 0.18607,0.0582 0.30237,0.19772 0.0815,0.093 0.1512,0.2791 0.0814,0.18608 0.15118,0.45357 0.0349,0.2326 0.0815,0.51172 0,-0.0699 -0.0466,0.0581 -0.0349,0.12794 -0.11625,0.40705 l -0.10465,0.37215 q -0.16281,0.55823 -0.73268,1.29091 -0.56985,0.73267 -1.53513,1.6747 -0.0815,0.0815 -0.13957,0.20934 -0.0582,0.11626 -0.0582,0.25584 0,0.24424 0.0815,0.43031 0.093,0.18607 0.25586,0.27911 0.093,0.0699 0.29073,0.13957 0.20935,0.0699 0.48846,0.12792 0.45357,-0.0349 0.82572,-0.15119 0.37215,-0.11625 0.6629,-0.27911 0.0582,-0.0349 0.18608,-0.0931 0.12793,-0.0697 0.25586,-0.17444 0.15118,0.33725 0.26748,0.60475 0.11625,0.26748 0.18607,0.46518 -0.66289,0.65128 -1.20951,0.98854 -0.53495,0.32564 -0.98852,0.32564 -0.18608,0.11625 -0.43031,0.17445 -0.23259,0.0466 -0.55823,0.0466 -0.4303,0 -0.76756,-0.12792 -0.32564,-0.12793 -0.5466,-0.37216 -0.11627,-0.11626 -0.2326,-0.33726 -0.11625,-0.23259 -0.24423,-0.5466 -0.10465,-0.25586 -0.1977,-0.37216 -0.093,-0.12794 -0.20934,-0.12794 -0.093,0 -0.20933,0.0931 -0.11627,0.0815 -0.25586,0.25586 -0.0466,-0.17444 -0.16283,-0.4303 -0.11625,-0.25586 -0.30236,-0.63964 z m 3.72153,-3.77969 q -0.25585,0 -0.68615,0.67453 -0.43032,0.66291 -0.43032,0.97692 0,0.0697 0.0233,0.10465 0.0349,0.0233 0.12792,0.0233 0.12793,0 0.20934,-0.12792 0.0815,-0.13956 0.15119,-0.25585 0.12793,-0.11626 0.24422,-0.24423 0.12793,-0.13956 0.24423,-0.2675 0.13956,-0.1628 0.20934,-0.32562 0.0699,-0.16282 0.0699,-0.32565 0,-0.10465 -0.0466,-0.1628 -0.0349,-0.0699 -0.11627,-0.0699 z"
           inkscape:connector-curvature="0" />
        <path
           id="path4565"
           style="fill:#ffffff;fill-opacity:1;stroke-width:0.59544653"
           d="m 205.00802,384.12649 q 0.10465,-0.11625 0.20936,-0.27911 0.10464,-0.17445 0.2791,-0.37216 l 0.76757,-0.67453 q 0.0466,-0.0349 0.0466,-0.093 0.0118,-0.0581 0.0118,-0.16282 -0.0118,-0.15117 -0.0349,-0.24422 0,-0.26747 0.10465,-0.89549 0.10465,-0.62802 0.18606,-0.75595 l -0.0697,-0.22095 q 0.15118,-0.77921 0.41866,-1.69795 0.27912,-0.93039 0.62801,-2.01197 0.11627,-0.18607 0.24423,-0.46519 0.12794,-0.29074 0.29075,-0.65127 0.19771,-0.60475 0.52334,-1.26766 0.32564,-0.66288 0.73268,-1.36068 0.54661,-0.91875 0.96527,-1.38395 0.43031,-0.46518 0.76758,-0.46518 0.67451,0 0.91875,0.26748 0.25585,0.25586 0.25585,0.97689 0,0.18609 -0.0699,0.5815 -0.0582,0.38379 -0.0582,0.5815 0,0.19771 -0.12793,0.55823 -0.12793,0.36052 -0.12793,0.66289 -0.0118,0.0929 -0.0581,0.18607 l 0.0118,0.16283 q -0.0466,0.16281 -0.13957,0.39542 -0.0931,0.23259 -0.24422,0.55822 -0.0815,0.29075 -0.20934,0.67453 -0.12793,0.38379 -0.30238,0.83735 -0.0699,0.11626 -0.18607,0.29075 -0.10465,0.16281 -0.2326,0.37214 -0.0349,0.15119 -0.11625,0.3489 -0.0815,0.1977 -0.22097,0.4652 -0.0699,0.13955 -0.18607,0.30237 -0.11625,0.16281 -0.27912,0.41867 -0.0699,0.11626 -0.15119,0.29075 -0.0815,0.17445 -0.18608,0.39541 -0.12793,0.1977 -0.33726,0.48845 -0.20934,0.29075 -0.47682,0.68616 -0.36053,0.63965 -0.74431,1.22114 0,1.12809 0.44192,1.70958 0.45358,0.56986 1.34907,0.56986 0.0581,0 0.3489,-0.0815 0.29075,-0.0815 0.80245,-0.25585 0.15118,-0.0931 0.36054,-0.25586 0.20933,-0.17444 0.47681,-0.40705 l 0.45355,1.06995 q -0.30236,0.26749 -0.60474,0.5466 -0.30238,0.27912 -0.61638,0.5466 -0.36053,0.30238 -0.73268,0.46519 -0.37215,0.15119 -0.73267,0.15119 -0.18608,0 -0.56987,-0.0349 -0.38379,-0.0466 -0.58149,-0.0466 -0.65126,0 -1.08157,-0.52335 -0.41867,-0.52334 -0.59312,-1.57002 -0.0233,-0.10465 -0.0699,-0.18607 -0.0349,-0.0815 -0.13956,-0.18608 -0.15118,0.15118 -0.36051,0.36051 -0.19771,0.20934 -0.48846,0.47684 z m 5.54742,-9.1294 -0.0815,-0.0466 q -0.65129,0.628 -0.98855,1.18624 -0.32563,0.55823 -0.32563,1.08156 0,0.0815 -0.0815,0.27913 -0.0699,0.18606 -0.22096,0.48845 -0.18607,0.36052 -0.38378,0.79081 -0.22096,0.65128 -0.33727,1.05832 -0.11626,0.40705 -0.11626,0.58151 l 0.0699,0.093 q 0.10465,-0.0118 0.25585,-0.20933 0.15119,-0.19772 0.34889,-0.5815 0.093,-0.20934 0.2675,-0.48845 0.17443,-0.27911 0.39541,-0.6629 0.18607,-0.25586 0.59312,-1.31418 0.40703,-1.05831 0.44193,-1.34906 0.0117,-0.23259 0.0582,-0.45355 0.0582,-0.2326 0.10465,-0.45357 z"
           inkscape:connector-curvature="0" />
        <path
           id="path4567"
           style="fill:#ffffff;fill-opacity:1;stroke-width:0.59544653"
           d="m 211.56725,384.12649 q 0.0815,-0.0815 0.17444,-0.20933 0.0815,-0.13956 0.1977,-0.30238 l 0.8955,-0.61639 q 0.16282,-0.1977 0.50009,-0.50007 0.33726,-0.31401 0.83734,-0.75593 0.0582,-0.12794 0.18608,-0.29075 0.13956,-0.17445 0.32563,-0.33727 0.16281,-0.15119 0.32564,-0.27912 0.16282,-0.13955 0.30237,-0.26748 0.17444,-0.17445 0.32564,-0.3489 0.16281,-0.17443 0.32563,-0.33726 0.18608,-0.16281 0.38378,-0.25586 0.19771,-0.0931 0.43032,-0.0931 0.25585,0 0.38377,0.0699 0.13956,0.0581 0.15119,0.17446 -0.11626,0.26747 -0.24422,0.53495 l 0.0699,0.10476 q 0.51171,-0.19772 0.80245,-0.29076 0.29076,-0.093 0.37217,-0.093 0.84897,0 1.26765,0.52336 0.4303,0.51171 0.4303,1.55839 0,0.1977 -0.0466,0.4652 -0.0466,0.26748 -0.15118,0.58149 -0.11626,0.34888 -0.25586,0.58147 -0.12794,0.23261 -0.24423,0.33727 0.0466,0.15119 0.10465,0.22097 0.0582,0.0582 0.15119,0.0582 0.093,0 0.18608,-0.0582 0.10465,-0.0581 0.24422,-0.17445 0.11625,0.25586 0.22097,0.53498 0.11626,0.26748 0.2326,0.53497 -0.20934,0.18609 -0.40704,0.36052 -0.19772,0.17446 -0.41867,0.33726 -0.2675,0.22097 -0.51172,0.32565 -0.23259,0.093 -0.4652,0.093 -0.26748,0 -0.44194,-0.12793 -0.17444,-0.12794 -0.27911,-0.36054 -0.29074,0.38379 -0.70941,0.70942 -0.40705,0.31402 -0.90712,0.52336 -0.29075,0.13955 -0.53498,0.22095 -0.2326,0.0699 -0.4303,0.0699 -0.0582,0 -0.2326,0.0466 -0.16282,0.0466 -0.26748,0.0466 -0.66291,0 -1.19788,-0.55823 -0.53497,-0.55823 -0.53497,-1.24439 0,-0.27913 0.12793,-0.73268 0.12793,-0.46519 0.12793,-0.5466 0,-0.0815 -0.0582,-0.12793 -0.0466,-0.0582 -0.13956,-0.0582 -0.0581,0 -0.27911,0.17444 -0.22097,0.17445 -0.62802,0.50009 -0.0349,0.0466 -0.0815,0.13956 -0.0466,0.0931 -0.15118,0.20933 -0.093,-0.26748 -0.20933,-0.53497 -0.11626,-0.27911 -0.25586,-0.53497 z m 5.59393,-2.12824 q -0.0582,0.0117 -0.17444,0.12791 -0.10465,0.10465 -0.20933,0.26749 -0.16284,0.26748 -0.37217,0.58149 -0.12792,0.13956 -0.27911,0.22096 -0.13956,0.0699 -0.32564,0.10465 -0.11625,0.0118 -0.24421,0.2326 -0.12794,0.20933 -0.25586,0.61638 -0.12793,0.36052 -0.18608,0.61637 -0.0582,0.25586 -0.0582,0.43031 0,0.32563 0.16282,0.48846 0.16282,0.16281 0.50009,0.16281 0.53496,0 0.97689,-0.29074 0.45357,-0.30238 0.84898,-0.89551 0.18607,-0.22096 0.3489,-0.41867 0.093,-0.0698 0.15118,-0.22096 0.0581,-0.16283 0.11626,-0.39542 l 0.20933,-0.6629 q -0.10465,-0.3489 -0.1977,-0.5466 -0.0929,-0.20933 -0.18608,-0.25586 -0.0582,-0.0349 -0.25586,-0.0697 -0.19771,-0.0466 -0.56986,-0.0929 z"
           inkscape:connector-curvature="0" />
      </g>
    </g>
  </g>
</svg>
